<?xml version="1.0" standalone="no"?><!DOCTYPE svg PUBLIC "-//W3C//DTD SVG 1.1//EN" "http://www.w3.org/Graphics/SVG/1.1/DTD/svg11.dtd"><svg t="1656145472380" class="icon" viewBox="0 0 1024 1024" version="1.1" xmlns="http://www.w3.org/2000/svg" p-id="9705" xmlns:xlink="http://www.w3.org/1999/xlink" width="300" height="300"><defs><style type="text/css">@font-face { font-family: feedback-iconfont; src: url("//at.alicdn.com/t/font_1031158_u69w8yhxdu.woff2?t=1630033759944") format("woff2"), url("//at.alicdn.com/t/font_1031158_u69w8yhxdu.woff?t=1630033759944") format("woff"), url("//at.alicdn.com/t/font_1031158_u69w8yhxdu.ttf?t=1630033759944") format("truetype"); }
</style></defs><path d="M830.904679 268.49508 745.113757 268.49508C708.080306 154.440441 619.198999 83.83129 511.984139 83.83129S315.919694 154.440441 278.855544 268.49508l-85.760223 0c-48.204885 0-87.411839 39.987736-87.411839 89.202625l0 493.345128c0 49.152467 39.20593 89.125877 87.411839 89.125877l637.809357 0c46.275953 0 83.83129-36.910655 86.830601-83.310428 0.121773-1.039679 0.579191-1.89721 0.579191-2.937912l0-2.877537 0-23.627117L918.314471 357.697705C918.314471 308.481793 879.10854 268.49508 830.904679 268.49508M511.984139 148.33335c75.719542 0 136.780223 43.629683 168.947853 120.160707L343.068008 268.494057C375.234615 191.963033 436.264597 148.33335 511.984139 148.33335M826.71117 881.95589 197.28883 881.95589c-18.945491 0-34.30941-15.793708-34.30941-35.19764L162.97942 361.951589c0-19.404955 15.363919-35.166941 34.30941-35.166941l68.007907 0c-3.091408 19.939121-4.622274 39.83424-4.622274 59.360969 0 15.364943 1.010003 30.973432 3.03001 47.517223-16.068977 10.497075-25.863041 28.387537-25.863041 47.914266 0 31.494295 25.159006 57.141418 56.101739 57.141418 30.882358 0 56.07104-25.647123 56.07104-57.141418 0-19.388583-9.824763-37.386492-25.892717-47.914266-2.539846-16.771989-3.764744-32.351825-3.764744-47.517223 0-19.863397 1.836835-39.803541 5.448082-59.360969l372.35759 0c3.612271 19.465331 5.448082 39.405475 5.448082 59.360969 0 15.395642-1.254573 31.157627-3.795443 48.083112-15.578814 10.559497-25.066909 28.387537-25.066909 47.348378 0 31.494295 25.130354 57.141418 56.041364 57.141418 30.943756 0 56.101739-25.647123 56.101739-57.141418 0-19.894096-10.039657-37.983079-26.536376-48.38908 1.957585-16.160051 2.907213-31.616068 2.907213-47.042409 0-19.618826-1.528819-39.512922-4.559852-59.360969l68.007907 0c18.883069 0 34.248012 15.761985 34.248012 35.166941L860.958158 846.881047C860.897783 866.22358 845.565587 881.95589 826.71117 881.95589" p-id="9706" fill="#ffffff"></path></svg>