<?xml version="1.0" standalone="no"?><!DOCTYPE svg PUBLIC "-//W3C//DTD SVG 1.1//EN" "http://www.w3.org/Graphics/SVG/1.1/DTD/svg11.dtd"><svg t="1656145425232" class="icon" viewBox="0 0 1024 1024" version="1.1" xmlns="http://www.w3.org/2000/svg" p-id="8773" xmlns:xlink="http://www.w3.org/1999/xlink" width="300" height="300"><defs><style type="text/css">@font-face { font-family: feedback-iconfont; src: url("//at.alicdn.com/t/font_1031158_u69w8yhxdu.woff2?t=1630033759944") format("woff2"), url("//at.alicdn.com/t/font_1031158_u69w8yhxdu.woff?t=1630033759944") format("woff"), url("//at.alicdn.com/t/font_1031158_u69w8yhxdu.ttf?t=1630033759944") format("truetype"); }
</style></defs><path d="M869.12 475.306667a111.786667 111.786667 0 0 0-104.106667 67.84l-63.573333-13.653334a128 128 0 0 0 0-18.346666 179.2 179.2 0 0 0-108.8-163.413334l29.44-71.68a165.546667 165.546667 0 0 0 20.48 0A109.653333 109.653333 0 0 0 755.626667 170.666667a112.213333 112.213333 0 0 0-224 0 106.24 106.24 0 0 0 58.88 94.293333l-29.44 71.68A197.973333 197.973333 0 0 0 512 330.666667a194.56 194.56 0 0 0-121.173333 42.666666L246.186667 233.386667A104.106667 104.106667 0 0 0 267.52 170.666667a109.653333 109.653333 0 0 0-112.213333-106.666667A109.653333 109.653333 0 0 0 42.666667 170.666667a109.653333 109.653333 0 0 0 112.64 107.093333A116.906667 116.906667 0 0 0 220.586667 256l145.92 140.8a177.066667 177.066667 0 0 0-42.666667 114.346667 173.226667 173.226667 0 0 0 30.293333 97.706666l-123.733333 93.013334a114.346667 114.346667 0 0 0-75.52-28.16 107.093333 107.093333 0 1 0 0 213.333333 109.226667 109.226667 0 0 0 111.786667-106.666667 105.813333 105.813333 0 0 0-13.653334-51.626666l123.733334-93.013334a192.853333 192.853333 0 0 0 136.533333 55.466667 194.56 194.56 0 0 0 69.12-12.373333L635.306667 768a105.813333 105.813333 0 0 0-45.653334 85.333333 112.213333 112.213333 0 1 0 112.213334-106.666666 114.346667 114.346667 0 0 0-32.426667 4.693333l-53.333333-88.32a181.333333 181.333333 0 0 0 77.653333-97.706667l63.573333 13.653334v3.413333a112.213333 112.213333 0 1 0 111.786667-106.666667zM512 657.066667A147.2 147.2 0 0 1 362.666667 512 147.2 147.2 0 0 1 512 369.92 147.2 147.2 0 0 1 663.466667 512 147.2 147.2 0 0 1 512 657.066667z" p-id="8774" fill="#ffffff"></path></svg>