<?xml version="1.0" standalone="no"?><!DOCTYPE svg PUBLIC "-//W3C//DTD SVG 1.1//EN" "http://www.w3.org/Graphics/SVG/1.1/DTD/svg11.dtd"><svg t="1656145145153" class="icon" viewBox="0 0 1024 1024" version="1.1" xmlns="http://www.w3.org/2000/svg" p-id="6159" xmlns:xlink="http://www.w3.org/1999/xlink" width="300" height="300"><defs><style type="text/css">@font-face { font-family: feedback-iconfont; src: url("//at.alicdn.com/t/font_1031158_u69w8yhxdu.woff2?t=1630033759944") format("woff2"), url("//at.alicdn.com/t/font_1031158_u69w8yhxdu.woff?t=1630033759944") format("woff"), url("//at.alicdn.com/t/font_1031158_u69w8yhxdu.ttf?t=1630033759944") format("truetype"); }
</style></defs><path d="M501.39 971.43H223.52c-95.01 0-172.31-77.3-172.31-172.29V226.47c0-94.99 77.3-172.29 172.31-172.29H669.3c95.01 0 172.31 77.3 172.31 172.29v236.86c0 20.95-16.97 37.91-37.91 37.91s-37.91-16.96-37.91-37.91V226.47c0-53.2-43.3-96.48-96.49-96.48H223.52c-53.2 0-96.49 43.28-96.49 96.48v572.67c0 53.2 43.3 96.48 96.49 96.48h277.87c20.93 0 37.91 16.96 37.91 37.91 0 20.95-16.97 37.9-37.91 37.9z" fill="#ffffff" p-id="6160"></path><path d="M702.3 332.13H198.6c-20.94 0-37.91-16.96-37.91-37.91s16.97-37.91 37.91-37.91h503.7c20.93 0 37.91 16.96 37.91 37.91s-16.97 37.91-37.91 37.91zM433.35 466.44H198.6c-20.94 0-37.91-16.96-37.91-37.91s16.97-37.91 37.91-37.91h234.75c20.93 0 37.91 16.96 37.91 37.91s-16.98 37.91-37.91 37.91zM752.04 971.43c-122.74 0-222.6-99.84-222.6-222.6 0-122.72 99.86-222.57 222.6-222.57s222.6 99.84 222.6 222.57c0 122.76-99.86 222.6-222.6 222.6z m0-369.35c-80.95 0-146.79 65.82-146.79 146.75s65.84 146.79 146.79 146.79 146.79-65.86 146.79-146.79-65.85-146.75-146.79-146.75z" fill="#ffffff" p-id="6161"></path><path d="M736.04 771.6c-20.93 0-37.91-16.96-37.91-37.91v-67.82c0-20.95 16.97-37.91 37.91-37.91 20.94 0 37.91 16.96 37.91 37.91v67.82c0 20.95-16.97 37.91-37.91 37.91z" fill="#ffffff" p-id="6162"></path><path d="M803.85 771.6h-67.8c-20.93 0-37.91-16.96-37.91-37.91s16.97-37.91 37.91-37.91h67.8c20.94 0 37.91 16.96 37.91 37.91s-16.98 37.91-37.91 37.91z" fill="#ffffff" p-id="6163"></path></svg>