<?xml version="1.0" standalone="no"?><!DOCTYPE svg PUBLIC "-//W3C//DTD SVG 1.1//EN" "http://www.w3.org/Graphics/SVG/1.1/DTD/svg11.dtd"><svg t="1658455152226" class="icon" viewBox="0 0 1024 1024" version="1.1" xmlns="http://www.w3.org/2000/svg" p-id="652" xmlns:xlink="http://www.w3.org/1999/xlink" width="300" height="300"><defs><style type="text/css">@font-face { font-family: feedback-iconfont; src: url("//at.alicdn.com/t/font_1031158_u69w8yhxdu.woff2?t=1630033759944") format("woff2"), url("//at.alicdn.com/t/font_1031158_u69w8yhxdu.woff?t=1630033759944") format("woff"), url("//at.alicdn.com/t/font_1031158_u69w8yhxdu.ttf?t=1630033759944") format("truetype"); }
</style></defs><path d="M874.88 182.72a96 96 0 0 0-96-54.72H246.72a92.16 92.16 0 0 0-92.8 54.72l-80.96 171.2A138.88 138.88 0 0 0 64 403.2a150.08 150.08 0 0 0 92.8 132.48 203.2 203.2 0 0 0 83.84 15.68 186.88 186.88 0 0 0 134.72-54.72 186.24 186.24 0 0 0 134.72 54.72 185.92 185.92 0 0 0 134.4-54.72 192 192 0 0 0 137.6 54.72 168.96 168.96 0 0 0 83.84-18.24A150.4 150.4 0 0 0 960 398.08a84.8 84.8 0 0 0-7.36-46.08q0-2.88-77.76-169.28z m-89.6 313.92a117.76 117.76 0 0 1-96-46.72 80.64 80.64 0 0 0-8.96-12.8 43.84 43.84 0 0 0-30.08-10.56 49.28 49.28 0 0 0-29.76 10.56c-7.36 7.04-7.04 8.32-9.28 10.24a121.28 121.28 0 0 1-192 0c-4.16-4.48-3.52-4.48-8.96-10.24a47.68 47.68 0 0 0-64 0 76.16 76.16 0 0 0-8.96 12.8 119.04 119.04 0 0 1-96 46.72 117.12 117.12 0 0 1-53.76-10.24 98.88 98.88 0 0 1-59.84-85.76 146.24 146.24 0 0 1 6.08-32l80.64-166.4c0-2.56 6.08-15.36 30.08-15.36h534.72a33.92 33.92 0 0 1 32 18.24l74.88 166.08a117.76 117.76 0 0 1 5.76 32 87.68 87.68 0 0 1-53.76 85.76 117.12 117.12 0 0 1-52.8 7.68z" p-id="653" fill="#ffffff"></path><path d="M864 576a34.88 34.88 0 0 0-32 35.84v192a20.48 20.48 0 0 1-17.92 19.52H201.6a20.48 20.48 0 0 1-17.92-19.52v-187.52a34.56 34.56 0 0 0-32-35.84 34.56 34.56 0 0 0-32 35.84v188.48A87.36 87.36 0 0 0 201.6 896h610.56A87.36 87.36 0 0 0 896 804.8v-192c-3.2-19.2-15.04-36.8-32-36.8z" p-id="654" fill="#ffffff"></path><path d="M768 379.84H246.72a32 32 0 0 1-32-28.48 32 32 0 0 1 32-28.48h517.44a32 32 0 0 1 32 28.48 32 32 0 0 1-28.16 28.48z" p-id="655" fill="#ffffff"></path></svg>