<?xml version="1.0" standalone="no"?><!DOCTYPE svg PUBLIC "-//W3C//DTD SVG 1.1//EN" "http://www.w3.org/Graphics/SVG/1.1/DTD/svg11.dtd"><svg t="1658455422660" class="icon" viewBox="0 0 1024 1024" version="1.1" xmlns="http://www.w3.org/2000/svg" p-id="1089" xmlns:xlink="http://www.w3.org/1999/xlink" width="300" height="300"><defs><style type="text/css">@font-face { font-family: feedback-iconfont; src: url("//at.alicdn.com/t/font_1031158_u69w8yhxdu.woff2?t=1630033759944") format("woff2"), url("//at.alicdn.com/t/font_1031158_u69w8yhxdu.woff?t=1630033759944") format("woff"), url("//at.alicdn.com/t/font_1031158_u69w8yhxdu.ttf?t=1630033759944") format("truetype"); }
</style></defs><path d="M464.96 591.36A208.32 208.32 0 1 1 672 384a207.36 207.36 0 0 1-207.04 207.36z m0-363.2A155.2 155.2 0 1 0 618.24 384a154.24 154.24 0 0 0-153.28-155.84z" p-id="1090" fill="#ffffff"></path><path d="M464.96 596.16A213.12 213.12 0 1 1 675.52 384a212.16 212.16 0 0 1-210.56 212.16z m0-416A203.52 203.52 0 1 0 665.92 384a202.56 202.56 0 0 0-200.96-204.16z m0 363.2a160 160 0 1 1 158.08-160A160 160 0 0 1 464.96 544z m0-310.08A150.4 150.4 0 1 0 613.44 384a149.44 149.44 0 0 0-148.48-151.04z" p-id="1091" fill="#ffffff"></path><path d="M801.92 896H128v-26.56c0-181.12 141.76-313.28 336.96-313.28s336.96 131.52 336.96 313.28zM181.76 842.88h566.4c-13.12-136.64-128-232.96-283.2-232.96s-270.08 96-283.2 232.96z m520.32-308.16l-32-43.2a173.12 173.12 0 0 0-73.6-310.4L605.76 128a226.24 226.24 0 0 1 96 406.08z" p-id="1092" fill="#ffffff"></path><path d="M806.72 900.8H123.2v-32c0-184.32 143.68-318.08 341.76-318.08s341.76 133.76 341.76 318.08z m-208.32-10.24h198.72v-21.76c0-178.88-139.84-308.48-332.16-308.48s-332.16 128-332.16 308.48v21.76h332.48c11.2 0.32 53.12 0 133.12 0z m154.88-42.88h-576v-5.44c13.44-139.84 131.52-237.12 288-237.12 156.16 0 274.56 97.6 288 237.12z m-566.08-9.6h555.52c-15.36-131.84-128-224-277.76-224-149.44 0.64-262.4 92.16-277.76 224z m513.92-296.64l-36.16-50.88 3.84-2.88A169.28 169.28 0 0 0 737.6 352a167.36 167.36 0 0 0-140.16-165.44h-4.8l9.28-62.08h4.8A230.4 230.4 0 0 1 800 352a232.96 232.96 0 0 1-96 187.2z m-23.04-48.64l25.92 34.88a221.76 221.76 0 0 0-93.44-393.6l-6.4 43.2A176.96 176.96 0 0 1 747.2 352a179.84 179.84 0 0 1-69.12 140.8z" p-id="1093" fill="#ffffff"></path><path d="M914.56 832L864 815.36a210.24 210.24 0 0 0 10.24-65.92A204.8 204.8 0 0 0 672 544v-54.08a256 256 0 0 1 256 258.88 261.44 261.44 0 0 1-13.44 83.2z" p-id="1094" fill="#ffffff"></path><path d="M917.44 838.4l-58.88-20.16v-4.48a197.76 197.76 0 0 0 10.24-64 200 200 0 0 0-196.8-201.6h-5.12v-64H672a265.28 265.28 0 0 1 247.36 348.48z m-47.04-26.24l40.96 13.76a240.32 240.32 0 0 0 11.2-76.8 253.12 253.12 0 0 0-246.08-254.4v43.84a210.24 210.24 0 0 1 203.52 210.88 207.04 207.04 0 0 1-9.6 62.72z" p-id="1095" fill="#ffffff"></path><path d="M914.56 832h-57.6l8-17.6h49.6zM605.76 181.12h-7.68V128h7.68z" p-id="1096" fill="#ffffff"></path></svg>