<svg width="140" height="53" viewBox="0 0 140 53" fill="none" xmlns="http://www.w3.org/2000/svg">
<path d="M0 43.2775V33.6548L20.8078 0.698026H29.3144V13.7611H24.3791L12.2019 33.1562V33.555H42.3348V43.2775H0ZM24.5279 51.7535V40.3358L24.7759 36.1228V0.698026H36.2586V51.7535H24.5279Z" fill="#7948F7"/>
<path d="M69.7768 53C65.3457 53 61.5264 51.9447 58.3189 49.834C55.1113 47.7067 52.6395 44.6569 50.9034 40.6849C49.1674 36.6961 48.3076 31.9014 48.3242 26.3006C48.3407 20.6998 49.2087 15.9465 50.9283 12.0409C52.6643 8.11869 55.1278 5.13547 58.3189 3.09125C61.5264 1.03042 65.3457 0 69.7768 0C74.2078 0 78.0272 1.03042 81.2347 3.09125C84.4588 5.13547 86.9389 8.11869 88.6749 12.0409C90.411 15.9632 91.2707 20.7164 91.2542 26.3006C91.2542 31.918 90.3862 36.7211 88.6501 40.7098C86.9141 44.6985 84.4423 47.7482 81.2347 49.8589C78.0437 51.953 74.2244 53 69.7768 53ZM69.7768 42.9036C72.4222 42.9036 74.5633 41.5491 76.2002 38.8401C77.837 36.1145 78.6472 31.9346 78.6306 26.3006C78.6306 22.611 78.2586 19.5696 77.5146 17.1764C76.7706 14.7665 75.7372 12.9716 74.4145 11.7916C73.0918 10.6116 71.5459 10.0216 69.7768 10.0216C67.1479 10.0216 65.0233 11.3595 63.403 14.0353C61.7827 16.6944 60.9643 20.7829 60.9477 26.3006C60.9312 30.04 61.2867 33.1395 62.0142 35.5992C62.7582 38.059 63.7998 39.8954 65.1391 41.1087C66.4783 42.3053 68.0242 42.9036 69.7768 42.9036Z" fill="#7948F7"/>
<path d="M97.6652 43.2775V33.6548L118.473 0.698026H126.98V13.7611H122.044L109.867 33.1562V33.555H140V43.2775H97.6652ZM122.193 51.7535V40.3358L122.441 36.1228V0.698026H133.924V51.7535H122.193Z" fill="#7948F7"/>
</svg>
