<svg width="36" height="36" viewBox="0 0 36 36" fill="none" xmlns="http://www.w3.org/2000/svg">
<circle cx="18" cy="18" r="18" fill="#7948F7"/>
<path fill-rule="evenodd" clip-rule="evenodd" d="M17.3367 5.81873C17.7194 5.49195 18.2814 5.48705 18.6697 5.80709L21.2101 7.90095C21.7027 8.30691 22.3082 8.55155 22.9445 8.60168L26.2264 8.86021C26.7281 8.89973 27.1289 9.29367 27.1772 9.79455L27.493 13.0715C27.5542 13.7068 27.8093 14.3079 28.2238 14.7933L30.3617 17.2968C30.6885 17.6795 30.6934 18.2415 30.3733 18.6298L28.2795 21.1702C27.8735 21.6628 27.6289 22.2683 27.5787 22.9046L27.3202 26.1866C27.2807 26.6882 26.8868 27.0891 26.3859 27.1374L23.1089 27.4532C22.4736 27.5144 21.8725 27.7696 21.3871 28.1841L18.8836 30.3219C18.501 30.6487 17.9389 30.6536 17.5506 30.3335L15.0102 28.2397C14.5176 27.8337 13.9121 27.5891 13.2758 27.539L9.99386 27.2804C9.49221 27.2409 9.09133 26.847 9.04306 26.3461L8.72728 23.0691C8.66606 22.4338 8.41089 21.8326 7.99639 21.3472L5.85852 18.8437C5.53175 18.4611 5.52684 17.8991 5.84689 17.5108L7.94074 14.9703C8.34671 14.4778 8.59134 13.8723 8.64147 13.236L8.9 9.95406C8.93952 9.45241 9.33347 9.05153 9.83434 9.00327L13.1113 8.68749C13.7467 8.62627 14.3478 8.3711 14.8332 7.95659L17.3367 5.81873Z" fill="white"/>
<path d="M11.9835 17.6853L16.3472 21.7996L23.9835 14.5996" stroke="#7948F7" stroke-width="2.88"/>
</svg>
