<svg width="75" height="28" viewBox="0 0 75 28" fill="none" xmlns="http://www.w3.org/2000/svg">
<g clip-path="url(#clip0_3396_8981)">
<g clip-path="url(#clip1_3396_8981)">
<g filter="url(#filter0_b_3396_8981)">
<path d="M61 0C68.732 0 75 6.26801 75 14C75 21.732 68.732 28 61 28H14C6.26801 28 0 21.732 0 14C0 6.26801 6.26801 0 14 0H61Z" fill="#FFBB0E" fill-opacity="0.9"/>
</g>
<g clip-path="url(#clip2_3396_8981)">
<mask id="mask0_3396_8981" style="mask-type:alpha" maskUnits="userSpaceOnUse" x="14" y="7" width="13" height="14">
<rect x="14" y="7.5" width="13" height="13" fill="white"/>
</mask>
<g mask="url(#mask0_3396_8981)">
<path opacity="0.01" fill-rule="evenodd" clip-rule="evenodd" d="M26.0714 7.5V19.5714H14V7.5H26.0714Z" fill="black"/>
</g>
<path d="M42.234 14.016V14.94H35.864V14.016H42.234ZM35.864 16.746V15.836H42.234V16.746H35.864ZM35.864 18.594V17.642H42.234V18.594H35.864ZM34.618 20.022H35.864V19.56H42.234V19.952H43.55V13.05H34.618V20.022ZM45.062 9.564V8.458H39.868C39.7 8.038 39.434 7.506 39.168 7.114L37.992 7.45C38.16 7.758 38.342 8.108 38.482 8.458H32.896V9.564H34.506V12.112H44.18V10.978H35.794V9.564H45.062ZM49.486 16.494H51.11V18.622H49.486V16.494ZM53.952 16.494V18.622H52.3V16.494H53.952ZM56.794 16.494V18.622H55.142V16.494H56.794ZM58.068 15.458H48.268V18.622H46.938V19.812H59.356V18.622H58.068V15.458ZM55.996 13.792H50.284V12.714H55.996V13.792ZM49.122 11.832V14.688H57.214V11.832H49.122ZM51.32 10.166C51.978 9.746 52.594 9.27 53.14 8.78C53.686 9.214 54.372 9.704 55.156 10.166H51.32ZM53.07 7.128C51.782 8.71 49.29 10.138 46.616 11.034C46.882 11.272 47.288 11.776 47.442 12.084C48.492 11.678 49.5 11.23 50.438 10.698V11.104H55.912V10.614C56.864 11.132 57.872 11.608 58.838 11.958C59.034 11.608 59.454 11.09 59.734 10.81C57.648 10.208 55.226 9.032 53.91 8.024C54.022 7.898 54.12 7.772 54.218 7.66L53.07 7.128Z" fill="white"/>
</g>
</g>
<rect opacity="0.01" x="12" y="6.5" width="15" height="15" fill="black"/>
<path fill-rule="evenodd" clip-rule="evenodd" d="M13.6294 8.81028C13.3771 9.07938 13.5676 9.51988 13.9365 9.52021L25.3541 9.53052C25.7124 9.53085 25.9077 9.11237 25.6773 8.83793L24.6264 7.5858C24.3594 7.26769 23.9653 7.08398 23.55 7.08398H15.8569C15.4685 7.08398 15.0975 7.24471 14.8318 7.52801L13.6294 8.81028ZM22.8409 17.7709C22.7598 17.7709 22.6902 17.7587 22.6206 17.7221L19.6123 16.8703L16.5345 17.7343C16.349 17.8074 16.1287 17.7952 15.9664 17.6733C15.804 17.5636 15.6997 17.3686 15.6997 17.1492V11.809C15.6997 11.421 15.3851 11.1064 14.9971 11.1064H13.292C12.9039 11.1064 12.5894 11.421 12.5894 11.809V19.0862C12.5894 20.1908 13.4848 21.0862 14.5894 21.0862H24.5894C25.6939 21.0862 26.5894 20.1908 26.5894 19.0862V11.809C26.5894 11.421 26.2748 11.1064 25.8867 11.1064H24.1812C23.7932 11.1064 23.4786 11.421 23.4786 11.809V17.1492C23.4786 17.3564 23.3859 17.5636 23.2119 17.6733C23.0728 17.7343 22.9569 17.7709 22.8409 17.7709ZM17.9581 11.1064C17.57 11.1064 17.2555 11.421 17.2555 11.809V15.9693L19.392 15.3613C19.5312 15.3003 19.6935 15.3003 19.8558 15.3613L21.9228 15.9571V11.809C21.9228 11.421 21.6083 11.1064 21.2202 11.1064H17.9581Z" fill="white"/>
</g>
<defs>
<filter id="filter0_b_3396_8981" x="-5.43656" y="-5.43656" width="85.8731" height="38.8731" filterUnits="userSpaceOnUse" color-interpolation-filters="sRGB">
<feFlood flood-opacity="0" result="BackgroundImageFix"/>
<feGaussianBlur in="BackgroundImageFix" stdDeviation="2.71828"/>
<feComposite in2="SourceAlpha" operator="in" result="effect1_backgroundBlur_3396_8981"/>
<feBlend mode="normal" in="SourceGraphic" in2="effect1_backgroundBlur_3396_8981" result="shape"/>
</filter>
<clipPath id="clip0_3396_8981">
<rect width="75" height="28" fill="white"/>
</clipPath>
<clipPath id="clip1_3396_8981">
<rect width="75" height="28" fill="white"/>
</clipPath>
<clipPath id="clip2_3396_8981">
<rect width="46.5" height="16" fill="white" transform="translate(14 6)"/>
</clipPath>
</defs>
</svg>
