<svg width="154" height="25" viewBox="0 0 154 25" fill="none" xmlns="http://www.w3.org/2000/svg">
<path d="M39.44 8.9H41.8V7.58H46.28V8.72H48.66V7.58H52.88V5.44H48.66V4.06H46.28V5.44H41.8V4.06H39.44V5.44H35.16V7.58H39.44V8.9ZM40.06 8.96C39.74 9.32 39.38 9.68 38.98 10.04C38.46 9.56 37.88 9.12 37.16 8.7L35.62 9.92C36.32 10.34 36.88 10.8 37.36 11.26C36.48 11.82 35.56 12.34 34.62 12.72C35.08 13.12 35.72 13.82 36.04 14.3C36.88 13.9 37.74 13.44 38.56 12.9C38.74 13.26 38.9 13.62 39 14C38.08 15.32 36.2 16.74 34.62 17.38C35.1 17.82 35.68 18.56 36 19.1C37.08 18.46 38.34 17.48 39.36 16.46V16.66C39.36 18.48 39.18 19.72 38.76 20.24C38.6 20.44 38.46 20.54 38.16 20.56C37.76 20.62 37.02 20.62 36.04 20.56C36.44 21.14 36.66 21.92 36.68 22.6C37.64 22.64 38.42 22.62 39.18 22.46C39.66 22.36 40.06 22.14 40.36 21.8C41.26 20.82 41.54 19 41.54 16.8C41.54 15.02 41.34 13.26 40.32 11.62C40.92 11.12 41.5 10.6 41.98 10.04L40.06 8.96ZM52.82 14.46V12.26H50.82L52.26 11.24C51.82 10.52 50.82 9.54 49.94 8.88L48.34 10C49.1 10.66 49.96 11.56 50.42 12.26H48.14V12.18V9.1H45.92V12.16V12.26H41.8V14.46H45.74C45.36 16.7 44.24 19.2 41.1 21.24C41.68 21.62 42.46 22.28 42.86 22.78C45.24 21.24 46.56 19.34 47.28 17.42C48.24 19.76 49.64 21.58 51.72 22.66C52.04 22.04 52.72 21.16 53.22 20.72C50.7 19.64 49.16 17.32 48.34 14.46H52.82ZM69.6 7.3H64.4V6.3H69.6V7.3ZM69.6 9.9H64.4V8.86H69.6V9.9ZM72 4.64H62.1V11.56H72V4.64ZM58.66 4.08C57.82 5.42 56.06 7.04 54.5 8C54.86 8.5 55.44 9.48 55.68 10.02C57.56 8.8 59.6 6.84 60.92 5L58.66 4.08ZM59.18 8.44C58.02 10.4 56.06 12.34 54.28 13.58C54.64 14.16 55.24 15.52 55.42 16.04C56.02 15.58 56.62 15.02 57.22 14.42V22.72H59.52V11.86C60.18 11.02 60.78 10.18 61.26 9.34L59.18 8.44ZM73.06 15.52H70.34V14.38H72.66V12.44H61.08V14.38H67.92V15.52H60.6V17.54H63.4L61.92 18.52C62.76 19.36 63.78 20.54 64.22 21.3L66 20.04C65.5 19.34 64.52 18.3 63.72 17.54H67.92V20.32C67.92 20.54 67.84 20.62 67.56 20.64C67.3 20.64 66.36 20.64 65.52 20.6C65.82 21.2 66.16 22.08 66.26 22.72C67.62 22.72 68.62 22.72 69.36 22.38C70.14 22.04 70.34 21.48 70.34 20.38V17.54H73.08L73.06 15.52ZM83.5 14.32C83.06 13.84 80.96 11.82 80.18 11.18V10.2H82.48V8H80.18V4.06H77.84V8H74.86V10.2H77.4C76.78 12.66 75.56 15.46 74.22 17.04C74.68 17.68 75.3 18.82 75.56 19.5C76.42 18.34 77.2 16.62 77.84 14.74V22.74H80.18V13.8C80.94 14.74 81.72 15.8 82.16 16.5L83.5 14.32ZM90.26 8.04C89.72 10.82 88.84 13.22 87.6 15.2C86.58 13.28 85.88 10.96 85.34 8.04H90.26ZM91.32 5.64L90.94 5.74H82.7V8.04H83.72L83.12 8.16C83.78 11.98 84.66 14.9 86.08 17.28C84.76 18.8 83.16 19.96 81.38 20.72C81.9 21.16 82.54 22.08 82.88 22.7C84.64 21.82 86.18 20.7 87.5 19.26C88.62 20.58 89.98 21.74 91.68 22.84C92.02 22.14 92.76 21.28 93.38 20.82C91.58 19.8 90.18 18.68 89.06 17.32C90.98 14.54 92.24 10.86 92.84 6.12L91.32 5.64ZM112.86 7.82H108.06C108.68 7 109.42 5.88 110.1 4.78L107.68 4.06C107.26 5.1 106.46 6.52 105.84 7.44L106.94 7.82H101.12L102.2 7.26C101.82 6.38 100.96 5.04 100.12 4.06L98.1 4.94C98.72 5.82 99.44 6.94 99.86 7.82H95.14V9.92H112.86V7.82ZM105.58 11.74C107.56 12.5 110.34 13.7 111.72 14.48L113.04 12.6C111.58 11.84 108.74 10.74 106.82 10.08L105.58 11.74ZM99.28 16.22H100.94V20.02H99.28V16.22ZM104.78 16.22V20.02H103.12V16.22H104.78ZM108.66 16.22V20.02H106.96V16.22H108.66ZM110.86 20.02V14.22H97.5C99.24 13.36 101.24 12.22 102.5 11.28L100.84 10.1C99.52 11.04 96.9 12.22 95.02 12.78C95.52 13.28 96.08 14.16 96.38 14.74C96.64 14.62 96.9 14.5 97.18 14.38V20.02H94.88V22.12H113.12V20.02H110.86Z" fill="#101010"/>
<path d="M21.7105 7.05941L17.2728 9.4315C16.8394 9.66318 16.3019 9.54559 16.0048 9.15411L12.1501 4.07462C12.0751 3.97513 11.9252 3.97513 11.8479 4.07462L7.99536 9.15393C7.69836 9.54551 7.16084 9.66322 6.72737 9.43162L2.2875 7.05941C2.15399 6.97843 1.98067 7.08718 2.00175 7.2422L4.4233 20.6761C4.44906 20.8589 4.60833 21 4.79805 21H19.2046C19.392 21 19.5536 20.8612 19.577 20.6761L21.9986 7.2422C22.0173 7.08718 21.8463 6.97843 21.7105 7.05941ZM12.0002 11.8151C10.5457 11.8151 9.3629 12.9836 9.3629 14.4204C9.3629 15.8573 10.5457 17.0258 12.0002 17.0258C13.4546 17.0258 14.6374 15.8573 14.6374 14.4204C14.6374 12.9836 13.4546 11.8151 12.0002 11.8151Z" stroke="#101010" stroke-width="2.7" stroke-miterlimit="10"/>
</svg>
