<svg width="58" height="58" viewBox="0 0 58 58" fill="none" xmlns="http://www.w3.org/2000/svg">
<g clip-path="url(#clip0_233_1281)">
<path d="M29 0C37.0084 0 44.2584 3.24582 49.5063 8.49373C54.7542 13.7416 58 20.9916 58 29C58 37.0084 54.7542 44.2583 49.5063 49.5063C44.2584 54.7542 37.0084 58 29 58C20.9916 58 13.7416 54.7542 8.49373 49.5063C3.24582 44.2583 0 37.0084 0 29C0 20.9916 3.24582 13.7416 8.49373 8.49373C13.7416 3.24582 20.9916 0 29 0Z" fill="#DC2F2F"/>
<path d="M39.2405 19.3094C40.373 20.4419 40.373 22.2781 39.2405 23.4106L22.6218 40.0293C21.4893 41.1618 19.6531 41.1618 18.5206 40.0293C17.3881 38.8968 17.3881 37.0606 18.5206 35.9281L35.1393 19.3094C36.2718 18.1769 38.108 18.1769 39.2405 19.3094ZM39.2405 40.0293C38.108 41.1618 36.2718 41.1618 35.1393 40.0293L18.5206 23.4106C17.3881 22.2781 17.3881 20.4419 18.5206 19.3094C19.6531 18.1769 21.4893 18.1769 22.6218 19.3094L39.2405 35.9281C40.373 37.0606 40.373 38.8968 39.2405 40.0293Z" fill="white"/>
</g>
<defs>
<clipPath id="clip0_233_1281">
<rect width="58" height="58" fill="white"/>
</clipPath>
</defs>
</svg>
