<?xml version="1.0" encoding="UTF-8"?><svg version="1.1" width="40px" height="40px" viewBox="0 0 40.0 40.0" xmlns="http://www.w3.org/2000/svg" xmlns:xlink="http://www.w3.org/1999/xlink"><defs><clipPath id="i0"><path d="M1920,0 L1920,1800 L0,1800 L0,0 L1920,0 Z"></path></clipPath><clipPath id="i1"><path d="M20,0 C31.045695,0 40,8.954305 40,20 C40,31.045695 31.045695,40 20,40 C8.954305,40 0,31.045695 0,20 C0,8.954305 8.954305,0 20,0 Z"></path></clipPath></defs><g transform="translate(-1110.0 -320.0)"><g clip-path="url(#i0)"><g transform="translate(1110.0 320.0)"><g clip-path="url(#i1)"><polygon points="0,0 40,0 40,40 0,40 0,0" stroke="none" fill="#F4F4F5"></polygon></g><g transform="translate(14.0 14.0)"><path d="M0,0 L12,12" stroke="#000000" stroke-width="2" fill="none" stroke-miterlimit="10"></path><g transform="translate(12.0 0.0) scale(-1.0 1.0)"><path d="M0,0 L12,12" stroke="#000000" stroke-width="2" fill="none" stroke-miterlimit="10"></path></g></g></g></g></g></svg>