<svg width="32" height="32" viewBox="0 0 32 32" fill="none" xmlns="http://www.w3.org/2000/svg">
<circle cx="16" cy="16" r="16" fill="white"/>
<path fill-rule="evenodd" clip-rule="evenodd" d="M11.4109 9.71133C10.8251 9.12554 9.87535 9.12554 9.28956 9.71133C8.70377 10.2971 8.70377 11.2469 9.28956 11.8326L13.7299 16.273L9.56164 20.4412C8.97585 21.027 8.97585 21.9767 9.56164 22.5625C10.1474 23.1483 11.0972 23.1483 11.683 22.5625L15.8512 18.3943L19.8962 22.4392C20.4819 23.025 21.4317 23.025 22.0175 22.4392C22.6033 21.8535 22.6033 20.9037 22.0175 20.3179L17.9725 16.273L22.2896 11.9559C22.8753 11.3701 22.8753 10.4204 22.2896 9.8346C21.7038 9.24882 20.754 9.24882 20.1682 9.8346L15.8512 14.1516L11.4109 9.71133Z" fill="#7F7F7F"/>
</svg>
