<svg width="154" height="25" viewBox="0 0 154 25" fill="none" xmlns="http://www.w3.org/2000/svg">
<path d="M48.1 15.48V18.64H40.18V15.48H48.1ZM37.74 21.72H40.18V20.84H48.1V21.64H50.64V13.38H37.74V21.72ZM40.88 9.48C42.06 8.62 43.16 7.68 44.18 6.62C45.36 7.78 46.52 8.7 47.66 9.48H40.88ZM44.18 2.96C42.08 6.08 38.3 8.5 34.62 9.96C35.28 10.56 35.98 11.46 36.36 12.14C37.26 11.72 38.16 11.22 39.04 10.68V11.66H49.04V10.36C49.98 10.9 50.96 11.38 51.92 11.84C52.24 11.1 52.94 10.22 53.56 9.66C50.86 8.68 48.2 7.32 45.64 4.94C45.86 4.66 46.08 4.36 46.3 4.06L44.18 2.96ZM69.7 9.44C69.22 11.06 68.56 12.54 67.78 13.88C67.44 12.28 67.16 10.4 66.98 8.4H73.16V6.04H71.08L72.04 5.02C71.34 4.36 69.88 3.44 68.78 2.88L67.34 4.3C68.16 4.8 69.16 5.44 69.9 6.04H66.84C66.8 5.06 66.78 4.08 66.8 3.08H64.3C64.3 4.08 64.34 5.06 64.38 6.04H56.22V11.88C56.22 14.48 56.08 17.96 54.56 20.36C55.1 20.64 56.16 21.52 56.58 21.98C58.22 19.54 58.64 15.64 58.72 12.72H61.32C61.26 15.24 61.18 16.2 60.98 16.48C60.82 16.68 60.66 16.72 60.38 16.72C60.06 16.72 59.38 16.7 58.66 16.64C59.02 17.24 59.28 18.16 59.32 18.86C60.24 18.88 61.1 18.88 61.62 18.8C62.22 18.7 62.62 18.52 63 18C63.46 17.42 63.58 15.64 63.64 11.44C63.64 11.16 63.66 10.54 63.66 10.54H58.72V8.4H64.52C64.78 11.4 65.22 14.2 65.9 16.46C64.74 17.76 63.36 18.86 61.82 19.7C62.32 20.16 63.18 21.14 63.54 21.66C64.78 20.9 65.9 20 66.92 18.94C67.8 20.58 68.9 21.58 70.3 21.58C72.16 21.58 72.96 20.7 73.34 17C72.7 16.74 71.86 16.22 71.32 15.66C71.22 18.16 70.98 19.16 70.5 19.16C69.86 19.16 69.22 18.32 68.64 16.88C70.08 14.94 71.26 12.62 72.08 10.02L69.7 9.44ZM79.12 13.5C79.12 15.58 78.74 18.12 75.24 19.98C75.88 20.38 76.82 21.2 77.24 21.76C81.2 19.52 81.64 16.22 81.64 13.56V11.3H79.12V13.5ZM86.64 21.74H89.18V11.26H86.64V21.74ZM83.88 2.8C82.04 5.7 78.18 8.46 74.36 9.6C74.9 10.24 75.5 11.24 75.82 11.9C78.76 10.76 81.78 8.74 83.98 6.44C86.02 8.8 88.84 10.66 92.04 11.62C92.38 10.94 93.16 9.9 93.74 9.38C90.34 8.58 87.22 6.8 85.44 4.7C85.58 4.52 85.7 4.34 85.82 4.16L83.88 2.8ZM95.08 20.86C97.06 20.36 99.64 19.72 102.06 19.08L101.84 17.12C99.2 17.7 96.46 18.28 94.66 18.6L95.08 20.86ZM98.62 13.7C100.06 12.12 101.44 10.3 102.58 8.48L100.74 7.28C100.38 7.94 99.98 8.6 99.56 9.24L97.42 9.42C98.62 7.84 99.82 5.94 100.66 4.12L98.5 3.04C97.7 5.34 96.18 7.82 95.72 8.42C95.24 9.08 94.88 9.5 94.44 9.6C94.7 10.2 95.06 11.3 95.18 11.74C95.54 11.58 96.06 11.46 98.14 11.22C97.38 12.22 96.7 12.98 96.36 13.32C95.7 14.04 95.22 14.46 94.68 14.58C94.94 15.14 95.28 16.18 95.38 16.6C95.94 16.28 96.78 16.06 102.16 15.02C102.14 14.54 102.14 13.68 102.22 13.08L98.62 13.7ZM110.1 15.44V18.78H105.34V15.44H110.1ZM103.12 21.74H105.34V20.9H110.1V21.66H112.44V13.32H103.12V21.74ZM102.54 4V6.16H105.14C104.86 8.3 104.14 10.04 101.58 11.12C102.08 11.54 102.68 12.36 102.94 12.92C106.16 11.5 107.1 9.1 107.48 6.16H110.44C110.32 8.74 110.16 9.8 109.92 10.12C109.74 10.3 109.56 10.36 109.26 10.36C108.94 10.36 108.22 10.34 107.46 10.26C107.82 10.86 108.08 11.78 108.1 12.46C109.06 12.48 109.92 12.48 110.44 12.4C111.04 12.3 111.48 12.12 111.88 11.6C112.4 10.98 112.6 9.2 112.74 4.9C112.76 4.62 112.78 4 112.78 4H102.54Z" fill="#101010"/>
<g clip-path="url(#clip0_26_5897)">
<path fill-rule="evenodd" clip-rule="evenodd" d="M12.0001 2.65527C17.7134 2.65527 22.3449 7.28681 22.3449 13.0001C22.3449 18.7134 17.7134 23.3449 12.0001 23.3449H4.75872C3.04473 23.3449 1.65527 21.9555 1.65527 20.2415V13.0001C1.65527 7.28681 6.28681 2.65527 12.0001 2.65527Z" stroke="#101010" stroke-width="2.7"/>
<path d="M9.01562 10.5432H14.726" stroke="#101010" stroke-width="2.7" stroke-linecap="round"/>
<path d="M7.74805 16.2329H14.6998" stroke="#101010" stroke-width="2.7" stroke-linecap="round"/>
</g>
<defs>
<clipPath id="clip0_26_5897">
<rect width="24" height="24" fill="white" transform="translate(0 1)"/>
</clipPath>
</defs>
</svg>
