<svg width="24" height="24" viewBox="0 0 24 24" fill="none" xmlns="http://www.w3.org/2000/svg">
<path fill-rule="evenodd" clip-rule="evenodd" d="M4.21962 4.21962C2.23115 6.21231 1 8.96231 1 12C1 15.0377 2.23115 17.7877 4.21962 19.7804C6.21231 21.7688 8.96231 23 12 23C15.0377 23 17.7877 21.7688 19.7804 19.7804C21.7688 17.7877 23 15.0377 23 12C23 8.96231 21.7688 6.21231 19.7804 4.21962C17.7877 2.23115 15.0377 1 12 1C8.96231 1 6.21231 2.23115 4.21962 4.21962ZM11.45 7.05054C10.8425 7.05054 10.35 7.54302 10.35 8.15054V13.6126C10.35 14.2411 10.8595 14.7505 11.4879 14.7505H15.85C16.4575 14.7505 16.95 14.2581 16.95 13.6505V13.6505C16.95 13.043 16.4575 12.5505 15.85 12.5505H12.55V8.15054C12.55 7.54302 12.0575 7.05054 11.45 7.05054V7.05054Z" fill="#7948F7"/>
</svg>
