<svg width="24" height="24" viewBox="0 0 24 24" fill="none" xmlns="http://www.w3.org/2000/svg">
<g clip-path="url(#clip0_284_2907)">
<path d="M11.8129 4.68782C7.76285 4.83782 5.00035 8.00032 4.12535 9.56282L3.16942 2.07471C3.09531 1.49418 3.68502 1.05624 4.21934 1.29498L11.8129 4.68782Z" fill="url(#paint0_linear_284_2907)"/>
<path fill-rule="evenodd" clip-rule="evenodd" d="M4.00052 2.22953C4.1154 2.0572 4.34823 2.01064 4.52055 2.12552L9.58305 5.50052C9.75538 5.6154 9.80194 5.84823 9.68706 6.02055C9.57218 6.19288 9.33935 6.23944 9.16703 6.12456L4.10453 2.74956C3.9322 2.63468 3.88564 2.40185 4.00052 2.22953Z" fill="#69C0FF"/>
<circle cx="3.375" cy="12.375" r="1.5" fill="url(#paint1_radial_284_2907)"/>
<circle r="1.5" transform="matrix(-1 0 0 1 20.625 12.375)" fill="url(#paint2_radial_284_2907)"/>
<circle cx="12" cy="13.125" r="9" fill="url(#paint3_radial_284_2907)"/>
<circle cx="12" cy="13.125" r="9" fill="url(#paint4_radial_284_2907)"/>
<g filter="url(#filter0_f_284_2907)">
<path d="M11.4377 20.6322C16.0976 20.6322 19.8752 16.8546 19.8752 12.1947C19.8752 11.3159 19.7408 10.4685 19.4915 9.67188C19.9784 10.7242 20.2501 11.8965 20.2501 13.1322C20.2501 17.6885 16.5565 21.3822 12.0001 21.3822C9.3126 21.3822 6.92523 20.0971 5.41895 18.108C6.9498 19.666 9.0809 20.6322 11.4377 20.6322Z" fill="#C1092A" fill-opacity="0.8"/>
</g>
<path fill-rule="evenodd" clip-rule="evenodd" d="M20.7214 11.4293C21.4885 11.9609 21.8014 12.9886 21.3411 14.2543C20.9955 15.2047 20.4342 15.7876 19.7899 16.1187C19.1637 16.4404 18.5067 16.4996 18 16.4996C18 16.4996 18 16.4996 18 16.4996H12.9375C12.6268 16.4996 12.375 16.2477 12.375 15.9371C12.375 15.6264 12.6268 15.3746 12.9375 15.3746H18C18.4308 15.3746 18.8801 15.3213 19.2758 15.118C19.6533 14.924 20.0295 14.5694 20.2839 13.8698C20.615 12.9592 20.3273 12.5249 20.0806 12.354C19.771 12.1394 19.3644 12.1807 19.1478 12.3973C18.9521 12.593 18.9242 12.8603 19.0123 13.0745C19.1004 13.2884 19.2474 13.3515 19.3897 13.323C19.6943 13.2621 19.9907 13.4597 20.0516 13.7643C20.1125 14.0689 19.9149 14.3652 19.6103 14.4262C18.8151 14.5852 18.2121 14.0858 17.9721 13.5028C17.7321 12.9201 17.7979 12.1562 18.3522 11.6018C18.9969 10.9571 20.0173 10.9414 20.7214 11.4293Z" fill="#D424E3"/>
<path fill-rule="evenodd" clip-rule="evenodd" d="M18.8826 11.4924C18.9558 11.5656 18.9558 11.6844 18.8826 11.7576C18.5674 12.0728 18.5268 12.5057 18.6656 12.8427C18.8043 13.1796 19.1033 13.3881 19.4632 13.3162C19.5648 13.2959 19.6636 13.3617 19.6839 13.4632C19.7042 13.5648 19.6383 13.6636 19.5368 13.6839C18.9592 13.7994 18.5082 13.4454 18.3188 12.9855C18.1295 12.5256 18.1827 11.9272 18.6174 11.4924C18.6906 11.4192 18.8094 11.4192 18.8826 11.4924Z" fill="#F059FD"/>
<path fill-rule="evenodd" clip-rule="evenodd" d="M19.6152 15.1402C19.6673 15.2297 19.6369 15.3445 19.5474 15.3965C18.9985 15.7156 18.4013 15.7461 18.0019 15.75C18.0012 15.75 18.0006 15.75 18 15.75H12.9375C12.8339 15.75 12.75 15.6661 12.75 15.5625C12.75 15.459 12.8339 15.375 12.9375 15.375H17.9991C18.3886 15.3711 18.9003 15.339 19.3589 15.0723C19.4484 15.0203 19.5632 15.0506 19.6152 15.1402Z" fill="#F059FD"/>
<g filter="url(#filter1_ddii_284_2907)">
<path fill-rule="evenodd" clip-rule="evenodd" d="M12.7755 15.1978C13.0722 14.9147 13.26 14.559 13.3355 14.3371C13.4355 14.043 13.7551 13.8856 14.0492 13.9857C14.3433 14.0857 14.5006 14.4052 14.4006 14.6993C14.2756 15.0667 13.9986 15.5858 13.5522 16.0117C13.0959 16.447 12.4401 16.8031 11.5935 16.7555C11.2833 16.7381 11.046 16.4725 11.0635 16.1624C11.0809 15.8522 11.3464 15.6149 11.6566 15.6323C12.1233 15.6585 12.4888 15.4714 12.7755 15.1978Z" fill="#894819"/>
</g>
<g filter="url(#filter2_ddii_284_2907)">
<path fill-rule="evenodd" clip-rule="evenodd" d="M8.30341 7.70857C7.82381 7.78586 7.38055 8.06041 7.12965 8.2899C6.90042 8.49957 6.54462 8.48372 6.33495 8.25449C6.12527 8.02526 6.14112 7.66946 6.37035 7.45979C6.73821 7.12331 7.37495 6.71869 8.12441 6.5979C8.91088 6.47114 9.79771 6.66522 10.5443 7.49983C10.7514 7.73137 10.7316 8.08698 10.5 8.29409C10.2685 8.50121 9.91287 8.4814 9.70575 8.24986C9.2373 7.72614 8.74601 7.63723 8.30341 7.70857Z" fill="#894819"/>
</g>
<g filter="url(#filter3_ddii_284_2907)">
<path fill-rule="evenodd" clip-rule="evenodd" d="M15.4284 7.70857C14.9488 7.78586 14.5055 8.06041 14.2547 8.2899C14.0254 8.49957 13.6696 8.48372 13.4599 8.25449C13.2503 8.02526 13.2661 7.66946 13.4954 7.45979C13.8632 7.12331 14.4999 6.71869 15.2494 6.5979C16.0359 6.47114 16.9227 6.66522 17.6693 7.49983C17.8764 7.73137 17.8566 8.08698 17.625 8.29409C17.3935 8.50121 17.0379 8.4814 16.8308 8.24986C16.3623 7.72614 15.871 7.63723 15.4284 7.70857Z" fill="#894819"/>
</g>
<path d="M12.375 1.875C12.375 2.28921 12.0392 2.625 11.625 2.625C11.2108 2.625 10.875 2.28921 10.875 1.875C10.875 1.46079 11.2108 1.125 11.625 1.125C12.0392 1.125 12.375 1.46079 12.375 1.875Z" fill="#27BBFA"/>
<path d="M18.75 4.125C18.75 4.53921 18.4142 4.875 18 4.875C17.5858 4.875 17.25 4.53921 17.25 4.125C17.25 3.71079 17.5858 3.375 18 3.375C18.4142 3.375 18.75 3.71079 18.75 4.125Z" fill="#9027FA"/>
<path d="M10.125 11.25C10.125 11.6642 9.78921 12 9.375 12C8.96079 12 8.625 11.6642 8.625 11.25C8.625 10.8358 8.96079 10.5 9.375 10.5C9.78921 10.5 10.125 10.8358 10.125 11.25Z" fill="#27BBFA"/>
<path d="M2.625 8.25C2.625 8.66421 2.28921 9 1.875 9C1.46079 9 1.125 8.66421 1.125 8.25C1.125 7.83579 1.46079 7.5 1.875 7.5C2.28921 7.5 2.625 7.83579 2.625 8.25Z" fill="#FA27F1"/>
<path d="M6.75 16.125C6.75 16.5392 6.41421 16.875 6 16.875C5.58579 16.875 5.25 16.5392 5.25 16.125C5.25 15.7108 5.58579 15.375 6 15.375C6.41421 15.375 6.75 15.7108 6.75 16.125Z" fill="#9027FA"/>
<path d="M17.25 10.5C17.25 10.9142 16.9142 11.25 16.5 11.25C16.0858 11.25 15.75 10.9142 15.75 10.5C15.75 10.0858 16.0858 9.75 16.5 9.75C16.9142 9.75 17.25 10.0858 17.25 10.5Z" fill="#FA27F1"/>
<path d="M20.625 8.625C20.625 9.03921 20.2892 9.375 19.875 9.375C19.4608 9.375 19.125 9.03921 19.125 8.625C19.125 8.21079 19.4608 7.875 19.875 7.875C20.2892 7.875 20.625 8.21079 20.625 8.625Z" fill="#27BBFA"/>
</g>
<defs>
<filter id="filter0_f_284_2907" x="-90.5811" y="-86.3281" width="206.831" height="203.711" filterUnits="userSpaceOnUse" color-interpolation-filters="sRGB">
<feFlood flood-opacity="0" result="BackgroundImageFix"/>
<feBlend mode="normal" in="SourceGraphic" in2="BackgroundImageFix" result="shape"/>
<feGaussianBlur stdDeviation="48" result="effect1_foregroundBlur_284_2907"/>
</filter>
<filter id="filter1_ddii_284_2907" x="-20.9375" y="-2.04492" width="67.3682" height="66.8047" filterUnits="userSpaceOnUse" color-interpolation-filters="sRGB">
<feFlood flood-opacity="0" result="BackgroundImageFix"/>
<feColorMatrix in="SourceAlpha" type="matrix" values="0 0 0 0 0 0 0 0 0 0 0 0 0 0 0 0 0 0 127 0" result="hardAlpha"/>
<feOffset dy="16"/>
<feGaussianBlur stdDeviation="16"/>
<feColorMatrix type="matrix" values="0 0 0 0 0.282353 0 0 0 0 0.054902 0 0 0 0 0.301961 0 0 0 0.2 0"/>
<feBlend mode="normal" in2="BackgroundImageFix" result="effect1_dropShadow_284_2907"/>
<feColorMatrix in="SourceAlpha" type="matrix" values="0 0 0 0 0 0 0 0 0 0 0 0 0 0 0 0 0 0 127 0" result="hardAlpha"/>
<feOffset dy="4"/>
<feGaussianBlur stdDeviation="4"/>
<feComposite in2="hardAlpha" operator="out"/>
<feColorMatrix type="matrix" values="0 0 0 0 0.282353 0 0 0 0 0.054902 0 0 0 0 0.301961 0 0 0 0.2 0"/>
<feBlend mode="normal" in2="effect1_dropShadow_284_2907" result="effect2_dropShadow_284_2907"/>
<feBlend mode="normal" in="SourceGraphic" in2="effect2_dropShadow_284_2907" result="shape"/>
<feColorMatrix in="SourceAlpha" type="matrix" values="0 0 0 0 0 0 0 0 0 0 0 0 0 0 0 0 0 0 127 0" result="hardAlpha"/>
<feOffset dx="6" dy="6"/>
<feGaussianBlur stdDeviation="16"/>
<feComposite in2="hardAlpha" operator="arithmetic" k2="-1" k3="1"/>
<feColorMatrix type="matrix" values="0 0 0 0 0.76276 0 0 0 0 0.388636 0 0 0 0 0.122215 0 0 0 1 0"/>
<feBlend mode="normal" in2="shape" result="effect3_innerShadow_284_2907"/>
<feColorMatrix in="SourceAlpha" type="matrix" values="0 0 0 0 0 0 0 0 0 0 0 0 0 0 0 0 0 0 127 0" result="hardAlpha"/>
<feOffset dx="-6" dy="-6"/>
<feGaussianBlur stdDeviation="16"/>
<feComposite in2="hardAlpha" operator="arithmetic" k2="-1" k3="1"/>
<feColorMatrix type="matrix" values="0 0 0 0 0.354427 0 0 0 0 0.180009 0 0 0 0 0.0538352 0 0 0 1 0"/>
<feBlend mode="normal" in2="effect3_innerShadow_284_2907" result="effect4_innerShadow_284_2907"/>
</filter>
<filter id="filter2_ddii_284_2907" x="-25.8125" y="-9.4375" width="68.5" height="65.875" filterUnits="userSpaceOnUse" color-interpolation-filters="sRGB">
<feFlood flood-opacity="0" result="BackgroundImageFix"/>
<feColorMatrix in="SourceAlpha" type="matrix" values="0 0 0 0 0 0 0 0 0 0 0 0 0 0 0 0 0 0 127 0" result="hardAlpha"/>
<feOffset dy="16"/>
<feGaussianBlur stdDeviation="16"/>
<feColorMatrix type="matrix" values="0 0 0 0 0.282353 0 0 0 0 0.054902 0 0 0 0 0.301961 0 0 0 0.2 0"/>
<feBlend mode="normal" in2="BackgroundImageFix" result="effect1_dropShadow_284_2907"/>
<feColorMatrix in="SourceAlpha" type="matrix" values="0 0 0 0 0 0 0 0 0 0 0 0 0 0 0 0 0 0 127 0" result="hardAlpha"/>
<feOffset dy="4"/>
<feGaussianBlur stdDeviation="4"/>
<feComposite in2="hardAlpha" operator="out"/>
<feColorMatrix type="matrix" values="0 0 0 0 0.282353 0 0 0 0 0.054902 0 0 0 0 0.301961 0 0 0 0.2 0"/>
<feBlend mode="normal" in2="effect1_dropShadow_284_2907" result="effect2_dropShadow_284_2907"/>
<feBlend mode="normal" in="SourceGraphic" in2="effect2_dropShadow_284_2907" result="shape"/>
<feColorMatrix in="SourceAlpha" type="matrix" values="0 0 0 0 0 0 0 0 0 0 0 0 0 0 0 0 0 0 127 0" result="hardAlpha"/>
<feOffset dx="6" dy="6"/>
<feGaussianBlur stdDeviation="16"/>
<feComposite in2="hardAlpha" operator="arithmetic" k2="-1" k3="1"/>
<feColorMatrix type="matrix" values="0 0 0 0 0.76276 0 0 0 0 0.388636 0 0 0 0 0.122215 0 0 0 1 0"/>
<feBlend mode="normal" in2="shape" result="effect3_innerShadow_284_2907"/>
<feColorMatrix in="SourceAlpha" type="matrix" values="0 0 0 0 0 0 0 0 0 0 0 0 0 0 0 0 0 0 127 0" result="hardAlpha"/>
<feOffset dx="-6" dy="-6"/>
<feGaussianBlur stdDeviation="16"/>
<feComposite in2="hardAlpha" operator="arithmetic" k2="-1" k3="1"/>
<feColorMatrix type="matrix" values="0 0 0 0 0.354427 0 0 0 0 0.180009 0 0 0 0 0.0538352 0 0 0 1 0"/>
<feBlend mode="normal" in2="effect3_innerShadow_284_2907" result="effect4_innerShadow_284_2907"/>
</filter>
<filter id="filter3_ddii_284_2907" x="-18.6875" y="-9.4375" width="68.5" height="65.875" filterUnits="userSpaceOnUse" color-interpolation-filters="sRGB">
<feFlood flood-opacity="0" result="BackgroundImageFix"/>
<feColorMatrix in="SourceAlpha" type="matrix" values="0 0 0 0 0 0 0 0 0 0 0 0 0 0 0 0 0 0 127 0" result="hardAlpha"/>
<feOffset dy="16"/>
<feGaussianBlur stdDeviation="16"/>
<feColorMatrix type="matrix" values="0 0 0 0 0.282353 0 0 0 0 0.054902 0 0 0 0 0.301961 0 0 0 0.2 0"/>
<feBlend mode="normal" in2="BackgroundImageFix" result="effect1_dropShadow_284_2907"/>
<feColorMatrix in="SourceAlpha" type="matrix" values="0 0 0 0 0 0 0 0 0 0 0 0 0 0 0 0 0 0 127 0" result="hardAlpha"/>
<feOffset dy="4"/>
<feGaussianBlur stdDeviation="4"/>
<feComposite in2="hardAlpha" operator="out"/>
<feColorMatrix type="matrix" values="0 0 0 0 0.282353 0 0 0 0 0.054902 0 0 0 0 0.301961 0 0 0 0.2 0"/>
<feBlend mode="normal" in2="effect1_dropShadow_284_2907" result="effect2_dropShadow_284_2907"/>
<feBlend mode="normal" in="SourceGraphic" in2="effect2_dropShadow_284_2907" result="shape"/>
<feColorMatrix in="SourceAlpha" type="matrix" values="0 0 0 0 0 0 0 0 0 0 0 0 0 0 0 0 0 0 127 0" result="hardAlpha"/>
<feOffset dx="6" dy="6"/>
<feGaussianBlur stdDeviation="16"/>
<feComposite in2="hardAlpha" operator="arithmetic" k2="-1" k3="1"/>
<feColorMatrix type="matrix" values="0 0 0 0 0.76276 0 0 0 0 0.388636 0 0 0 0 0.122215 0 0 0 1 0"/>
<feBlend mode="normal" in2="shape" result="effect3_innerShadow_284_2907"/>
<feColorMatrix in="SourceAlpha" type="matrix" values="0 0 0 0 0 0 0 0 0 0 0 0 0 0 0 0 0 0 127 0" result="hardAlpha"/>
<feOffset dx="-6" dy="-6"/>
<feGaussianBlur stdDeviation="16"/>
<feComposite in2="hardAlpha" operator="arithmetic" k2="-1" k3="1"/>
<feColorMatrix type="matrix" values="0 0 0 0 0.354427 0 0 0 0 0.180009 0 0 0 0 0.0538352 0 0 0 1 0"/>
<feBlend mode="normal" in2="effect3_innerShadow_284_2907" result="effect4_innerShadow_284_2907"/>
</filter>
<linearGradient id="paint0_linear_284_2907" x1="7.31285" y1="0.562824" x2="3.18785" y2="9.37532" gradientUnits="userSpaceOnUse">
<stop stop-color="#188DE1"/>
<stop offset="0.258035" stop-color="#4DACF1"/>
<stop offset="0.482007" stop-color="#2192E3"/>
<stop offset="1" stop-color="#1073BA"/>
</linearGradient>
<radialGradient id="paint1_radial_284_2907" cx="0" cy="0" r="1" gradientUnits="userSpaceOnUse" gradientTransform="translate(2.25 11.8125) rotate(61.3895) scale(2.34937)">
<stop stop-color="#FFCE21"/>
<stop offset="1" stop-color="#E9A326"/>
</radialGradient>
<radialGradient id="paint2_radial_284_2907" cx="0" cy="0" r="1" gradientUnits="userSpaceOnUse" gradientTransform="translate(0.375 0.9375) rotate(61.3895) scale(2.34937)">
<stop stop-color="#FFCE21"/>
<stop offset="1" stop-color="#E9A326"/>
</radialGradient>
<radialGradient id="paint3_radial_284_2907" cx="0" cy="0" r="1" gradientUnits="userSpaceOnUse" gradientTransform="translate(8.8125 6.375) rotate(78.559) scale(16.0693)">
<stop stop-color="#FFF7D9"/>
<stop offset="0.122763" stop-color="#FFE690"/>
<stop offset="0.518601" stop-color="#FFCE22"/>
<stop offset="1" stop-color="#FFB422"/>
</radialGradient>
<radialGradient id="paint4_radial_284_2907" cx="0" cy="0" r="1" gradientUnits="userSpaceOnUse" gradientTransform="translate(8.8125 6.375) rotate(78.559) scale(16.0693)">
<stop offset="0.857147" stop-color="#EDFF22" stop-opacity="0"/>
<stop offset="1" stop-color="#FF24F6" stop-opacity="0.3"/>
</radialGradient>
<clipPath id="clip0_284_2907">
<rect width="24" height="24" fill="white"/>
</clipPath>
</defs>
</svg>
