<svg width="54" height="54" viewBox="0 0 54 54" fill="none" xmlns="http://www.w3.org/2000/svg">
<g filter="url(#filter0_b_9_1213)">
<circle cx="27" cy="27" r="27" fill="white" fill-opacity="0.9"/>
</g>
<path fill-rule="evenodd" clip-rule="evenodd" d="M38.1043 15.7928L38.2075 15.8961C40.5979 18.2865 40.5979 22.1972 38.2058 24.5876L35.6352 26.9595C35.5482 27.069 35.4447 27.1648 35.3282 27.2428L35.2903 27.2777L35.2858 27.27C35.0801 27.3968 34.838 27.4701 34.5786 27.4701C33.8334 27.4701 33.2293 26.866 33.2293 26.1208C33.2293 25.6762 33.4445 25.2819 33.7763 25.036L36.2153 22.5953C37.5133 21.2989 37.5133 19.1863 36.2153 17.8882L36.112 17.7866C34.8139 16.4886 32.703 16.4886 31.4082 17.7866L25.8676 23.324C24.5696 24.622 24.0767 26.5077 25.3747 27.8057L25.4764 27.9057C25.5199 27.9492 25.5676 27.9933 25.6172 28.0391C25.7983 28.2063 26.0049 28.3972 26.1276 28.6727C26.2029 28.8282 26.2451 29.0027 26.2451 29.187C26.2451 29.8399 25.7158 30.3693 25.0628 30.3693C24.8485 30.3693 24.6477 30.312 24.4744 30.2124L24.474 30.2127L24.4715 30.2107C24.3628 30.1477 24.265 30.0681 24.1817 29.9751C24.0667 29.877 23.954 29.7747 23.8455 29.6662L23.7439 29.5661C21.3534 27.1741 21.4851 23.7222 23.8755 21.3317L29.4128 15.7928C31.8033 13.4024 35.7138 13.4024 38.1043 15.7928ZM29.5955 23.4738C29.8142 23.6402 30.0265 23.8197 30.2256 24.0188L30.3273 24.1204C32.7144 26.5092 32.512 30.2799 30.1249 32.6702L24.5876 38.2091C22.1971 40.5979 18.2865 40.5979 15.8961 38.2091L15.7928 38.1059C13.4024 35.7171 13.4024 31.8049 15.7928 29.4128L18.3359 27.0332C18.4111 26.9416 18.4982 26.8604 18.5945 26.7912L18.6206 26.7668L18.6227 26.7711C18.8406 26.6227 19.1038 26.5359 19.3873 26.5359C20.1386 26.5359 20.7476 27.1449 20.7476 27.8962C20.7476 28.3281 20.546 28.7128 20.232 28.962L17.785 31.4082C16.4869 32.7031 16.4869 34.8149 17.785 36.1129L17.8891 36.217C19.1871 37.5134 21.2974 37.5134 22.5953 36.217L28.1343 30.6797C29.4323 29.3816 29.8198 27.1481 28.5218 25.8517L28.4185 25.7484C28.3102 25.64 28.1942 25.5441 28.0762 25.4467C27.9591 25.3754 27.8549 25.2853 27.7673 25.1808L27.7671 25.1807C27.5847 24.9631 27.4748 24.6828 27.4748 24.3767C27.4748 23.685 28.0355 23.1243 28.7272 23.1243C29.0642 23.1243 29.3699 23.2577 29.5951 23.4742L29.5955 23.4738Z" fill="#101010"/>
<defs>
<filter id="filter0_b_9_1213" x="-10" y="-10" width="74" height="74" filterUnits="userSpaceOnUse" color-interpolation-filters="sRGB">
<feFlood flood-opacity="0" result="BackgroundImageFix"/>
<feGaussianBlur in="BackgroundImageFix" stdDeviation="5"/>
<feComposite in2="SourceAlpha" operator="in" result="effect1_backgroundBlur_9_1213"/>
<feBlend mode="normal" in="SourceGraphic" in2="effect1_backgroundBlur_9_1213" result="shape"/>
</filter>
</defs>
</svg>
