<?xml version="1.0" encoding="UTF-8"?><svg version="1.1" width="335px" height="110px" viewBox="0 0 335.0 110.0" xmlns="http://www.w3.org/2000/svg" xmlns:xlink="http://www.w3.org/1999/xlink"><defs><clipPath id="i0"><path d="M335,0 L335,110 L0,110 L0,0 L335,0 Z"></path></clipPath><clipPath id="i1"><path d="M61,0 L61,70 L0,70 L0,0 L61,0 Z"></path></clipPath><clipPath id="i2"><path d="M0,0 L42.1938452,24.5961211 L33.528177,29.4921607 L8.54479577,14.991674 L8.50693766,35.1697714 L0,40.3433398 L0,0 Z"></path></clipPath><clipPath id="i3"><path d="M0,0 L42.1938452,24.5961211 L33.528177,29.4921607 L8.54479577,14.991674 L8.54479577,35.1914095 L0,40.3433398 L0,0 Z"></path></clipPath><clipPath id="i4"><path d="M8.73426031,0 L8.75287424,40.1752033 L0.119793932,45.2966557 L0,4.79872282 L8.73426031,0 Z"></path></clipPath><clipPath id="i5"><path d="M8.66566823,0 L5.37470576,8.02220456 L0,4.89603959 L8.66566823,0 Z"></path></clipPath><clipPath id="i6"><path d="M8.69835204,0 L5.41467657,7.96719229 L0,4.84102732 L8.69835204,0 Z"></path></clipPath><clipPath id="i7"><path d="M8.72965216,0 L5.39469116,7.9883877 L0,4.89683847 L8.72965216,0 Z"></path></clipPath><clipPath id="i8"><path d="M0,0 L34.4487306,20.1585909 L34.707175,20.6095587 L26.1446363,25.6346018 L0.136179524,10.4310155 L0,0 Z"></path></clipPath><clipPath id="i9"><path d="M0.157965394,0 L42.6161262,24.0959881 L33.886474,28.9928265 L8.81009523,14.6530737 L8.70395126,34.9455373 L0,40.1367292 L0.157965394,0 Z"></path></clipPath><clipPath id="i10"><path d="M8.79237679,0 L8.79237679,40.3433398 L0.0266016056,45.2110447 L0,4.76515563 L8.79237679,0 Z"></path></clipPath><clipPath id="i11"><path d="M0.198653331,0 L34.9805531,20.1997355 L34.6804444,30.2193707 L0,10.0142041 L0.198653331,0 Z"></path></clipPath></defs><g clip-path="url(#i0)"><polygon points="0,0 335,0 335,110 0,110 0,0" stroke="none" fill="#F5F5F5"></polygon></g><g transform="translate(137.0 20.0)"><g clip-path="url(#i1)"><g opacity="69.9999988%"><g transform="translate(9.401399091990218 99.53160093277143) rotate(-119.99999999999999)"><g transform=""><g transform=""><g transform="translate(38.63789519148672 11.363271549335881)"><g clip-path="url(#i2)"><polygon points="0,-9.09494702e-13 42.1938452,-9.09494702e-13 42.1938452,40.3433398 0,40.3433398 0,-9.09494702e-13" stroke="none" fill="#EDEDED"></polygon></g></g><g transform="translate(29.814740615225347 86.6521974084878) rotate(-119.99999999999999)"><g transform="translate(17.560808371952483 6.821210263296962e-13)"><g clip-path="url(#i3)"><polygon points="0,6.82121026e-13 42.1938452,6.82121026e-13 42.1938452,40.3433398 0,40.3433398 0,6.82121026e-13" stroke="none" fill="#E8E8E8"></polygon></g></g><g transform="translate(8.826548060649383 4.320099833421409e-12)"><g clip-path="url(#i4)"><polygon points="0,2.27373675e-13 8.75287424,2.27373675e-13 8.75287424,45.2966557 0,45.2966557 0,2.27373675e-13" stroke="none" fill="#DDDDDD"></polygon></g></g><g transform="translate(51.088985368087926 24.596121093978823)"><g clip-path="url(#i5)"><polygon points="1.8189894e-12,2.27373675e-13 8.66566823,2.27373675e-13 8.66566823,8.02220456 1.8189894e-12,8.02220456 1.8189894e-12,2.27373675e-13" stroke="none" fill="#DBDBDB"></polygon></g></g><g transform="translate(4.349176021807278 18.7644514164639) rotate(-119.99999999999999)"><g clip-path="url(#i6)"><polygon points="0,0 8.69835204,0 8.69835204,7.96719229 0,7.96719229 0,0" stroke="none" fill="#E3E3E3"></polygon></g></g><g transform="translate(22.713150384189937 62.138661557276436) rotate(120.00000000000004)"><g clip-path="url(#i7)"><polygon points="-4.54747351e-13,0 8.72965216,0 8.72965216,7.9883877 -4.54747351e-13,7.9883877 -4.54747351e-13,0" stroke="none" fill="#E1E1E1"></polygon></g></g></g><g transform="translate(64.90065966548983 56.85778575298374) rotate(120.00000000000004)"><g clip-path="url(#i8)"><polygon points="-9.09494702e-13,9.09494702e-13 34.707175,9.09494702e-13 34.707175,25.6346018 -9.09494702e-13,25.6346018 -9.09494702e-13,9.09494702e-13" stroke="none" fill="#DDDDDD"></polygon></g></g><g transform="translate(81.74346469984627 56.43751417361574) rotate(120.00000000000004)"><g clip-path="url(#i9)"><polygon points="-9.09494702e-13,9.09494702e-13 42.6161262,9.09494702e-13 42.6161262,40.1367292 -9.09494702e-13,40.1367292 -9.09494702e-13,9.09494702e-13" stroke="none" fill="#F2F2F2"></polygon></g></g></g></g><g transform="translate(29.84551840227233 11.363271549305864)"><g clip-path="url(#i10)"><polygon points="0,-9.09494702e-13 8.79237679,-9.09494702e-13 8.79237679,45.2110447 0,45.2110447 0,-9.09494702e-13" stroke="none" fill="#DDDDDD"></polygon></g></g><g transform="translate(46.98403762629094 26.35494554325487)"><g clip-path="url(#i11)"><polygon points="-4.54747351e-13,-9.09494702e-13 34.9805531,-9.09494702e-13 34.9805531,30.2193707 -4.54747351e-13,30.2193707 -4.54747351e-13,-9.09494702e-13" stroke="none" fill="#DDDDDD"></polygon></g></g></g></g></g></g></svg>