<?xml version="1.0" encoding="UTF-8"?>
<svg width="40px" height="40px" viewBox="0 0 40 40" version="1.1" xmlns="http://www.w3.org/2000/svg" xmlns:xlink="http://www.w3.org/1999/xlink">
    <title>取消</title>
    <g id="页面-1" stroke="none" stroke-width="1" fill="none" fill-rule="evenodd">
        <g id="设置备份-3" transform="translate(-640.000000, -919.000000)" fill-rule="nonzero">
            <g id="编组-4" transform="translate(40.000000, 879.000000)">
                <g id="取消" transform="translate(600.000000, 40.000000)">
                    <rect id="矩形" fill="#000000" opacity="0" x="0" y="0" width="40" height="40"></rect>
                    <path d="M20.0558621,39.8149255 C9.11040313,39.8149255 0.23598,30.9396229 0.23598,19.9942039 C0.23598,9.04794547 9.11040313,0.173522344 20.0558621,0.173522344 C31.0030399,0.173522344 39.8758242,9.04794547 39.8758242,19.9942039 C39.8758242,30.9396229 31.0030799,39.8149255 20.0558621,39.8149255 Z M29.1448198,14.2149623 C29.5174871,13.8423349 29.5174871,13.237545 29.1448198,12.865757 L27.1205123,10.8422889 C26.7480448,10.4689021 26.1448138,10.4689021 25.7721465,10.8422889 L20.0381541,16.5755618 L14.3040818,10.8422889 C13.9315744,10.4689021 13.3283834,10.4689021 12.955716,10.8422889 L10.9314085,12.865757 C10.5588211,13.237545 10.5588211,13.8423749 10.9314085,14.2149623 L16.6655208,19.9481951 L10.9314085,25.6821875 C10.5588211,26.0540154 10.5588211,26.6589252 10.9314085,27.0314327 L12.955716,29.0548608 C13.3283834,29.4274482 13.9315744,29.4274482 14.3040818,29.0548608 L20.0381541,23.3208684 L25.7721465,29.0548608 C26.1448138,29.4274482 26.7480448,29.4274482 27.1205123,29.0548608 L29.1448198,27.0314327 C29.5174871,26.6589252 29.5174871,26.0540154 29.1448198,25.6821875 L23.4108275,19.9482351 L29.1448198,14.2149623 Z" id="形状" fill="#DEDEDE"></path>
                </g>
            </g>
        </g>
    </g>
</svg>