<svg width="154" height="25" viewBox="0 0 154 25" fill="none" xmlns="http://www.w3.org/2000/svg">
<path d="M39.04 3.14C38.04 5.98 36.3 8.82 34.48 10.62C34.9 11.22 35.58 12.58 35.8 13.16C36.2 12.72 36.62 12.22 37.04 11.72V21.72H39.44V8.02C40.18 6.68 40.84 5.26 41.36 3.86L39.04 3.14ZM53.38 8.58V6.32H45.62C46 5.5 46.32 4.68 46.6 3.84L44.3 3.26C43.4 6.12 41.82 9 40.06 10.8C40.56 11.18 41.5 12.02 41.88 12.46C42.78 11.42 43.7 10.06 44.5 8.58H45.26V21.74H47.7V17.3H53.14V15.1H47.7V12.84H52.88V10.68H47.7V8.58H53.38ZM67.5 8.82H60.5V6.12H67.5V8.82ZM69.92 3.84H58.2V11.08H69.92V3.84ZM60.68 15.02V18.46H57.7V15.02H60.68ZM55.44 21.74H57.7V20.74H60.68V21.64H63.06V12.74H55.44V21.74ZM67.04 18.46V15.02H70.22V18.46H67.04ZM64.76 12.74V21.74H67.04V20.74H70.22V21.66H72.62V12.74H64.76ZM79.12 13.5C79.12 15.58 78.74 18.12 75.24 19.98C75.88 20.38 76.82 21.2 77.24 21.76C81.2 19.52 81.64 16.22 81.64 13.56V11.3H79.12V13.5ZM86.64 21.74H89.18V11.26H86.64V21.74ZM83.88 2.8C82.04 5.7 78.18 8.46 74.36 9.6C74.9 10.24 75.5 11.24 75.82 11.9C78.76 10.76 81.78 8.74 83.98 6.44C86.02 8.8 88.84 10.66 92.04 11.62C92.38 10.94 93.16 9.9 93.74 9.38C90.34 8.58 87.22 6.8 85.44 4.7C85.58 4.52 85.7 4.34 85.82 4.16L83.88 2.8ZM95.08 20.86C97.06 20.36 99.64 19.72 102.06 19.08L101.84 17.12C99.2 17.7 96.46 18.28 94.66 18.6L95.08 20.86ZM98.62 13.7C100.06 12.12 101.44 10.3 102.58 8.48L100.74 7.28C100.38 7.94 99.98 8.6 99.56 9.24L97.42 9.42C98.62 7.84 99.82 5.94 100.66 4.12L98.5 3.04C97.7 5.34 96.18 7.82 95.72 8.42C95.24 9.08 94.88 9.5 94.44 9.6C94.7 10.2 95.06 11.3 95.18 11.74C95.54 11.58 96.06 11.46 98.14 11.22C97.38 12.22 96.7 12.98 96.36 13.32C95.7 14.04 95.22 14.46 94.68 14.58C94.94 15.14 95.28 16.18 95.38 16.6C95.94 16.28 96.78 16.06 102.16 15.02C102.14 14.54 102.14 13.68 102.22 13.08L98.62 13.7ZM110.1 15.44V18.78H105.34V15.44H110.1ZM103.12 21.74H105.34V20.9H110.1V21.66H112.44V13.32H103.12V21.74ZM102.54 4V6.16H105.14C104.86 8.3 104.14 10.04 101.58 11.12C102.08 11.54 102.68 12.36 102.94 12.92C106.16 11.5 107.1 9.1 107.48 6.16H110.44C110.32 8.74 110.16 9.8 109.92 10.12C109.74 10.3 109.56 10.36 109.26 10.36C108.94 10.36 108.22 10.34 107.46 10.26C107.82 10.86 108.08 11.78 108.1 12.46C109.06 12.48 109.92 12.48 110.44 12.4C111.04 12.3 111.48 12.12 111.88 11.6C112.4 10.98 112.6 9.2 112.74 4.9C112.76 4.62 112.78 4 112.78 4H102.54Z" fill="#101010"/>
<g clip-path="url(#clip0_3357_1318)">
<path fill-rule="evenodd" clip-rule="evenodd" d="M12 2.15527C17.7133 2.15527 22.3448 6.78681 22.3448 12.5001C22.3448 18.2134 17.7133 22.8449 12 22.8449H4.7586C3.04461 22.8449 1.65515 21.4555 1.65515 19.7415V12.5001C1.65515 6.78681 6.28669 2.15527 12 2.15527Z" stroke="#101010" stroke-width="2.7"/>
<path d="M9.0155 10.043H14.7258" stroke="#101010" stroke-width="2.7" stroke-linecap="round"/>
<path d="M7.74823 15.7324H14.7" stroke="#101010" stroke-width="2.7" stroke-linecap="round"/>
</g>
<defs>
<clipPath id="clip0_3357_1318">
<rect width="24" height="24" fill="white" transform="translate(0 0.5)"/>
</clipPath>
</defs>
</svg>
