<svg width="54" height="54" viewBox="0 0 54 54" fill="none" xmlns="http://www.w3.org/2000/svg">
<g filter="url(#filter0_b_9_1220)">
<circle cx="27" cy="27" r="27" fill="white" fill-opacity="0.9"/>
</g>
<path fill-rule="evenodd" clip-rule="evenodd" d="M39.2385 16.1614C38.7509 15.6738 38.0896 15.3999 37.4 15.3999H16.6C15.9104 15.3999 15.2491 15.6738 14.7615 16.1614C14.2739 16.649 14 17.3103 14 17.9999V36.1999C14 36.8895 14.2739 37.5508 14.7615 38.0384C15.2491 38.526 15.9104 38.7999 16.6 38.7999H37.4C38.0896 38.7999 38.7509 38.526 39.2385 38.0384C39.7261 37.5508 40 36.8895 40 36.1999V17.9999C40 17.3103 39.7261 16.649 39.2385 16.1614ZM18.6778 36.1998L30.2777 28.626L30.4233 28.5467C30.874 28.3369 31.4048 28.4025 31.7909 28.7157L37.4004 32.9446V35.5498L37.39 35.6668C37.3335 35.9756 37.0643 36.1999 36.7504 36.1998H18.6778ZM36.75 17.9997H17.25C17.0777 17.9997 16.9123 18.0682 16.7904 18.1901C16.6685 18.312 16.6 18.4773 16.6 18.6497V34.4369L28.8889 26.4289C30.2212 25.5869 31.9293 25.6295 33.2179 26.5368L33.4259 26.6954L37.4 29.5983V18.6497C37.4001 18.3358 37.1759 18.0666 36.867 18.0101L36.75 17.9997ZM22.1252 25.7997C22.9381 25.7998 23.6892 25.3662 24.0957 24.6623C24.5021 23.9584 24.5021 23.0911 24.0957 22.3871C23.6892 21.6832 22.9381 21.2496 22.1252 21.2497C20.8689 21.2499 19.8505 22.2684 19.8505 23.5247C19.8505 24.7811 20.8689 25.7996 22.1252 25.7997Z" fill="#101010"/>
<defs>
<filter id="filter0_b_9_1220" x="-10" y="-10" width="74" height="74" filterUnits="userSpaceOnUse" color-interpolation-filters="sRGB">
<feFlood flood-opacity="0" result="BackgroundImageFix"/>
<feGaussianBlur in="BackgroundImageFix" stdDeviation="5"/>
<feComposite in2="SourceAlpha" operator="in" result="effect1_backgroundBlur_9_1220"/>
<feBlend mode="normal" in="SourceGraphic" in2="effect1_backgroundBlur_9_1220" result="shape"/>
</filter>
</defs>
</svg>
