<svg xmlns="http://www.w3.org/2000/svg" xmlns:xlink="http://www.w3.org/1999/xlink" width="254" height="276" viewBox="0 0 254 276" fill="none"><defs><linearGradient id="linear_0" x1="0.15913725139397608%" y1="44.817129438416366%" x2="76.54087735354055%" y2="70.37032224627013%" gradientUnits="objectBoundingBox"><stop offset="0.0005278716216216004" stop-color="#F0F0F0" stop-opacity="1" /><stop offset="1" stop-color="#F9F9F9" stop-opacity="1" /></linearGradient><filter id="filter_12" x="95.97746410325362" y="10.89319997529142" width="74.1780821917809" height="106.5365175280196" filterUnits="userSpaceOnUse" color-interpolation-filters="sRGB"></filter><linearGradient id="linear_1" x1="14.934032625273236%" y1="18.54141777584477%" x2="88.25072402410304%" y2="55.71187749463162%" gradientUnits="objectBoundingBox"><stop offset="0" stop-color="#F9F9F9" stop-opacity="1" /><stop offset="0.9994721283783784" stop-color="#F5F5F5" stop-opacity="1" /></linearGradient><filter id="filter_14" x="95.97746410325362" y="10.89319997529142" width="97.91203515716478" height="57.1850424966574" filterUnits="userSpaceOnUse" color-interpolation-filters="sRGB"></filter><linearGradient id="linear_2" x1="68.38293315673299%" y1="37.08744016229761%" x2="31.999196491879577%" y2="73.86486488795924%" gradientUnits="objectBoundingBox"><stop offset="0.0005278716216216004" stop-color="#F7F7F7" stop-opacity="1" /><stop offset="1" stop-color="#F9F9F9" stop-opacity="1" /></linearGradient><filter id="filter_16" x="22.5802038292818" y="10.89319997529142" width="74.17808219178083" height="106.5365175280196" filterUnits="userSpaceOnUse" color-interpolation-filters="sRGB"></filter><linearGradient id="linear_3" x1="85.06596737472675%" y1="18.54141777584477%" x2="6.287587735268474%" y2="54.502691040468335%" gradientUnits="objectBoundingBox"><stop offset="0" stop-color="#FFFFFF" stop-opacity="1" /><stop offset="0.9994721283783784" stop-color="#F9F9F9" stop-opacity="1" /></linearGradient><filter id="filter_18" x="0" y="10.89319997529143" width="96.75828602106237" height="57.18504249665738" filterUnits="userSpaceOnUse" color-interpolation-filters="sRGB"></filter><linearGradient id="linear_4" x1="50%" y1="0%" x2="51%" y2="123.4425690181021%" gradientUnits="objectBoundingBox"><stop offset="0" stop-color="#F9F9F9" stop-opacity="1" /><stop offset="0.9994721283783784" stop-color="#EEEEEE" stop-opacity="1" /></linearGradient><filter id="filter_20" x="22.189792870377" y="0" width="147.5753424657537" height="25.85077263547526" filterUnits="userSpaceOnUse" color-interpolation-filters="sRGB"></filter><rect id="path_0" x="0" y="0" width="137.7057713659401" height="138.84549882328184" /><rect id="path_1" x="0" y="0" width="137.7057713659401" height="138.84549882328184" /><rect id="path_2" x="0" y="0" width="30.000000000000004" height="29" /></defs><g opacity="1" transform="translate(0 0)  rotate(0 127 138)"><g opacity="1" transform="translate(0 42)  rotate(0 127 117)"><path id="矩形" fill-rule="evenodd" style="fill:#FFFFFF" transform="translate(0 0)  rotate(0 127 117)" opacity="1" d="M0,234L254,234L254,0L0,0L0,234Z " /><g opacity="1" transform="translate(31 18)  rotate(0 96.9447496302092 91.50000000000026)"><g opacity="1" transform="translate(0 65.57028249668946)  rotate(0 96.9447496302092 58.7148587516555)"><g opacity="1" transform="translate(0 0)  rotate(0 96.9447496302092 58.7148587516555)"><path id="路径 13" fill-rule="evenodd" fill="url(#linear_0)" transform="translate(95.97746410325362 10.89319997529142)  rotate(0 37.08904109589046 53.2682587640098)" opacity="1" d="M0,106.54L74.18,75.36L74.18,0L0.25,14.95L0,106.54Z " /><path id="路径 14" fill-rule="evenodd" fill="url(#linear_1)" transform="translate(95.97746410325362 10.89319997529142)  rotate(0 48.9560175785824 28.5925212483287)" opacity="1" d="M26.32,57.19L97.91,32.13L74.38,0L0,15.42L26.32,57.19Z " /><path id="路径 13" fill-rule="evenodd" fill="url(#linear_2)" transform="translate(22.5802038292818 10.89319997529142)  rotate(0 37.089041095890416 53.2682587640098)" opacity="1" d="M0,0L0,75.36L74.18,106.54L74.18,14.92L0,0Z " /><path id="路径 14" fill-rule="evenodd" fill="url(#linear_3)" transform="translate(0 10.89319997529143)  rotate(0 48.37914301053119 28.59252124832869)" opacity="1" d="M22.34,0L0,32.13L71.35,57.19L96.76,15.36L22.34,0Z " /><path id="路径 15" fill-rule="evenodd" fill="url(#linear_4)" transform="translate(22.189792870377 0)  rotate(0 73.78767123287685 12.92538631773763)" opacity="1" d="M147.58,10.76L73.94,0L0,10.76L73.94,25.85L147.58,10.76Z " /></g></g></g></g><path id="圆形 1" fill-rule="evenodd" style="fill:#F7F7F7" transform="translate(98 109)  rotate(0 12 12)" opacity="1" d="M12,0C5.37,0 0,5.37 0,12C0,18.63 5.37,24 12,24C18.63,24 24,18.63 24,12C24,5.37 18.63,0 12,0Z " /><path id="圆形 1" fill-rule="evenodd" style="fill:#F5F5F5" transform="translate(184 57)  rotate(0 9 9)" opacity="1" d="M9,0C4.03,0 0,4.03 0,9C0,13.97 4.03,18 9,18C13.97,18 18,13.97 18,9C18,4.03 13.97,0 9,0Z " /><path id="圆形 1" fill-rule="evenodd" style="fill:#FAFAFA" transform="translate(42 25)  rotate(0 6.5 6.5)" opacity="1" d="M6.5,0C2.91,0 0,2.91 0,6.5C0,10.09 2.91,13 6.5,13C10.09,13 13,10.09 13,6.5C13,2.91 10.09,0 6.5,0Z " /><path id="圆形 1" fill-rule="evenodd" style="fill:#F7F7F7" transform="translate(81 36)  rotate(0 12 12)" opacity="1" d="M12,0C5.37,0 0,5.37 0,12C0,18.63 5.37,24 12,24C18.63,24 24,18.63 24,12C24,5.37 18.63,0 12,0Z " /><path id="矩形 1" fill-rule="evenodd" style="fill:#F7F7F7" transform="translate(142.42 100.42)  rotate(45 15.5 15.5)" opacity="1" d="M5,31L26,31C28.76,31 31,28.76 31,26L31,5C31,2.24 28.76,0 26,0L5,0C2.24,0 0,2.24 0,5L0,26C0,28.76 2.24,31 5,31Z " /><g opacity="1" transform="translate(28.29422863405989 0)  rotate(0 68.85288568297005 69.42274941164092)"><mask id="bg-mask-0" fill="white"><use xlink:href="#path_0"></use></mask><g mask="url(#bg-mask-0)" ><g opacity="1" transform="translate(78.70577136594028 62)  rotate(0 16.5 15.5)"><g opacity="1" transform="translate(0 0)  rotate(0 16.5 15.5)"><path id="星形" fill-rule="evenodd" style="fill:#F5F5F5" transform="translate(0 0)  rotate(0 16.5 15.5)" opacity="1" d="M32.44,13.67C32.72,13.39 32.9,13.03 32.97,12.65C33.16,11.58 32.44,10.56 31.35,10.37L23.45,9C22.85,8.9 22.32,8.52 22.03,7.99L18.27,1.04C18.08,0.7 17.79,0.41 17.44,0.23C16.46,-0.28 15.25,0.08 14.73,1.04L10.97,7.99C10.68,8.52 10.15,8.9 9.55,9L1.65,10.37C1.26,10.44 0.9,10.62 0.61,10.89C-0.18,11.64 -0.21,12.89 0.56,13.67L6.13,19.33C6.56,19.77 6.76,20.37 6.67,20.97L5.56,28.76C5.5,29.15 5.57,29.54 5.74,29.9C6.22,30.87 7.42,31.28 8.41,30.8L15.62,27.35C16.18,27.09 16.82,27.09 17.38,27.35L24.59,30.8C24.94,30.97 25.34,31.03 25.74,30.98C26.83,30.83 27.6,29.84 27.44,28.76L26.33,20.97C26.24,20.37 26.44,19.77 26.87,19.33L32.44,13.67Z " /></g></g><g opacity="1" transform="translate(0 0)  rotate(0 68.85288568297005 69.42274941164092)"><mask id="bg-mask-1" fill="white"><use xlink:href="#path_1"></use></mask><g mask="url(#bg-mask-1)" ><g opacity="1" transform="translate(9.78108891324554 77.36954618136538)  rotate(-30 24.972431864335455 26.253520777580995)"><g opacity="1" transform="translate(7.972431864335455 5.753520777580995)  rotate(0 17 20.5)"><path id="三角形备份" fill-rule="evenodd" style="fill:#F7F7F7" transform="translate(-3.5 3.5)  rotate(-90 20.5 17)" opacity="1" d="M40.19,25.94L25.31,2.57C24.84,1.83 24.18,1.21 23.4,0.76C20.74,-0.75 17.29,0.06 15.68,2.57L0.81,25.94C0.28,26.77 0,27.72 0,28.68C0,31.62 2.52,34 5.62,34L35.38,34C36.4,34 37.4,33.74 38.28,33.24C40.94,31.72 41.79,28.46 40.19,25.94Z " /></g></g><g opacity="1" transform="translate(107.70577136594011 0)  rotate(0 15.000000000000002 14.5)"><mask id="bg-mask-2" fill="white"><use xlink:href="#path_2"></use></mask><g mask="url(#bg-mask-2)" ><g opacity="1" transform="translate(0 0)  rotate(0 15.000000000000002 14.5)"><g opacity="1" transform="translate(0 0)  rotate(0 15.000000000000002 14.5)"><path id="多边形" fill-rule="evenodd" style="fill:#FAFAFA" transform="translate(0 0)  rotate(0 15.000000000000002 14.5)" opacity="1" d="M1.96,8.35C0.29,9.56 -0.4,11.71 0.23,13.67L4.15,25.71C4.78,27.67 6.61,29 8.67,29L21.33,29C23.39,29 25.22,27.67 25.85,25.71L29.77,13.67C30.4,11.71 29.71,9.56 28.04,8.35L17.8,0.91C16.13,-0.3 13.87,-0.3 12.2,0.91L1.96,8.35Z " /></g></g></g></g></g></g></g></g></g></svg>
