<?xml version="1.0" encoding="UTF-8"?>
<svg width="140px" height="140px" viewBox="0 0 140 140" version="1.1" xmlns="http://www.w3.org/2000/svg" xmlns:xlink="http://www.w3.org/1999/xlink">
    <title>形状</title>
    <g id="页面-1" stroke="none" stroke-width="1" fill="none" fill-rule="evenodd">
        <g id="实名认证等待页失败" transform="translate(-305.000000, -305.000000)" fill="#F95151" fill-rule="nonzero">
            <path d="M375,305 C394.330515,305 411.830515,312.834742 424.497886,325.502114 C437.165258,338.169485 445,355.669485 445,375 C445,394.330515 437.165258,411.830515 424.497886,424.497886 C411.830515,437.165258 394.330515,445 375,445 C355.669485,445 338.169485,437.165258 325.502114,424.497886 C312.834742,411.830515 305,394.330515 305,375 C305,355.669485 312.834742,338.169485 325.502114,325.502114 C338.169485,312.834742 355.669485,305 375,305 Z M374.974201,319.000028 C359.518923,319.007672 345.529855,325.274218 335.402056,335.402017 C325.268041,345.536033 319.000036,359.536043 319.000036,374.999981 C319.000036,390.292162 325.129548,404.152677 335.237646,414.260776 C345.267209,424.290339 359.213822,430.624998 375.025792,430.999934 C390.48107,430.99229 404.470138,424.725743 414.597937,414.597945 C424.731952,404.463929 430.999957,390.463919 430.999957,374.999981 C430.999957,359.7078 424.870445,345.847284 414.762347,335.739186 C404.732784,325.709622 390.78617,319.374964 374.974201,319.000028 Z M404.668189,356.558391 L354.654642,406.571938 L344.75512,396.672416 L394.768667,346.658869 L404.668189,356.558391 Z M394.768667,406.571938 L344.75512,356.558391 L354.654642,346.658869 L404.668189,396.672416 L394.768667,406.571938 Z" id="形状"></path>
        </g>
    </g>
</svg>