<svg width="154" height="25" viewBox="0 0 154 25" fill="none" xmlns="http://www.w3.org/2000/svg">
<path d="M39.44 7.9H41.8V6.58H46.28V7.72H48.66V6.58H52.88V4.44H48.66V3.06H46.28V4.44H41.8V3.06H39.44V4.44H35.16V6.58H39.44V7.9ZM40.06 7.96C39.74 8.32 39.38 8.68 38.98 9.04C38.46 8.56 37.88 8.12 37.16 7.7L35.62 8.92C36.32 9.34 36.88 9.8 37.36 10.26C36.48 10.82 35.56 11.34 34.62 11.72C35.08 12.12 35.72 12.82 36.04 13.3C36.88 12.9 37.74 12.44 38.56 11.9C38.74 12.26 38.9 12.62 39 13C38.08 14.32 36.2 15.74 34.62 16.38C35.1 16.82 35.68 17.56 36 18.1C37.08 17.46 38.34 16.48 39.36 15.46V15.66C39.36 17.48 39.18 18.72 38.76 19.24C38.6 19.44 38.46 19.54 38.16 19.56C37.76 19.62 37.02 19.62 36.04 19.56C36.44 20.14 36.66 20.92 36.68 21.6C37.64 21.64 38.42 21.62 39.18 21.46C39.66 21.36 40.06 21.14 40.36 20.8C41.26 19.82 41.54 18 41.54 15.8C41.54 14.02 41.34 12.26 40.32 10.62C40.92 10.12 41.5 9.6 41.98 9.04L40.06 7.96ZM52.82 13.46V11.26H50.82L52.26 10.24C51.82 9.52 50.82 8.54 49.94 7.88L48.34 9C49.1 9.66 49.96 10.56 50.42 11.26H48.14V11.18V8.1H45.92V11.16V11.26H41.8V13.46H45.74C45.36 15.7 44.24 18.2 41.1 20.24C41.68 20.62 42.46 21.28 42.86 21.78C45.24 20.24 46.56 18.34 47.28 16.42C48.24 18.76 49.64 20.58 51.72 21.66C52.04 21.04 52.72 20.16 53.22 19.72C50.7 18.64 49.16 16.32 48.34 13.46H52.82ZM58.34 16.54V14.24H60.58V16.22L58.34 16.54ZM60.58 5.98V8.02H58.34V5.98H60.58ZM58.34 10.04H60.58V12.22H58.34V10.04ZM64.56 17.64L64.44 15.66L62.9 15.88V5.98H64.06V3.86H54.96V5.98H56.06V16.86C55.58 16.92 55.12 16.98 54.74 17.02L55.2 19.26C56.76 19.02 58.62 18.7 60.58 18.36V21.7H62.9V17.94L64.56 17.64ZM70.4 7.38C70.04 9.68 69.46 11.76 68.68 13.58C67.92 11.72 67.38 9.62 66.98 7.38H70.4ZM71.4 5.06L71 5.14H64.2V7.38H64.9C65.46 10.66 66.22 13.62 67.4 16.08C66.32 17.76 65.04 19.1 63.56 20C64.04 20.4 64.7 21.2 65.04 21.78C66.42 20.84 67.64 19.7 68.66 18.28C69.58 19.62 70.64 20.72 71.92 21.62C72.3 21.02 73.02 20.18 73.54 19.78C72.1 18.9 70.94 17.68 70 16.18C71.48 13.36 72.44 9.84 72.88 5.44L71.4 5.06ZM88.1 15.48V18.64H80.18V15.48H88.1ZM77.74 21.72H80.18V20.84H88.1V21.64H90.64V13.38H77.74V21.72ZM80.88 9.48C82.06 8.62 83.16 7.68 84.18 6.62C85.36 7.78 86.52 8.7 87.66 9.48H80.88ZM84.18 2.96C82.08 6.08 78.3 8.5 74.62 9.96C75.28 10.56 75.98 11.46 76.36 12.14C77.26 11.72 78.16 11.22 79.04 10.68V11.66H89.04V10.36C89.98 10.9 90.96 11.38 91.92 11.84C92.24 11.1 92.94 10.22 93.56 9.66C90.86 8.68 88.2 7.32 85.64 4.94C85.86 4.66 86.08 4.36 86.3 4.06L84.18 2.96ZM109.7 9.44C109.22 11.06 108.56 12.54 107.78 13.88C107.44 12.28 107.16 10.4 106.98 8.4H113.16V6.04H111.08L112.04 5.02C111.34 4.36 109.88 3.44 108.78 2.88L107.34 4.3C108.16 4.8 109.16 5.44 109.9 6.04H106.84C106.8 5.06 106.78 4.08 106.8 3.08H104.3C104.3 4.08 104.34 5.06 104.38 6.04H96.22V11.88C96.22 14.48 96.08 17.96 94.56 20.36C95.1 20.64 96.16 21.52 96.58 21.98C98.22 19.54 98.64 15.64 98.72 12.72H101.32C101.26 15.24 101.18 16.2 100.98 16.48C100.82 16.68 100.66 16.72 100.38 16.72C100.06 16.72 99.38 16.7 98.66 16.64C99.02 17.24 99.28 18.16 99.32 18.86C100.24 18.88 101.1 18.88 101.62 18.8C102.22 18.7 102.62 18.52 103 18C103.46 17.42 103.58 15.64 103.64 11.44C103.64 11.16 103.66 10.54 103.66 10.54H98.72V8.4H104.52C104.78 11.4 105.22 14.2 105.9 16.46C104.74 17.76 103.36 18.86 101.82 19.7C102.32 20.16 103.18 21.14 103.54 21.66C104.78 20.9 105.9 20 106.92 18.94C107.8 20.58 108.9 21.58 110.3 21.58C112.16 21.58 112.96 20.7 113.34 17C112.7 16.74 111.86 16.22 111.32 15.66C111.22 18.16 110.98 19.16 110.5 19.16C109.86 19.16 109.22 18.32 108.64 16.88C110.08 14.94 111.26 12.62 112.08 10.02L109.7 9.44ZM123.52 13.06C123.08 12.56 121.24 10.64 120.44 9.98V9.44H122.96V7.18H120.44V3.06H118.04V7.18H114.96V9.44H117.74C117.06 11.84 115.8 14.48 114.38 16.08C114.8 16.72 115.36 17.72 115.6 18.46C116.52 17.34 117.34 15.72 118.04 13.98V21.72H120.44V12.68C121.1 13.54 121.74 14.46 122.14 15.1L123.52 13.06ZM133.28 7.18H131.38V3.1H128.84V7.18H123.52V9.44H128.12C126.68 12.34 124.28 15.26 121.8 16.82C122.42 17.32 123.12 18.16 123.52 18.78C125.44 17.32 127.36 15.1 128.84 12.72V18.8C128.84 19.16 128.7 19.26 128.34 19.28C128 19.28 126.76 19.28 125.66 19.24C126 19.9 126.36 20.96 126.46 21.64C128.18 21.64 129.46 21.58 130.26 21.18C131.08 20.8 131.38 20.18 131.38 18.8V9.44H133.28V7.18ZM148.38 6.56C147.74 5.82 146.32 4.8 145.2 4.14L144.06 5.74C145.16 6.48 146.54 7.56 147.16 8.34L148.38 6.56ZM143.14 10.78C144.3 11.46 145.76 12.54 146.42 13.26L147.62 11.36C146.9 10.66 145.42 9.68 144.26 9.06L143.14 10.78ZM141.34 4.16C141.12 5.56 140.66 7.58 140.24 8.84L141.74 9.26C142.24 8.1 142.82 6.2 143.34 4.6L141.34 4.16ZM137.46 8.84C137.36 7.6 136.96 5.7 136.44 4.26L134.78 4.7C135.24 6.14 135.64 8.08 135.68 9.3L137.46 8.84ZM142.92 15.42C142.5 14.86 140.6 12.62 140.02 12.04V11.9H142.98V9.68H140.02V3.14H137.82V9.68H134.8V11.9H137.08C136.46 13.72 135.44 15.86 134.44 17.08C134.8 17.74 135.32 18.82 135.52 19.54C136.38 18.34 137.18 16.48 137.82 14.62V21.68H140.02V14.66C140.6 15.58 141.16 16.62 141.46 17.26L142.92 15.42ZM153.5 15.88L153.14 13.66L151.1 14.04V3.04H148.86V14.44L142.92 15.5L143.28 17.72L148.86 16.72V21.72H151.1V16.32L153.5 15.88Z" fill="#101010"/>
<path fill-rule="evenodd" clip-rule="evenodd" d="M2 22.2026C2 22.6473 2.36676 23 2.79464 23H22.2035C22.6314 23 22.9982 22.632 22.9982 22.2026V7.38124C22.9982 7.04387 22.8148 6.76785 22.5244 6.64517C22.2341 6.52249 21.8826 6.58383 21.6534 6.81385L21.577 6.89052H3.45175L3.37534 6.81385C3.14612 6.59916 2.79464 6.52249 2.50429 6.64517C2.19866 6.76785 2 7.05921 2 7.38124V22.2026ZM21.0872 21.0812H3.90941V8.83614H21.0872V21.0812Z" fill="#101010"/>
<path fill-rule="evenodd" clip-rule="evenodd" d="M5.61329 2.26923L2.1085 6.926C2.07226 6.97415 3.90998 8.07258 3.90998 8.07258L6.97143 3.90239L18.1981 3.88743L21.4081 8.07258C21.4081 8.07258 22.9078 6.97784 22.8628 6.91658L19.4556 2.28419C19.2991 2.1047 19.0857 2 18.8723 2H6.18235C5.95473 2 5.75556 2.08974 5.61329 2.26923ZM16.2184 16.9535C16.3038 16.9984 16.3892 17.0133 16.4887 17.0133C16.631 17.0133 16.7733 16.9685 16.944 16.8937C17.1574 16.7591 17.2712 16.5048 17.2712 16.2505V7.72485H15.3623V14.7879L12.8261 14.0568C12.6269 13.982 12.4278 13.982 12.257 14.0568L9.6355 14.8028V7.72485H7.72657V16.2505C7.72657 16.5197 7.85461 16.7591 8.05378 16.8937C8.25295 17.0432 8.52325 17.0582 8.75087 16.9685L12.5273 15.9084L16.2184 16.9535Z" fill="#101010"/>
<path fill-rule="evenodd" clip-rule="evenodd" d="M2 22.2026C2 22.6473 2.36676 23 2.79464 23H22.2035C22.6314 23 22.9982 22.632 22.9982 22.2026V7.38124C22.9982 7.04387 22.8148 6.76785 22.5244 6.64517C22.2341 6.52249 21.8826 6.58383 21.6534 6.81385L21.577 6.89052H3.45175L3.37534 6.81385C3.14612 6.59916 2.79464 6.52249 2.50429 6.64517C2.19866 6.76785 2 7.05921 2 7.38124V22.2026ZM21.0872 21.0812H3.90941V8.83614H21.0872V21.0812Z" stroke="black" stroke-width="0.6"/>
<path fill-rule="evenodd" clip-rule="evenodd" d="M5.61329 2.26923L2.1085 6.926C2.07226 6.97415 3.90998 8.07258 3.90998 8.07258L6.97143 3.90239L18.1981 3.88743L21.4081 8.07258C21.4081 8.07258 22.9078 6.97784 22.8628 6.91658L19.4556 2.28419C19.2991 2.1047 19.0857 2 18.8723 2H6.18235C5.95473 2 5.75556 2.08974 5.61329 2.26923ZM16.2184 16.9535C16.3038 16.9984 16.3892 17.0133 16.4887 17.0133C16.631 17.0133 16.7733 16.9685 16.944 16.8937C17.1574 16.7591 17.2712 16.5048 17.2712 16.2505V7.72485H15.3623V14.7879L12.8261 14.0568C12.6269 13.982 12.4278 13.982 12.257 14.0568L9.6355 14.8028V7.72485H7.72657V16.2505C7.72657 16.5197 7.85461 16.7591 8.05378 16.8937C8.25295 17.0432 8.52325 17.0582 8.75087 16.9685L12.5273 15.9084L16.2184 16.9535Z" stroke="black" stroke-width="0.6"/>
</svg>
