<svg xmlns="http://www.w3.org/2000/svg" xmlns:xlink="http://www.w3.org/1999/xlink" width="254" height="276" viewBox="0 0 254 276" fill="none"><defs><linearGradient id="linear_0" x1="0.15913725139397608%" y1="44.817129438416366%" x2="76.54087735354055%" y2="70.37032224627013%" gradientUnits="objectBoundingBox"><stop offset="0.0005278716216216004" stop-color="#F0F0F0" stop-opacity="1" /><stop offset="1" stop-color="#F9F9F9" stop-opacity="1" /></linearGradient><filter id="filter_10" x="95.97746410325362" y="10.89319997529142" width="74.1780821917809" height="106.5365175280196" filterUnits="userSpaceOnUse" color-interpolation-filters="sRGB"></filter><linearGradient id="linear_1" x1="14.934032625273236%" y1="18.54141777584477%" x2="88.25072402410304%" y2="55.71187749463162%" gradientUnits="objectBoundingBox"><stop offset="0" stop-color="#F9F9F9" stop-opacity="1" /><stop offset="0.9994721283783784" stop-color="#F5F5F5" stop-opacity="1" /></linearGradient><filter id="filter_12" x="95.97746410325362" y="10.89319997529142" width="97.91203515716478" height="57.1850424966574" filterUnits="userSpaceOnUse" color-interpolation-filters="sRGB"></filter><linearGradient id="linear_2" x1="68.38293315673299%" y1="37.08744016229761%" x2="31.999196491879577%" y2="73.86486488795924%" gradientUnits="objectBoundingBox"><stop offset="0.0005278716216216004" stop-color="#F7F7F7" stop-opacity="1" /><stop offset="1" stop-color="#F9F9F9" stop-opacity="1" /></linearGradient><filter id="filter_14" x="22.5802038292818" y="10.89319997529142" width="74.17808219178083" height="106.5365175280196" filterUnits="userSpaceOnUse" color-interpolation-filters="sRGB"></filter><linearGradient id="linear_3" x1="85.06596737472675%" y1="18.54141777584477%" x2="6.287587735268474%" y2="54.502691040468335%" gradientUnits="objectBoundingBox"><stop offset="0" stop-color="#FFFFFF" stop-opacity="1" /><stop offset="0.9994721283783784" stop-color="#F9F9F9" stop-opacity="1" /></linearGradient><filter id="filter_16" x="0" y="10.89319997529143" width="96.75828602106237" height="57.18504249665738" filterUnits="userSpaceOnUse" color-interpolation-filters="sRGB"></filter><linearGradient id="linear_4" x1="50%" y1="0%" x2="51%" y2="123.4425690181021%" gradientUnits="objectBoundingBox"><stop offset="0" stop-color="#F9F9F9" stop-opacity="1" /><stop offset="0.9994721283783784" stop-color="#EEEEEE" stop-opacity="1" /></linearGradient><filter id="filter_18" x="22.189792870377" y="0" width="147.5753424657537" height="25.85077263547526" filterUnits="userSpaceOnUse" color-interpolation-filters="sRGB"></filter></defs><g opacity="1" transform="translate(0 0)  rotate(0 127 138)"><path id="矩形" fill-rule="evenodd" style="fill:#FFFFFF" transform="translate(0 0)  rotate(0 127 138)" opacity="1" d="M0,276L254,276L254,0L0,0L0,276Z " /><g opacity="1" transform="translate(30 60)  rotate(0 96.9447496302092 91.50000000000026)"><g opacity="1" transform="translate(0 0)  rotate(0 96.9447496302092 91.50000000000026)"><g opacity="1" transform="translate(0 65.57028249668946)  rotate(0 96.9447496302092 58.7148587516555)"><path id="路径 13" fill-rule="evenodd" fill="url(#linear_0)" transform="translate(95.97746410325362 10.89319997529142)  rotate(0 37.08904109589046 53.2682587640098)" opacity="1" d="M0,106.54L74.18,75.36L74.18,0L0.25,14.95L0,106.54Z " /><path id="路径 14" fill-rule="evenodd" fill="url(#linear_1)" transform="translate(95.97746410325362 10.89319997529142)  rotate(0 48.9560175785824 28.5925212483287)" opacity="1" d="M26.32,57.19L97.91,32.13L74.38,0L0,15.42L26.32,57.19Z " /><path id="路径 13" fill-rule="evenodd" fill="url(#linear_2)" transform="translate(22.5802038292818 10.89319997529142)  rotate(0 37.089041095890416 53.2682587640098)" opacity="1" d="M0,0L0,75.36L74.18,106.54L74.18,14.92L0,0Z " /><path id="路径 14" fill-rule="evenodd" fill="url(#linear_3)" transform="translate(0 10.89319997529143)  rotate(0 48.37914301053119 28.59252124832869)" opacity="1" d="M22.34,0L0,32.13L71.35,57.19L96.76,15.36L22.34,0Z " /><path id="路径 15" fill-rule="evenodd" fill="url(#linear_4)" transform="translate(22.189792870377 0)  rotate(0 73.78767123287685 12.92538631773763)" opacity="1" d="M147.58,10.76L73.94,0L0,10.76L73.94,25.85L147.58,10.76Z " /></g><path  id="路径 20" style="stroke:#E6E6E6; stroke-width:2.461516828807944; stroke-opacity:1; stroke-dasharray:2.461516828807944 6.564044876821183" transform="translate(88.14255069743649 3.527622376264503)  rotate(-13 19.86586691711357 36.72367192145253)" d="M17.98,29.69C14.47,27.3 11.58,27.61 7.95,31.74C8.82,45.76 26.04,37.65 17.98,29.69Z M3.63,73.45C3.63,73.45 -4.02,49.66 4.44,36.53C5.7,34.56 6.86,32.98 7.95,31.74 M7.95,31.74C7.87,30.34 7.94,28.74 8.22,26.89C11.61,9.01 39.73,0 39.73,0 " /></g></g></g></svg>
