<svg xmlns="http://www.w3.org/2000/svg" xmlns:xlink="http://www.w3.org/1999/xlink" width="750" height="420" viewBox="0 0 750 420" fill="none"><defs><rect id="path_0" x="0" y="0" width="750" height="420" /><linearGradient id="linear_0" x1="50%" y1="100%" x2="51%" y2="0%" gradientUnits="objectBoundingBox"><stop offset="0" stop-color="#B17EFC" stop-opacity="0" /><stop offset="0.10071815499999999" stop-color="#AF7CFC" stop-opacity="0.04" /><stop offset="1" stop-color="#7948F7" stop-opacity="1" /></linearGradient><path id="path_1"
        transform="translate(0 0) rotate(0 375 210)"
        d="M0,420L750,420L750,0L0,0L0,420Z" /><path id="path_2"
        transform="translate(0 0) rotate(0 222.5 254)"
        d="M0,508L445,508L445,0L0,0L0,508Z" /><linearGradient id="linear_1" x1="100%" y1="60.818913900000005%" x2="-2.8421709430404007e-12%" y2="95.39180950000001%" gradientUnits="objectBoundingBox"><stop offset="0" stop-color="#E1D6FF" stop-opacity="1" /><stop offset="1" stop-color="#BEA4FF" stop-opacity="1" /></linearGradient><linearGradient id="linear_2" x1="93.3116438%" y1="61.520886399999995%" x2="-2.8421709430404007e-12%" y2="95.3958776%" gradientUnits="objectBoundingBox"><stop offset="0" stop-color="#CFBDFF" stop-opacity="1" /><stop offset="1" stop-color="#966CFF" stop-opacity="1" /></linearGradient><path id="path_3"
        transform="translate(0 0) rotate(0 384.5 439)"
        d="M0,878L769,878L769,0L0,0L0,878Z" /><linearGradient id="linear_3" x1="100%" y1="60.813163599999996%" x2="-2.8421709430404007e-12%" y2="95.36768340000002%" gradientUnits="objectBoundingBox"><stop offset="0" stop-color="#E1D6FF" stop-opacity="1" /><stop offset="1" stop-color="#BEA4FF" stop-opacity="1" /></linearGradient><linearGradient id="linear_4" x1="93.3116438%" y1="61.51550000000001%" x2="-2.8421709430404007e-12%" y2="95.37465340000001%" gradientUnits="objectBoundingBox"><stop offset="0" stop-color="#B99DFF" stop-opacity="1" /><stop offset="1" stop-color="#966CFF" stop-opacity="1" /></linearGradient></defs><g opacity="1" transform="translate(0 0)  rotate(0 375 210)"><mask id="bg-mask-0" fill="white"><use xlink:href="#path_0"></use></mask><g mask="url(#bg-mask-0)" ><g opacity="1" transform="translate(0 0)  rotate(0 375 210)"><g opacity="1" transform="translate(0 0)  rotate(0 375 210)"><g opacity="1" transform="translate(0 0)  rotate(0 375 210)"><path id="path-6kn66dn9ac-2" fill-rule="evenodd" fill="url(#linear_0)" transform="translate(0 0)  rotate(0 375 210)" opacity="1" d="M0,420L750,420L750,0L0,0L0,420Z " /><g opacity="1" transform="translate(0 0)  rotate(0 375 210)"><mask id="mask-1" fill="white"><use xlink:href="#path_1"></use></mask><g mask="url(#mask-1)"></g><g mask="url(#mask-1)"><g opacity="0.25" transform="translate(460 -298)  rotate(0 222.5 254)"><g opacity="1" transform="translate(0 0)  rotate(0 222.5 254)"><path id="path-6kn66dn9ac-4" fill-rule="evenodd" style="fill:#FFFFFF" transform="translate(0 0)  rotate(0 222.5 254)" opacity="0" d="M0,508L445,508L445,0L0,0L0,508Z " /><g opacity="1" transform="translate(0 0)  rotate(0 222.5 254)"><mask id="mask-2" fill="white"><use xlink:href="#path_2"></use></mask><g mask="url(#mask-2)"></g><g mask="url(#mask-2)"><g opacity="1" transform="translate(-153.64496659775114 0.013765975556111698)  rotate(0 314.1636041648226 298.47547104723674)"><g opacity="1" transform="translate(0 0)  rotate(0 314.1636041648226 298.47547104723674)"><path id="路径-32" fill-rule="evenodd" style="fill:#3C00AC" transform="translate(105.5456052946419 81.46104384944378)  rotate(-120.00000000000001 127.44964499999999 93.24483135000001)" opacity="1" d="M190.84,186.49L254.9,149.03L0,0L1.01,75.87L190.84,186.49Z " /><path id="路径-31" fill-rule="evenodd" fill="url(#linear_1)" transform="translate(50.06780363614823 84.90507275793736)  rotate(-120.00000000000001 153.98238475 146.7150911)" opacity="1" d="M62.14,255.81L62.38,109.05L244.73,214.56L307.96,178.96L0,0L0.06,293.43L62.14,255.81Z " /><path id="路径-32" fill-rule="evenodd" style="fill:#3C00AC" transform="translate(201.32004403076354 300.45943177444366)  rotate(-240 127.41770400000001 93.2039335)" opacity="1" d="M190.76,186.41L254.84,148.92L0,0L0.98,75.87L190.76,186.41Z " /><path id="路径-31" fill-rule="evenodd" fill="url(#linear_2)" transform="translate(238.461824597751 243.53162402444372)  rotate(-240 153.975485 146.71509100000003)" opacity="1" d="M62.37,255.95L62.4,109.03L244.7,214.45L307.95,178.83L0.06,0L0,293.43L62.37,255.95Z " /><path id="路径-2" fill-rule="evenodd" style="fill:#703CF4" transform="translate(437.79537990085976 55.63648284944371)  rotate(-240 31.911211999999978 164.73536435)" opacity="1" d="M0,34.92L0.81,329.47L63.82,292.21L63.75,0L0,34.92Z " /><path id="路径-5" fill-rule="evenodd" style="fill:#9872FA" transform="translate(246.55773091473833 436.383697841431)  rotate(-240 31.624402500000002 29.176620500000013)" opacity="1" d="M0,35.62L39.22,58.35L63.25,0L0,35.62Z " /><path id="路径-3" fill-rule="evenodd" style="fill:#7948F7" transform="translate(280.27920059775073 219.4688980244436)  rotate(-120.00000000000001 32.110679000000005 164.41043200000001)" opacity="1" d="M0,34.64L0.26,328.82L64.22,293.43L64.16,0L0,34.64Z " /><path id="路径-4" fill-rule="evenodd" style="fill:#8658FA" transform="translate(121.67280376114822 55.58602154143112)  rotate(-120.00000000000001 127.65021050000001 109.92460709999999)" opacity="1" d="M1.43,0L0,72.84L253.13,219.85L255.3,146.97L1.43,0Z " /></g></g></g></g></g></g></g><g mask="url(#mask-1)"><g opacity="0.25" transform="translate(-339 -592)  rotate(0 384.5 439)"><g opacity="1" transform="translate(0 0)  rotate(0 384.5 439)"><path id="path-6kn66dn9ac-8" fill-rule="evenodd" style="fill:#FFFFFF" transform="translate(0 0)  rotate(0 384.5 439)" opacity="0" d="M0,878L769,878L769,0L0,0L0,878Z " /><g opacity="1" transform="translate(0 0)  rotate(0 384.5 439)"><mask id="mask-3" fill="white"><use xlink:href="#path_3"></use></mask><g mask="url(#mask-3)"></g><g mask="url(#mask-3)"><g opacity="1" transform="translate(-266.03 -46.88)  rotate(0 515.5127139174683 494.424385320226)"><g opacity="1" transform="translate(0 0)  rotate(0 515.5127139174683 494.42438532022595)"><path id="路径-31" fill-rule="evenodd" fill="url(#linear_3)" transform="translate(86.50352910048088 103.75888606395432)  rotate(-120.00000000000001 266.2191915 253.58739350000002)" opacity="1" d="M107.49,442.17L107.87,188.51L423.13,370.92L532.44,309.4L0,0L0.19,507.17L107.49,442.17Z " /><path id="路径-31" fill-rule="evenodd" fill="url(#linear_4)" transform="translate(412.11418773445564 377.9328060639542)  rotate(-240 266.1987435 253.5873935)" opacity="1" d="M107.83,442.37L107.92,188.43L423.05,370.6L532.4,309.01L0.19,0L0,507.17L107.83,442.37Z " /><path id="路径-3" fill-rule="evenodd" style="fill:#C6AFFF" transform="translate(487.44671091746807 336.38846838094156)  rotate(-120.00000000000001 55.54527199999998 284.164159)" opacity="1" d="M0,59.86L0.52,568.33L111.09,507.17L110.9,0L0,59.86Z " /></g></g></g></g></g></g></g></g></g></g></g></g></g></svg>
