<svg xmlns="http://www.w3.org/2000/svg" xmlns:xlink="http://www.w3.org/1999/xlink" width="254" height="276" viewBox="0 0 254 276" fill="none"><defs><linearGradient id="linear_0" x1="49.998488258425716%" y1="98.24300413409165%" x2="50.998488258425716%" y2="0.10359859404032168%" gradientUnits="objectBoundingBox"><stop offset="0" stop-color="#F5F5F5" stop-opacity="1" /><stop offset="0.9994721283783784" stop-color="#FAFAFA" stop-opacity="1" /></linearGradient><filter id="filter_8" x="0" y="0" width="133.6820083682011" height="137" filterUnits="userSpaceOnUse" color-interpolation-filters="sRGB"></filter><linearGradient id="linear_1" x1="61.027434161971186%" y1="0%" x2="62.027434161971186%" y2="99.84808800016924%" gradientUnits="objectBoundingBox"><stop offset="0" stop-color="#EFEFEF" stop-opacity="1" /><stop offset="0.9994721283783784" stop-color="#FAFAFA" stop-opacity="1" /></linearGradient><filter id="filter_10" x="0" y="2.490100616682916" width="33.26359832635989" height="31.748782862706918" filterUnits="userSpaceOnUse" color-interpolation-filters="sRGB"></filter><linearGradient id="linear_2" x1="61.2399687617027%" y1="100%" x2="62.2399687617027%" y2="0.05278716216216006%" gradientUnits="objectBoundingBox"><stop offset="0" stop-color="#F4F4F4" stop-opacity="1" /><stop offset="0.9994721283783784" stop-color="#FFFFFF" stop-opacity="1" /></linearGradient><filter id="filter_12" x="50" y="111" width="100" height="26" filterUnits="userSpaceOnUse" color-interpolation-filters="sRGB"></filter><filter id="filter_14" x="61.82008368200832" y="31.959153738221" width="54.60251046025115" height="58.16146825581879" filterUnits="userSpaceOnUse" color-interpolation-filters="sRGB"></filter></defs><g opacity="1" transform="translate(0 0)  rotate(0 127 138)"><path id="矩形" fill-rule="evenodd" style="fill:#FFFFFF" transform="translate(0 0)  rotate(0 127 138)" opacity="1" d="M0,276L254,276L254,0L0,0L0,276Z " /><g opacity="1" transform="translate(1 24.010816311818303)  rotate(0 126.33940943400424 106.99459184409085)"><g opacity="1" transform="translate(51 76.9891836881817)  rotate(0 75 68.5)"><path id="路径" fill-rule="evenodd" fill="url(#linear_0)" transform="translate(0 0)  rotate(0 66.84100418410056 68.5)" opacity="1" d="M19.95,0C9.04,0 0.17,9.25 0,20.5C0.29,11.07 7.62,3.51 16.63,3.51C25.72,3.51 33.1,11.22 33.25,21.07L33.25,121.38C33.25,130.01 40.24,137 48.87,137L133.68,137L133.68,21.07C133.68,9.44 124.75,0 113.72,0L19.95,0Z " /><path id="椭圆形备份 20" fill-rule="evenodd" fill="url(#linear_1)" transform="translate(0 2.490100616682916)  rotate(0 16.631799163179945 15.87439143135346)" opacity="1" d="M33.26,31.75C33.26,31.75 33.26,20.86 33.26,16.61C33.26,7.44 25.82,0 16.63,0C7.45,0 0,7.44 0,16.61C0,25.79 0,31.75 0,31.75L33.26,31.75Z " /><path id="形状结合" fill-rule="evenodd" fill="url(#linear_2)" transform="translate(50 111)  rotate(0 50 13)" opacity="1" d="M0 25.9939L0 26L84.38 26C93.01 26 100 19.01 100 10.38L100 0L16 0L16 12.39C16 19.7719 8.87887 25.7759 0 25.9939Z " /><path id="形状结合" fill-rule="evenodd" style="fill:#ECECEC" transform="translate(61.82008368200832 31.959153738221)  rotate(0 27.301255230125577 29.0807341279094)" opacity="1" d="M4.46 8.92L50.14 8.92C51.32 8.92 52.46 8.45 53.29 7.61C54.13 6.78 54.6 5.64 54.6 4.46C54.6 3.28 54.13 2.14 53.29 1.31C52.46 0.47 51.32 0 50.14 0L4.46 0C3.28 0 2.14 0.47 1.31 1.31C0.47 2.14 0 3.28 0 4.46C0 5.64 0.47 6.78 1.31 7.61C2.14 8.45 3.28 8.92 4.46 8.92Z M4.46 33.9062L50.14 33.9062C51.32 33.9062 52.46 33.4362 53.29 32.5962C54.13 31.7662 54.6 30.6262 54.6 29.4462C54.6 28.2662 54.13 27.1262 53.29 26.2962C52.46 25.4562 51.32 24.9862 50.14 24.9862L4.46 24.9862C3.28 24.9862 2.14 25.4562 1.31 26.2962C0.47 27.1262 0 28.2662 0 29.4462C0 30.6262 0.47 31.7662 1.31 32.5962C2.14 33.4362 3.28 33.9062 4.46 33.9062Z M4.46 58.1643L50.14 58.1643C51.32 58.1643 52.46 57.6943 53.29 56.8543C54.13 56.0243 54.6 54.8843 54.6 53.7043C54.6 52.5243 54.13 51.3843 53.29 50.5543C52.46 49.7143 51.32 49.2443 50.14 49.2443L4.46 49.2443C3.28 49.2443 2.14 49.7143 1.31 50.5543C0.47 51.3843 0 52.5243 0 53.7043C0 54.8843 0.47 56.0243 1.31 56.8543C2.14 57.6943 3.28 58.1643 4.46 58.1643Z " /></g></g><path  id="路径 20" style="stroke:#E6E6E6; stroke-width:2.461516828807944; stroke-opacity:1; stroke-dasharray:2.461516828807944 6.564044876821183" transform="translate(124.13 35.28)  rotate(-13 19.86586691711357 36.72367192145253)" d="M17.98,29.69C14.47,27.3 11.58,27.61 7.95,31.74C8.82,45.76 26.04,37.65 17.98,29.69Z M3.63,73.45C3.63,73.45 -4.02,49.66 4.44,36.53C5.7,34.56 6.86,32.98 7.95,31.74 M7.95,31.74C7.87,30.34 7.94,28.74 8.22,26.89C11.61,9.01 39.73,0 39.73,0 " /></g></svg>
