<svg width="113" height="25" viewBox="0 0 113 25" fill="none" xmlns="http://www.w3.org/2000/svg">
<path d="M41.5 3.32C41.18 4.06 40.64 5.14 40.18 5.84L41.7 6.52C42.22 5.9 42.84 5 43.5 4.1L41.5 3.32ZM37.7 12.04H39.9V9.86C40.66 10.46 41.44 11.12 41.88 11.54L43.12 9.88C42.78 9.64 41.66 8.98 40.76 8.46H43.68V6.58H39.9V3.06H37.7V6.58H35.68L37.3 5.86C37.14 5.18 36.64 4.14 36.1 3.4L34.42 4.1C34.86 4.88 35.32 5.9 35.48 6.58H33.92V8.46H36.88C35.94 9.44 34.68 10.32 33.5 10.8C33.94 11.24 34.46 12.02 34.72 12.54C35.72 12 36.78 11.16 37.7 10.24V12.04ZM40.52 15.22C40.16 15.92 39.68 16.54 39.12 17.1C38.6 16.82 38.04 16.54 37.5 16.28C37.7 15.96 37.9 15.6 38.1 15.22H40.52ZM42.32 18.96C41.92 18.68 41.44 18.38 40.9 18.08C41.92 16.92 42.72 15.48 43.2 13.72L41.92 13.24L41.56 13.3H39.02C39.14 13.04 39.26 12.78 39.36 12.52L37.26 12.14C37.12 12.52 36.96 12.9 36.78 13.3H34.28V15.22H35.8C35.4 15.9 35.02 16.52 34.66 17.04C35.56 17.42 36.56 17.88 37.5 18.38C36.36 19.08 35.02 19.6 33.58 19.92C33.98 20.32 34.44 21.16 34.66 21.7C36.46 21.2 38.06 20.48 39.4 19.46C40 19.82 40.52 20.18 40.92 20.48L42.32 18.96ZM48.66 8.94C48.46 10.64 48.14 12.14 47.68 13.5C47.16 12.08 46.76 10.54 46.46 8.94H48.66ZM52.12 8.94V6.74H46.8C47.04 5.68 47.24 4.56 47.4 3.44L45.24 3.12C44.78 6.7 43.9 10.08 42.3 12.16C42.78 12.5 43.68 13.28 44 13.68C44.38 13.14 44.74 12.54 45.06 11.9C45.46 13.42 45.9 14.82 46.48 16.08C45.46 17.74 43.98 19 41.96 19.9C42.38 20.36 43 21.36 43.22 21.84C45.08 20.9 46.52 19.7 47.66 18.18C48.56 19.58 49.66 20.72 51.04 21.58C51.36 20.98 52.06 20.12 52.58 19.7C51.08 18.88 49.86 17.62 48.94 16.04C49.88 14.08 50.48 11.74 50.86 8.94H52.12ZM56.74 7.2H69.12V9.54H71.58V4.96H64.7C64.44 4.32 63.96 3.52 63.48 2.92L61.1 3.64C61.38 4.02 61.64 4.5 61.88 4.96H54.4V9.54H56.74V7.2ZM71.72 13.74H64.26V13.4C65.94 12.44 67.52 11.16 68.68 9.94L67.1 8.7L66.56 8.82H57.72V11.04H64.16C63.4 11.66 62.56 12.26 61.72 12.68V13.74H54.3V16H61.72V18.96C61.72 19.24 61.6 19.32 61.2 19.32C60.8 19.32 59.3 19.32 58.06 19.28C58.48 19.92 58.94 20.98 59.1 21.7C60.74 21.7 62.02 21.68 62.98 21.3C63.96 20.94 64.26 20.3 64.26 19.02V16H71.72V13.74ZM81.56 17.02H82.76V18.24H81.56V17.02ZM82.76 12.18V13.14H81.56V12.18H82.76ZM84.12 14.54V15.64H81.56V14.54H84.12ZM87.46 6.8V6.2H89.82L88.64 7.08C88.96 7.32 89.34 7.62 89.66 7.92H87.96C87.96 7.54 87.96 7.16 87.96 6.8H87.46ZM89.56 10.64C89.28 12.12 88.92 13.52 88.4 14.76C88.22 13.42 88.06 11.78 88 9.9H92.08V7.92H91.14L91.72 7.48C91.42 7.08 90.82 6.58 90.26 6.2H91.9V4.26H87.46V3.08H85.08V4.26H80.88V3.08H78.52V4.26H74.12V6.2H78.52V7.22H80.88V6.2H85.08V7.28H85.88V7.92H77.32V10.88H76.12V7.78H74.4V12.5H77.32V13.88V13.94H73.68V15.86H74.62V16C74.62 17 74.48 18.66 73.42 19.78C73.8 19.98 74.44 20.44 74.76 20.74C76.06 19.4 76.3 17.3 76.3 16.06V15.86H77.28C77.2 17.58 76.94 19.42 76.18 20.82C76.68 21 77.6 21.48 77.98 21.78C79.1 19.66 79.28 16.36 79.28 13.9V9.9H85.96C86.12 13 86.44 15.6 86.94 17.56C86.6 18.04 86.26 18.48 85.88 18.88V18.24H84.3V17.02H85.74V13.14H84.3V12.18H85.6V10.68H79.94V19.74H84.98C84.74 19.96 84.46 20.18 84.18 20.38C84.7 20.68 85.56 21.42 85.9 21.8C86.58 21.26 87.2 20.66 87.78 19.96C88.36 21.12 89.1 21.76 90 21.76C91.42 21.76 92.04 21.18 92.3 18.2C91.8 18.02 91.18 17.6 90.76 17.18C90.68 19.06 90.48 19.68 90.16 19.68C89.84 19.68 89.46 19.12 89.1 18.04C90.26 16.08 91.12 13.7 91.66 11L89.56 10.64ZM106.5 8.82H99.5V6.12H106.5V8.82ZM108.92 3.84H97.2V11.08H108.92V3.84ZM99.68 15.02V18.46H96.7V15.02H99.68ZM94.44 21.74H96.7V20.74H99.68V21.64H102.06V12.74H94.44V21.74ZM106.04 18.46V15.02H109.22V18.46H106.04ZM103.76 12.74V21.74H106.04V20.74H109.22V21.66H111.62V12.74H103.76Z" fill="#101010"/>
<g clip-path="url(#clip0_6_9927)">
<g clip-path="url(#clip1_6_9927)">
<path fill-rule="evenodd" clip-rule="evenodd" d="M16.0541 12.5212L15.0712 14.3371C14.9159 14.6239 14.5582 14.7302 14.2722 14.5744C14.1722 14.5199 14.0901 14.4374 14.0357 14.3371L13.0527 12.5212C12.999 12.4218 12.9179 12.3401 12.8192 12.2855L11.0129 11.2874C10.7279 11.1299 10.6241 10.7704 10.7811 10.4845C10.8349 10.3865 10.9153 10.3058 11.0129 10.2518L12.8192 9.25375C12.9179 9.19922 12.999 9.11743 13.0527 9.01809L14.0357 7.20222C14.191 6.91533 14.5487 6.80908 14.8346 6.9649C14.9347 7.01942 15.0168 7.10185 15.0712 7.20222L16.0541 9.01809C16.1079 9.11743 16.189 9.19922 16.2877 9.25375L18.0939 10.2518C18.379 10.4093 18.4828 10.7688 18.3258 11.0548C18.272 11.1528 18.1916 11.2335 18.0939 11.2874L16.2877 12.2855C16.189 12.3401 16.1079 12.4218 16.0541 12.5212Z" fill="#101010"/>
<path fill-rule="evenodd" clip-rule="evenodd" d="M11.6717 17.7233L11.1054 18.7696C10.9501 19.0565 10.5924 19.1628 10.3064 19.007C10.2064 18.9524 10.1242 18.87 10.0699 18.7696L9.50352 17.7233C9.44975 17.624 9.36871 17.5422 9.27002 17.4877L8.22544 16.9105C7.94042 16.753 7.83662 16.3935 7.99358 16.1075C8.04737 16.0095 8.12777 15.9289 8.22544 15.8749L9.27002 15.2977C9.36871 15.2432 9.44975 15.1614 9.50352 15.062L10.0699 14.0157C10.2252 13.7289 10.5829 13.6226 10.8688 13.7784C10.9689 13.8329 11.051 13.9154 11.1054 14.0157L11.6717 15.062C11.7255 15.1614 11.8066 15.2432 11.9053 15.2977L12.9498 15.8749C13.2348 16.0324 13.3387 16.3919 13.1817 16.6778C13.1279 16.7758 13.0475 16.8565 12.9498 16.9105L11.9053 17.4877C11.8066 17.5422 11.7255 17.624 11.6717 17.7233Z" fill="#101010"/>
<path fill-rule="evenodd" clip-rule="evenodd" d="M7.40896 13.2056L7.04348 13.8808C6.90914 14.1289 6.59973 14.2208 6.3524 14.086C6.26586 14.0389 6.1948 13.9676 6.1478 13.8808L5.78232 13.2056C5.72854 13.1063 5.6475 13.0245 5.54881 12.9699L4.88111 12.601C4.63206 12.4634 4.54135 12.1492 4.67851 11.8993C4.72551 11.8137 4.79577 11.7432 4.88111 11.6961L5.54881 11.3271C5.6475 11.2726 5.72854 11.1908 5.78232 11.0915L6.1478 10.4163C6.28214 10.1681 6.59154 10.0762 6.83888 10.211C6.92541 10.2582 6.99648 10.3295 7.04348 10.4163L7.40896 11.0915C7.46274 11.1908 7.54378 11.2726 7.64247 11.3271L8.31016 11.6961C8.55922 11.8337 8.64993 12.1478 8.51277 12.3977C8.46577 12.4833 8.39551 12.5538 8.31016 12.601L7.64247 12.9699C7.54378 13.0245 7.46274 13.1063 7.40896 13.2056Z" fill="#101010"/>
<path fill-rule="evenodd" clip-rule="evenodd" d="M11.4998 1.92383C12.1441 1.92383 12.7885 2.084 13.365 2.40435L19.7504 5.95225C20.3685 6.29568 20.8559 6.79352 21.1742 7.37577C21.4926 7.95802 21.642 8.62468 21.5841 9.30573L20.9394 16.8888C20.8383 18.0779 20.1185 19.1387 19.0239 19.712L13.2832 22.7184C12.1722 23.3002 10.8274 23.3002 9.71648 22.7184L3.97577 19.712C2.88111 19.1387 2.16134 18.0779 2.06025 16.8888L1.41556 9.30573C1.35766 8.62468 1.50703 7.95802 1.82541 7.37577C2.14378 6.79352 2.63115 6.29568 3.24924 5.95225L9.63464 2.40435C10.2112 2.084 10.8555 1.92383 11.4998 1.92383Z" stroke="#101010" stroke-width="2.7"/>
</g>
</g>
<defs>
<clipPath id="clip0_6_9927">
<rect width="23" height="25" fill="white"/>
</clipPath>
<clipPath id="clip1_6_9927">
<rect width="23" height="25" fill="white"/>
</clipPath>
</defs>
</svg>
