<svg width="21" height="21" viewBox="0 0 21 21" fill="none" xmlns="http://www.w3.org/2000/svg">
<path d="M10.862 20.0684C5.33942 20.0304 0.893047 15.5223 0.931099 9.99976C0.969151 4.47723 5.47723 0.0308493 10.9998 0.0689012C16.5223 0.106953 20.9687 4.61503 20.9306 10.1376C20.8926 15.6601 16.3845 20.1065 10.862 20.0684Z" fill="#D6CED6"/>
<path fill-rule="evenodd" clip-rule="evenodd" d="M7.21513 8.12643C7.23386 5.40772 9.29204 4.37253 11.4384 4.38732C13.4416 4.40112 14.767 5.88892 14.7568 7.36751C14.7509 8.22605 14.5555 8.89249 14.0736 9.60465C13.7372 10.0852 13.3729 10.4203 13.0405 10.7259C12.4207 11.2957 11.9123 11.7633 11.9046 12.8809L9.99669 12.8678L10.0006 12.2954C9.9605 11.1981 10.4434 10.3428 11.4496 9.68197C11.5061 9.63955 11.5605 9.59891 11.6128 9.55981C12.4931 8.90187 12.7921 8.67838 12.7989 7.68792C12.8068 6.5432 11.7118 6.24946 10.9486 6.2442C9.6608 6.23533 9.08154 7.23301 9.07529 8.13925L7.21513 8.12643ZM11.8341 16.1612L9.97397 16.1484L9.98678 14.2883L11.847 14.3011L11.8341 16.1612Z" fill="white"/>
</svg>
