<svg width="154" height="25" viewBox="0 0 154 25" fill="none" xmlns="http://www.w3.org/2000/svg">
<path d="M51.58 5.88C51.04 5.14 49.96 3.98 49.18 3.14L47.34 4.24C48.12 5.14 49.16 6.38 49.66 7.12L51.58 5.88ZM48.24 13.5C47.62 14.6 46.82 15.58 45.84 16.42C44.84 15.58 44 14.6 43.32 13.5H48.24ZM49.96 11.1L49.52 11.2H43.68C43.88 10.66 44.06 10.14 44.24 9.56H52.84V7.28H44.82C45.08 6.04 45.3 4.72 45.48 3.36L42.82 2.92C42.64 4.46 42.38 5.92 42.06 7.28H39.3C39.84 6.26 40.36 5.04 40.7 3.9L38.18 3.5C37.8 5.06 37.06 6.62 36.8 7.04C36.54 7.48 36.24 7.76 35.94 7.86C36.2 8.44 36.58 9.52 36.72 10.02C36.9 9.72 37.74 9.56 38.82 9.56H41.42C40.12 13.42 37.98 16.4 34.44 18.3C35.02 18.72 35.86 19.7 36.18 20.22C38.6 18.86 40.42 17.14 41.78 15.04C42.4 16.06 43.1 16.96 43.94 17.76C42.4 18.64 40.66 19.28 38.78 19.68C39.22 20.22 39.76 21.14 40.02 21.78C42.18 21.22 44.16 20.44 45.88 19.34C47.58 20.46 49.6 21.28 52.04 21.78C52.36 21.12 53 20.14 53.52 19.62C51.34 19.26 49.48 18.64 47.9 17.8C49.54 16.3 50.82 14.36 51.62 11.88L49.96 11.1ZM72.66 4.2H62.94V6.46H72.66V4.2ZM59.12 3.06C58.18 4.46 56.26 6.26 54.6 7.32C55 7.8 55.62 8.74 55.94 9.26C57.84 7.94 59.98 5.88 61.42 3.98L59.12 3.06ZM59.88 7.38C58.56 9.66 56.36 11.98 54.3 13.4C54.8 13.88 55.6 14.94 55.94 15.42C56.5 14.98 57.06 14.46 57.64 13.9V21.78H60.02V11.26C60.82 10.28 61.54 9.26 62.14 8.24L59.88 7.38ZM73.16 9.7H62.1V11.96H67.98V18.96C67.98 19.26 67.86 19.34 67.5 19.34C67.12 19.34 65.78 19.34 64.66 19.3C64.98 19.96 65.3 20.96 65.4 21.66C67.12 21.66 68.4 21.62 69.26 21.26C70.16 20.92 70.42 20.28 70.42 19V11.96H73.16V9.7ZM78.72 3.14C77.8 5.96 76.2 8.8 74.52 10.62C74.9 11.18 75.54 12.42 75.74 12.96C76.22 12.4 76.72 11.74 77.2 11.06V21.82H79.36V7.32C79.94 6.16 80.42 4.96 80.84 3.78L78.72 3.14ZM89.86 16.94V19.2H83.4V16.94H89.86ZM81.38 21.72H83.4V21.1H89.86V21.66H91.96V15.04H81.38V21.72ZM81.68 13.92H91.7V12.06H81.68V13.92ZM91.7 9.16H81.68V11.02H91.7V9.16ZM87.1 6.16L88.24 5.66C87.96 4.94 87.34 3.84 86.78 3.02L84.76 3.78C85.2 4.5 85.7 5.42 86 6.16H80.28V8.1H93.14V6.16H87.1ZM99.96 11.88H107.86V12.82H99.96V11.88ZM99.96 9.26H107.86V10.18H99.96V9.26ZM99.96 6.64H107.86V7.56H99.96V6.64ZM102.28 15.24C103.2 16.18 104.26 17.52 104.66 18.4L106.62 17.26C106.2 16.48 105.36 15.44 104.52 14.62H110.28V4.82H104.8C105.06 4.34 105.38 3.82 105.66 3.22L102.78 2.86C102.68 3.44 102.46 4.16 102.26 4.82H97.66V14.62H103.4L102.28 15.24ZM96.86 20.78C97.5 19.6 98.18 17.78 98.68 16.4L96.56 15.52C96.12 16.9 95.36 18.58 94.66 19.72L96.86 20.78ZM102.82 19.24C101.68 19.24 101.48 19.18 101.48 18.58V15.84H99.06V18.6C99.06 20.74 99.8 21.4 102.6 21.4H106.4C108.64 21.4 109.34 20.72 109.62 17.92C108.98 17.8 107.96 17.46 107.46 17.08C107.34 18.98 107.18 19.24 106.22 19.24H102.82ZM108.82 16.02C109.7 17.4 110.58 19.22 110.86 20.38L113.14 19.42C112.8 18.2 111.84 16.46 110.92 15.14L108.82 16.02Z" fill="#101010"/>
<path fill-rule="evenodd" clip-rule="evenodd" d="M2 20.0141V6.31719C2 4.48516 3.43209 3 5.19865 3H17.8013C19.5679 3 21 4.48516 21 6.31719V20.0141C21 21.663 19.7111 22.9996 18.1212 22.9996C17.5832 22.9996 17.0559 22.8432 16.5992 22.5482L13.1912 20.3467C12.1559 19.678 10.8441 19.678 9.80883 20.3467L6.40084 22.5482C5.05133 23.42 3.27588 22.9921 2.43527 21.5926C2.15079 21.119 2 20.5721 2 20.0141Z" stroke="#101010" stroke-width="2.7"/>
<path fill-rule="evenodd" clip-rule="evenodd" d="M11.2207 14.9125L9.36797 15.9279C9.07259 16.0898 8.7081 15.9697 8.55386 15.6597C8.4926 15.5366 8.47161 15.3957 8.49413 15.2588L8.84598 13.1202C8.87993 12.9138 8.81447 12.7031 8.67111 12.5575L7.18367 11.0459C6.94427 10.8026 6.93809 10.4017 7.16988 10.1504C7.2628 10.0497 7.38495 9.9842 7.51717 9.96417L9.57996 9.65168C9.77614 9.62196 9.9459 9.493 10.0341 9.30669L10.9596 7.35162C11.1079 7.03841 11.47 6.91066 11.7684 7.06629C11.8863 7.12774 11.9817 7.22794 12.0403 7.35162L12.9658 9.30669C13.054 9.493 13.2238 9.62196 13.42 9.65168L15.4828 9.96417C15.8126 10.0141 16.0413 10.3352 15.9937 10.6814C15.9747 10.8202 15.9122 10.9484 15.8163 11.0459L14.3288 12.5575C14.1855 12.7031 14.12 12.9138 14.1539 13.1202L14.5058 15.2588C14.5625 15.6035 14.3423 15.9311 14.0139 15.9906C13.8835 16.0143 13.7493 15.9922 13.632 15.9279L11.7792 14.9125C11.6043 14.8166 11.3957 14.8166 11.2207 14.9125Z" fill="#101010"/>
</svg>
