<svg width="42" height="42" viewBox="0 0 42 42" fill="none" xmlns="http://www.w3.org/2000/svg">
<g filter="url(#filter0_b_4541_2625)">
<circle cx="21" cy="21" r="21" fill="black" fill-opacity="0.1"/>
</g>
<rect opacity="0.01" x="6" y="5" width="30" height="30" fill="black"/>
<path fill-rule="evenodd" clip-rule="evenodd" d="M14.1085 30.0222H27.8929C29.4171 30.0222 30.6538 28.7885 30.6574 27.2642V18.628C30.6574 17.8238 30.3069 17.0592 29.6918 16.5314L22.7989 10.6399C21.7923 9.78277 20.1971 9.78542 19.2024 10.6399L12.3095 16.5301C11.6958 17.0553 11.3426 17.8185 11.3426 18.6267V27.2629C11.3462 28.7879 12.5835 30.0222 14.1085 30.0222ZM20.0622 11.6432C20.3228 11.4209 20.6561 11.2979 21.0014 11.2979C21.3453 11.2979 21.6779 11.4208 21.9392 11.6445L28.8294 17.5334C29.1508 17.8085 29.3347 18.208 29.3347 18.626V27.2622C29.3318 28.0569 28.6863 28.6994 27.8916 28.6987H14.1072C13.3122 28.6987 12.6641 28.0545 12.6641 27.2622V18.626C12.6641 18.2059 12.8483 17.8071 13.168 17.5347L20.0622 11.6432Z" fill="white"/>
<path d="M27.8929 30.0222V29.6722V30.0222ZM14.1085 30.0222V29.6722H14.1085L14.1085 30.0222ZM30.6574 27.2642L31.0074 27.2651V27.2642H30.6574ZM29.6918 16.5314L29.9197 16.2658L29.9192 16.2654L29.6918 16.5314ZM22.7989 10.6399L23.0263 10.3739L23.0258 10.3734L22.7989 10.6399ZM19.2024 10.6399L19.4298 10.906L19.4304 10.9054L19.2024 10.6399ZM12.3095 16.5301L12.0821 16.264L12.082 16.2642L12.3095 16.5301ZM11.3426 27.2629H10.9926L10.9926 27.2638L11.3426 27.2629ZM21.0014 11.2979V11.6479H21.0014L21.0014 11.2979ZM20.0622 11.6432L19.8351 11.3768L19.8348 11.3771L20.0622 11.6432ZM21.9392 11.6445L21.7116 11.9103L21.7118 11.9105L21.9392 11.6445ZM28.8294 17.5334L29.057 17.2675L29.0568 17.2673L28.8294 17.5334ZM29.3347 27.2622L29.6847 27.2635V27.2622H29.3347ZM27.8916 28.6987L27.8919 28.3487H27.8916V28.6987ZM12.6641 18.626L12.3141 18.6259V18.626H12.6641ZM13.168 17.5347L13.395 17.8011L13.3954 17.8008L13.168 17.5347ZM27.8929 29.6722H14.1085V30.3722H27.8929V29.6722ZM30.3074 27.2634C30.3042 28.5947 29.2241 29.6722 27.8929 29.6722V30.3722C29.6101 30.3722 31.0033 28.9823 31.0074 27.2651L30.3074 27.2634ZM30.3074 18.628V27.2642H31.0074V18.628H30.3074ZM29.4639 16.7971C30.0016 17.2585 30.3074 17.9261 30.3074 18.628H31.0074C31.0074 17.7215 30.6122 16.86 29.9197 16.2658L29.4639 16.7971ZM22.5715 10.906L29.4644 16.7975L29.9192 16.2654L23.0263 10.3739L22.5715 10.906ZM19.4304 10.9054C20.2936 10.1639 21.6959 10.1603 22.572 10.9064L23.0258 10.3734C21.8888 9.40522 20.1005 9.40696 18.9743 10.3744L19.4304 10.9054ZM12.5369 16.7962L19.4298 10.906L18.975 10.3738L12.0821 16.264L12.5369 16.7962ZM11.6926 18.6267C11.6926 17.9212 12.0007 17.255 12.5371 16.7961L12.082 16.2642C11.3909 16.8555 10.9926 17.7157 10.9926 18.6267H11.6926ZM11.6926 27.2629V18.6267H10.9926V27.2629H11.6926ZM14.1085 29.6722C12.7765 29.6722 11.6958 28.5941 11.6926 27.2621L10.9926 27.2638C10.9967 28.9817 12.3905 30.3722 14.1085 30.3722L14.1085 29.6722ZM21.0014 10.9479C20.5731 10.9479 20.1592 11.1005 19.8351 11.3768L20.2893 11.9095C20.4864 11.7414 20.7392 11.6479 21.0014 11.6479V10.9479ZM22.1668 11.3786C21.8421 11.1006 21.4288 10.9479 21.0013 10.9479L21.0014 11.6479C21.2619 11.6479 21.5137 11.741 21.7116 11.9103L22.1668 11.3786ZM29.0568 17.2673L22.1666 11.3784L21.7118 11.9105L28.602 17.7994L29.0568 17.2673ZM29.6847 18.626C29.6847 18.1051 29.4556 17.6087 29.057 17.2675L28.6018 17.7993C28.8461 18.0083 28.9847 18.3109 28.9847 18.626H29.6847ZM29.6847 27.2622V18.626H28.9847V27.2622H29.6847ZM27.8913 29.0487C28.8789 29.0496 29.6811 28.2511 29.6847 27.2635L28.9847 27.2609C28.9825 27.8627 28.4937 28.3493 27.8919 28.3487L27.8913 29.0487ZM14.1072 29.0487H27.8916V28.3487H14.1072V29.0487ZM12.3141 27.2622C12.3141 28.2495 13.1206 29.0487 14.1072 29.0487V28.3487C13.5038 28.3487 13.0141 27.8596 13.0141 27.2622H12.3141ZM12.3141 18.626V27.2622H13.0141V18.626H12.3141ZM12.9411 17.2683C12.5433 17.6071 12.3141 18.1034 12.3141 18.6259L13.0141 18.626C13.0141 18.3085 13.1533 18.007 13.395 17.8011L12.9411 17.2683ZM19.8348 11.3771L12.9407 17.2686L13.3954 17.8008L20.2896 11.9092L19.8348 11.3771Z" fill="white"/>
<path d="M24.3479 21.9243H17.6521C17.2868 21.9243 16.9907 21.6282 16.9907 21.2629C16.9907 20.8977 17.2868 20.6016 17.6521 20.6016H24.3492C24.5855 20.6018 24.8037 20.7281 24.9216 20.9328C25.0396 21.1376 25.0393 21.3897 24.921 21.5942C24.8026 21.7987 24.5842 21.9246 24.3479 21.9243Z" fill="white" stroke="white" stroke-width="0.7"/>
<path d="M17 28.3571L17 21.6614C17 21.2961 17.2961 21 17.6614 21C18.0266 21 18.3228 21.2961 18.3228 21.6614L18.3228 28.3585C18.3225 28.5948 18.1962 28.813 17.9915 28.9309C17.7867 29.0488 17.5346 29.0486 17.3301 28.9302C17.1256 28.8119 16.9998 28.5934 17 28.3571Z" fill="white" stroke="white" stroke-width="0.7"/>
<path d="M23.6772 28.3571L23.6772 21.6614C23.6772 21.2961 23.9734 21 24.3386 21C24.7039 21 25 21.2961 25 21.6614L25 28.3585C24.9998 28.5948 24.8735 28.813 24.6687 28.9309C24.464 29.0488 24.2119 29.0486 24.0074 28.9302C23.8029 28.8119 23.677 28.5934 23.6772 28.3571Z" fill="white" stroke="white" stroke-width="0.7"/>
<defs>
<filter id="filter0_b_4541_2625" x="-20" y="-20" width="82" height="82" filterUnits="userSpaceOnUse" color-interpolation-filters="sRGB">
<feFlood flood-opacity="0" result="BackgroundImageFix"/>
<feGaussianBlur in="BackgroundImageFix" stdDeviation="10"/>
<feComposite in2="SourceAlpha" operator="in" result="effect1_backgroundBlur_4541_2625"/>
<feBlend mode="normal" in="SourceGraphic" in2="effect1_backgroundBlur_4541_2625" result="shape"/>
</filter>
</defs>
</svg>
