<?xml version="1.0" encoding="UTF-8"?>
<svg width="265px" height="68px" viewBox="0 0 265 68" version="1.1" xmlns="http://www.w3.org/2000/svg" xmlns:xlink="http://www.w3.org/1999/xlink">
    <title>编组 2备份</title>
    <defs>
        <rect id="path-1" x="0" y="0" width="265" height="68"></rect>
        <linearGradient x1="100%" y1="60.8174952%" x2="-2.84217094e-12%" y2="95.3858572%" id="linearGradient-3">
            <stop stop-color="#E1D6FF" offset="0%"></stop>
            <stop stop-color="#BEA4FF" offset="100%"></stop>
        </linearGradient>
        <linearGradient x1="93.3116438%" y1="61.5195576%" x2="-2.84217094e-12%" y2="95.3906414%" id="linearGradient-4">
            <stop stop-color="#B99DFF" offset="0%"></stop>
            <stop stop-color="#966CFF" offset="100%"></stop>
        </linearGradient>
        <linearGradient x1="93.3116438%" y1="61.3155851%" x2="-2.84217094e-12%" y2="94.5869263%" id="linearGradient-5">
            <stop stop-color="#F3EFFF" offset="0%"></stop>
            <stop stop-color="#DDD0FF" offset="100%"></stop>
        </linearGradient>
    </defs>
    <g id="页面-1" stroke="none" stroke-width="1" fill="none" fill-rule="evenodd">
        <g id="个人中心-默认状态&amp;我的藏品空页面" transform="translate(-40.000000, -1520.000000)">
            <g id="编组-2" transform="translate(0.000000, 1484.000000)">
                <g id="编组-2备份" transform="translate(40.000000, 36.000000)">
                    <mask id="mask-2" fill="white">
                        <use xlink:href="#path-1"></use>
                    </mask>
                    <g id="蒙版"></g>
                    <g mask="url(#mask-2)">
                        <g transform="translate(-20.524957, 0.000000)">
                            <g id="编组-19">
                                <polygon id="路径-32" fill="#3C00AC" transform="translate(31.055980, 23.298311) rotate(-120.000000) translate(-31.055980, -23.298311) " points="14.1961582 20.9809065 14.0610875 10.8648273 48.0508728 30.7375825 39.5093221 35.7317939"></polygon>
                                <polygon id="路径-31" fill="url(#linearGradient-3)" transform="translate(27.196177, 30.888073) rotate(-120.000000) translate(-27.196177, -30.888073) " points="6.67312067 50.4506492 14.9501579 45.4353863 14.9820634 25.866586 39.29753 39.9353528 47.7290996 35.1892776 6.66325357 11.3254967"></polygon>
                                <polygon id="路径-32" fill="#3C00AC" transform="translate(43.821642, 52.495233) rotate(-240.000000) translate(-43.821642, -52.495233) " points="26.9617269 50.1841769 26.8317586 40.0681646 60.8115247 59.9237833 52.2674539 64.9223023"></polygon>
                                <polygon id="路径-31" fill="url(#linearGradient-4)" transform="translate(52.314717, 52.038858) rotate(-240.000000) translate(-52.314717, -52.038858) " points="31.7828758 71.6014346 40.099279 66.602973 40.1042195 47.0131786 64.4125931 61.0696863 72.8465576 56.319359 31.7927429 32.4762821"></polygon>
                                <polygon id="路径-2" fill="#703CF4" transform="translate(62.617805, 29.387525) rotate(-240.000000) translate(-62.617805, -29.387525) " points="66.8640057 7.42201753 58.3633164 12.0779834 58.4699858 51.3530316 66.8722934 46.3841059"></polygon>
                                <polygon id="路径-5" fill="#9872FA" transform="translate(37.081090, 62.082496) rotate(-240.000000) translate(-37.081090, -62.082496) " points="41.2980718 58.1921069 38.0935962 65.9728844 32.8641073 62.9424342"></polygon>
                                <polygon id="路径-5备份-2" fill="#D9CBFF" transform="translate(74.460092, 27.800586) rotate(-360.000000) translate(-74.460092, -27.800586) " points="78.7951205 23.7422863 75.3754758 31.8588851 70.1250627 28.825792"></polygon>
                                <polygon id="路径-5备份" fill="#C1A8FF" transform="translate(26.136280, 12.658596) rotate(-480.000000) translate(-26.136280, -12.658596) " points="30.3520651 8.76295946 27.2149691 16.5542327 21.9204955 13.5090346"></polygon>
                                <polygon id="路径-31" fill="url(#linearGradient-5)" transform="translate(58.127846, 19.769455) rotate(-360.000000) translate(-58.127846, -19.769455) " points="37.4605712 39.285957 45.9002551 34.2489386 45.9765874 14.9709108 70.1250627 28.825792 78.7951205 23.7422863 37.5611091 0.252953412"></polygon>
                                <polygon id="路径-3" fill="#7948F7" transform="translate(41.642099, 51.190573) rotate(-120.000000) translate(-41.642099, -51.190573) " points="45.9146177 29.2687109 37.359713 33.8878231 37.3954918 73.1124348 45.9244848 68.3938634"></polygon>
                                <polygon id="路径-4" fill="#8658FA" transform="translate(33.233122, 22.072001) rotate(-120.000000) translate(-33.233122, -22.072001) " points="50.2545697 27.012658 49.9649774 36.7296717 16.2116736 17.1261015 16.4025386 7.41433011"></polygon>
                            </g>
                            <g id="编组-2备份-3" transform="translate(99.890611, 13.582576)" fill="#000000">
                                <path d="M13.0106513,0 L13.0105422,6.98255034 L20.3269683,6.98276702 L20.3269683,12.6284084 L15.9445334,12.6286475 C16.5067342,13.2821098 17.0847193,13.8682609 17.6784888,14.3871008 C18.1919472,14.8357643 18.7671119,15.1871869 19.3799097,15.5324762 L20.3243221,16.0571986 L20.3291426,21.4942955 L20.3291426,21.4942955 C17.9244612,20.7905793 15.885375,19.7075672 14.2118838,18.2452591 C13.7917323,17.8781278 13.3912512,17.4404382 13.0104404,16.9321903 L13.0106513,21.692974 L7.39241548,21.692974 L7.39262637,16.9321903 C7.01181554,17.4404382 6.61133439,17.8781278 6.19118289,18.2452591 C4.51769178,19.7075672 2.47860554,20.7905793 0.0739241548,21.4942955 L0.0784915023,17.0321086 L0.0787446627,16.0571986 L1.023157,15.5324762 C1.6359548,15.1871869 2.21111955,14.8357643 2.72457797,14.3871008 C3.31834744,13.8682609 3.89633255,13.2821098 4.4585333,12.6286475 L0.0739241548,12.6284084 L0.0739241548,6.98276702 L7.39217728,6.98255034 L7.39241548,0 L13.0106513,0 Z M20.3291426,0 L20.3291426,4.93993624 L15.0066034,4.93993624 L15.0066034,0 L20.3291426,0 Z M5.32253915,3.97903932e-13 L5.32253915,4.92136505 L0,4.92136505 L0,3.97903932e-13 L5.32253915,3.97903932e-13 Z M166.107576,3.97903932e-13 L166.107565,2.89707383 L170.764798,2.89710547 L170.764798,8.54274688 L166.107565,8.54244295 L166.107565,13.668 L170.838722,13.668395 L170.838722,19.3140364 L155.758194,19.3140364 L155.758194,13.668395 L160.4892,13.668 L160.4892,8.54244295 L155.68427,8.54274688 L155.68427,2.89710547 L160.4892,2.89707383 L160.48934,3.97903932e-13 L166.107576,3.97903932e-13 Z M184.327617,0.148569511 L184.327617,5.79421093 L175.126323,5.79421093 L175.126323,0.148569511 L184.327617,0.148569511 Z M185.79554,10.8455743 L185.79554,16.4912157 L183.483081,16.4911409 L183.483353,32.4248767 C183.483353,37.0814371 179.710765,40.8566155 175.056916,40.8566155 L174.000284,40.8566155 L174.000284,35.2109741 L175.08977,35.2085385 L175.08977,35.2085385 C176.588753,35.2048958 177.808488,34.0155758 177.86316,32.5290582 L177.865073,32.4248767 L177.864716,16.4911409 L173.795688,16.4912157 L173.795688,10.8455743 L185.79554,10.8455743 Z M166.107576,21.6911486 L166.107565,24.4393826 L170.764798,24.4396846 L170.764798,30.085326 L166.107565,30.0852081 L166.107565,35.005396 L170.764798,34.9138351 L170.764798,40.5594765 L155.68427,40.8566155 L155.68427,35.2109741 L160.4892,35.1162953 L160.4892,30.0852081 L155.68427,30.085326 L155.68427,24.4396846 L160.4892,24.4393826 L160.48934,21.6911486 L166.107576,21.6911486 Z M30.620699,0 L29.7659998,5.01867808 L40.7322093,5.01881767 L40.7322093,10.6644591 L39.363021,10.6651104 L39.3333155,11.3067987 C39.3280767,11.4125401 39.3226952,11.5176812 39.3171728,11.6222266 L39.2823615,12.2423876 L39.2823615,12.2423876 L39.2442543,12.848472 L39.2442543,12.848472 L39.2029374,13.4406998 L39.2029374,13.4406998 L39.1584972,14.019291 L39.1584972,14.019291 L39.1110199,14.5844655 L39.1110199,14.5844655 L39.0605919,15.1364433 L39.0605919,15.1364433 L39.0072994,15.6754444 L39.0072994,15.6754444 L38.9512289,16.2016887 C38.9416571,16.2883453 38.9319731,16.3744795 38.9221788,16.4600959 L38.8621029,16.9676175 C38.8518743,17.0511811 38.841539,17.134236 38.8310987,17.216787 L38.7672116,17.7060808 L38.7672116,17.7060808 L38.7008917,18.1834977 C38.6896404,18.2620897 38.6782914,18.340196 38.6668464,18.4178211 L38.597039,18.8778352 L38.597039,18.8778352 L38.5250145,19.3265222 L38.5250145,19.3265222 L38.4508592,19.7641022 L38.4508592,19.7641022 L38.3746594,20.1907952 L38.3746594,20.1907952 L38.2965015,20.6068211 C38.2833168,20.6752821 38.2700541,20.7433077 38.2567151,20.8109027 L38.1757818,21.2113404 L38.1757818,21.2113404 L38.093106,21.601661 L38.093106,21.601661 L38.0087741,21.9820843 L38.0087741,21.9820843 L37.9228724,22.3528304 L37.9228724,22.3528304 L37.8354873,22.7141193 L37.8354873,22.7141193 L37.746705,23.0661709 L37.746705,23.0661709 L37.6566119,23.4092051 L37.6566119,23.4092051 L37.5652942,23.743442 L37.5652942,23.743442 L37.4728382,24.0691014 L37.4728382,24.0691014 L37.3793304,24.3864035 L37.3793304,24.3864035 L37.2848569,24.695568 L37.2848569,24.695568 L37.1895041,24.9968151 L37.1895041,24.9968151 L37.0933584,25.2903646 L37.0933584,25.2903646 L36.9965059,25.5764366 L36.9965059,25.5764366 L36.850091,25.9920053 L36.850091,25.9920053 L36.7025715,26.3919868 L36.7025715,26.3919868 L36.6037553,26.6503482 L36.6037553,26.6503482 L36.405384,27.1481577 L36.405384,27.1481577 L36.2562986,27.5058319 L36.2562986,27.5058319 L36.1072738,27.8508884 L36.1072738,27.8508884 L35.9091718,28.2926194 L35.9091718,28.2926194 L35.7614213,28.6111217 L35.7614213,28.6111217 L35.5176067,29.1197855 L35.5176067,29.1197855 L35.3732544,29.4128895 L35.3732544,29.4128895 L35.266294,29.6270548 L34.9527252,30.2451882 L34.9527252,30.2451882 L34.8008115,30.5424817 C34.7335647,30.6741655 34.6652706,30.8047296 34.5959489,30.9341699 C36.2720378,32.9083372 38.2630775,34.3806982 40.4886825,35.1225953 L40.7322093,35.172478 L40.7322093,40.8566155 L39.6154273,40.7101725 L39.6154273,40.7101725 C36.380753,39.9104324 33.5301372,38.132483 31.1486476,35.6836314 C28.7719791,38.1396694 25.9160416,39.842021 22.8996843,40.7232077 L21.6597774,40.8566155 L21.6597774,35.6662102 C24.0712043,34.7703157 26.0483714,33.2079673 27.6632776,31.0919017 C24.7981276,26.2770149 23.1832039,20.2455772 23.1390457,14.1566056 L23.1382605,13.5198255 L28.9397212,13.5198255 L28.9410334,14.199605 C28.9714605,17.9009459 29.6992617,21.5619021 30.9845426,24.7835512 C32.3570056,21.0940004 33.3242423,16.4816407 33.3868178,10.6647583 L23.1075842,10.6644591 C23.1897652,9.01913779 23.3563737,7.28456313 23.60741,5.46073512 C23.8584462,3.63690711 24.1811318,1.81666207 24.5754669,0 L30.620699,0 Z M2.22126067,29.2343413 L0.0739241548,29.2340227 L0.0739241548,23.5883813 L20.2608655,23.5883813 L20.2554228,24.630859 L20.2554228,24.630859 L20.2437822,25.572837 L20.2437822,25.572837 L20.2300073,26.2540596 L20.2300073,26.2540596 L20.2122658,26.8709624 L20.2122658,26.8709624 L20.1963566,27.2914296 L20.1963566,27.2914296 L20.1716734,27.7957728 L20.1716734,27.7957728 L20.1505579,28.1318202 L20.1505579,28.1318202 L20.1272112,28.4316878 L20.1272112,28.4316878 L20.1104072,28.6114995 L20.1104072,28.6114995 L20.0926115,28.7752313 L20.0926115,28.7752313 L20.0640586,28.9906791 L20.0640586,28.9906791 L20.0437838,29.1142111 L20.0437838,29.1142111 L20.0225173,29.221663 C20.0188902,29.2382317 20.0152218,29.2541304 20.0115121,29.269359 L19.9887581,29.3526911 L19.9887581,29.3526911 C19.2622741,31.705332 18.0673932,33.8167913 16.4496346,35.5255282 C17.4520631,35.6402532 18.5585834,35.6961021 19.7773622,35.6961021 L20.033446,35.6961021 L20.033446,40.8566155 C16.1972185,40.8566155 12.9367997,40.3786985 10.2860708,39.3629522 C7.40970394,40.3542858 3.94726933,40.8425861 0.171539018,40.8569061 L0,40.8572307 L0,35.6572978 C0.576600749,35.6572978 1.13513847,35.6448403 1.67565921,35.6201089 L1.94441838,35.6067213 L2.210176,35.5912931 C2.56251903,35.569364 2.90686133,35.5420071 3.24321655,35.5092768 L3.4939856,35.4837224 C3.7432575,35.4571621 3.98803858,35.4275869 4.22833461,35.3950198 L4.52636909,35.3527542 L4.68041542,35.3294469 C3.4361504,33.6950326 2.61045666,31.6738972 2.22126067,29.2343413 Z M10.2830949,33.1363663 L10.5376882,32.9676333 L10.5376882,32.9676333 C11.7759866,32.1357301 12.71034,30.8013986 13.35146,29.4459281 L13.4490215,29.2339747 L8.12571713,29.2341338 C8.54065737,30.8556215 9.23160839,32.1472729 10.2830949,33.1363663 Z M48.2768799,3.97903932e-13 L56.2562818,3.51510317 L56.2562818,9.50844871 L48.2724731,6.07532824 L48.2768799,3.97903932e-13 Z M48.2783507,11.8855609 L56.2562818,15.4174508 L56.2562818,21.5425791 L48.2724731,17.9893133 L48.2783507,11.8855609 Z M56.2562818,25.7025254 C56.2562818,33.2324598 53.2894559,38.4907624 48.2857844,40.8566155 L48.2804448,39.8613427 L48.2804448,39.8613427 L48.2762168,34.1091037 L48.2762168,34.1091037 L48.2724731,33.3862643 L48.2724731,33.3862643 C49.6381956,31.7957354 50.5349484,29.253691 50.5534356,25.875473 L50.5539066,25.7025254 L56.2562818,25.7025254 Z M72.9631408,31.1995973 C72.8463392,35.4780363 71.3549162,38.4556032 68.4966057,40.2773468 C68.0906675,40.4937334 67.6677367,40.6552604 67.2278135,40.7619278 L67.0068992,40.8161191 C66.9296336,40.8335858 66.8487407,40.8487701 66.7642203,40.8566155 L66.7579766,34.8186736 L66.7579766,34.8186736 C67.4988724,34.1296666 67.9032604,33.1760265 67.9745543,31.3722719 L67.9803131,31.1995973 L72.9631408,31.1995973 Z M88.7433599,31.1995973 L88.7491187,31.3722719 C88.8204127,33.1760265 89.2248006,34.1296666 89.9656964,34.8186736 L89.9599442,38.6066664 L89.9599442,38.6066664 L89.9594528,40.8566155 C89.8749324,40.8487701 89.7940394,40.8335858 89.7167739,40.8161191 L89.4958596,40.7619278 L89.4958596,40.7619278 C89.0559364,40.6552604 88.6330056,40.4937334 88.2270673,40.2773468 C85.4207261,38.4887259 83.9320193,35.5859294 83.7682665,31.4316775 L83.7605322,31.1995973 L88.7433599,31.1995973 Z M81.5383428,7.13133653 L80.9317298,9.65691275 L88.78291,9.65701822 L88.78291,28.6739156 L81.2423408,28.6736376 L81.2426462,34.392059 L81.2434529,34.4248703 C81.2778745,36.3776446 80.5637818,38.0678821 79.0995641,39.2083332 L79.0354298,39.2575708 C77.7379127,40.2394268 76.0497376,40.670755 73.9951104,40.6855871 L73.8846906,40.685984 L73.8846906,35.0403426 C74.8399774,35.0403426 75.6164203,34.2693353 75.6236949,33.3135197 L75.6239759,28.6736376 L68.2319949,28.6739156 L68.2319949,9.65701822 L75.0583993,9.65691275 L75.6647327,7.13133653 L81.5383428,7.13133653 Z M89.8178481,0 L89.8178481,5.64564142 L65.2250264,5.64554776 L65.2250307,28.6409771 C65.2250307,35.5094395 61.3992221,39.1982185 56.9203002,40.5977481 L56.7839484,40.6395367 L56.7770484,35.1710881 L56.7770484,35.1710881 L56.7737509,34.3995592 L56.7737509,34.3995592 C57.9903436,33.3522981 59.0471346,31.3411881 59.1536454,29.0658919 L59.1589938,28.9270988 L59.1629851,28.7135839 L59.1629851,28.7135839 L59.16325,0 L89.8178481,0 Z M83.164389,21.2452081 L73.8501635,21.2452081 L73.8501635,23.0281256 L83.1646742,23.0281256 L83.164389,21.2452081 Z M83.1646742,15.3025111 L73.8501635,15.3025111 L73.8501635,17.0853423 L83.164389,17.0853423 L83.1646742,15.3025111 Z M133.654872,1.43924021 L133.654872,7.08488163 L98.4669742,7.08488163 L98.4669742,1.43924021 L133.654872,1.43924021 Z M132.189885,17.6333169 L132.189885,23.2789583 L99.9454573,23.2789583 L99.9454573,17.6333169 L132.189885,17.6333169 Z M136.46399,33.6788241 L136.46399,39.3244655 L95.8057047,39.3244655 L95.8057047,33.6788241 L136.46399,33.6788241 Z M152.061987,3.97903932e-13 L152.060946,5.97875993 L142.246402,8.83203737 L141.37665,9.10686393 L141.363354,3.14925649 L142.164547,2.89346414 L152.061987,3.97903932e-13 Z M152.061987,11.5900607 L152.061987,40.8566155 L146.391043,40.8566155 L146.390969,19.0122918 L142.155315,20.240491 L141.363366,20.4922903 L141.363237,14.6451458 L142.123816,14.4058377 L152.061987,11.5900607 Z" id="形状" fill-rule="nonzero"></path>
                                <polygon id="路径-25" points="2.03854405 21.692974 7.39241548 21.692974 7.39241548 26.4483471 2.03854405 26.4483471"></polygon>
                            </g>
                        </g>
                    </g>
                </g>
            </g>
        </g>
    </g>
</svg>