<svg width="154" height="25" viewBox="0 0 154 25" fill="none" xmlns="http://www.w3.org/2000/svg">
<path d="M48.1 16.48V19.64H40.18V16.48H48.1ZM37.74 22.72H40.18V21.84H48.1V22.64H50.64V14.38H37.74V22.72ZM40.88 10.48C42.06 9.62 43.16 8.68 44.18 7.62C45.36 8.78 46.52 9.7 47.66 10.48H40.88ZM44.18 3.96C42.08 7.08 38.3 9.5 34.62 10.96C35.28 11.56 35.98 12.46 36.36 13.14C37.26 12.72 38.16 12.22 39.04 11.68V12.66H49.04V11.36C49.98 11.9 50.96 12.38 51.92 12.84C52.24 12.1 52.94 11.22 53.56 10.66C50.86 9.68 48.2 8.32 45.64 5.94C45.86 5.66 46.08 5.36 46.3 5.06L44.18 3.96ZM69.7 10.44C69.22 12.06 68.56 13.54 67.78 14.88C67.44 13.28 67.16 11.4 66.98 9.4H73.16V7.04H71.08L72.04 6.02C71.34 5.36 69.88 4.44 68.78 3.88L67.34 5.3C68.16 5.8 69.16 6.44 69.9 7.04H66.84C66.8 6.06 66.78 5.08 66.8 4.08H64.3C64.3 5.08 64.34 6.06 64.38 7.04H56.22V12.88C56.22 15.48 56.08 18.96 54.56 21.36C55.1 21.64 56.16 22.52 56.58 22.98C58.22 20.54 58.64 16.64 58.72 13.72H61.32C61.26 16.24 61.18 17.2 60.98 17.48C60.82 17.68 60.66 17.72 60.38 17.72C60.06 17.72 59.38 17.7 58.66 17.64C59.02 18.24 59.28 19.16 59.32 19.86C60.24 19.88 61.1 19.88 61.62 19.8C62.22 19.7 62.62 19.52 63 19C63.46 18.42 63.58 16.64 63.64 12.44C63.64 12.16 63.66 11.54 63.66 11.54H58.72V9.4H64.52C64.78 12.4 65.22 15.2 65.9 17.46C64.74 18.76 63.36 19.86 61.82 20.7C62.32 21.16 63.18 22.14 63.54 22.66C64.78 21.9 65.9 21 66.92 19.94C67.8 21.58 68.9 22.58 70.3 22.58C72.16 22.58 72.96 21.7 73.34 18C72.7 17.74 71.86 17.22 71.32 16.66C71.22 19.16 70.98 20.16 70.5 20.16C69.86 20.16 69.22 19.32 68.64 17.88C70.08 15.94 71.26 13.62 72.08 11.02L69.7 10.44ZM83.52 14.06C83.08 13.56 81.24 11.64 80.44 10.98V10.44H82.96V8.18H80.44V4.06H78.04V8.18H74.96V10.44H77.74C77.06 12.84 75.8 15.48 74.38 17.08C74.8 17.72 75.36 18.72 75.6 19.46C76.52 18.34 77.34 16.72 78.04 14.98V22.72H80.44V13.68C81.1 14.54 81.74 15.46 82.14 16.1L83.52 14.06ZM93.28 8.18H91.38V4.1H88.84V8.18H83.52V10.44H88.12C86.68 13.34 84.28 16.26 81.8 17.82C82.42 18.32 83.12 19.16 83.52 19.78C85.44 18.32 87.36 16.1 88.84 13.72V19.8C88.84 20.16 88.7 20.26 88.34 20.28C88 20.28 86.76 20.28 85.66 20.24C86 20.9 86.36 21.96 86.46 22.64C88.18 22.64 89.46 22.58 90.26 22.18C91.08 21.8 91.38 21.18 91.38 19.8V10.44H93.28V8.18ZM108.38 7.56C107.74 6.82 106.32 5.8 105.2 5.14L104.06 6.74C105.16 7.48 106.54 8.56 107.16 9.34L108.38 7.56ZM103.14 11.78C104.3 12.46 105.76 13.54 106.42 14.26L107.62 12.36C106.9 11.66 105.42 10.68 104.26 10.06L103.14 11.78ZM101.34 5.16C101.12 6.56 100.66 8.58 100.24 9.84L101.74 10.26C102.24 9.1 102.82 7.2 103.34 5.6L101.34 5.16ZM97.46 9.84C97.36 8.6 96.96 6.7 96.44 5.26L94.78 5.7C95.24 7.14 95.64 9.08 95.68 10.3L97.46 9.84ZM102.92 16.42C102.5 15.86 100.6 13.62 100.02 13.04V12.9H102.98V10.68H100.02V4.14H97.82V10.68H94.8V12.9H97.08C96.46 14.72 95.44 16.86 94.44 18.08C94.8 18.74 95.32 19.82 95.52 20.54C96.38 19.34 97.18 17.48 97.82 15.62V22.68H100.02V15.66C100.6 16.58 101.16 17.62 101.46 18.26L102.92 16.42ZM113.5 16.88L113.14 14.66L111.1 15.04V4.04H108.86V15.44L102.92 16.5L103.28 18.72L108.86 17.72V22.72H111.1V17.32L113.5 16.88Z" fill="#101010"/>
<path fill-rule="evenodd" clip-rule="evenodd" d="M10.0899 0.500057C12.1749 0.488473 13.8361 2.24084 13.847 4.36574C13.8472 4.40084 13.8469 4.43588 13.8461 4.47065L13.8408 4.72816L15.6463 4.7282C17.7763 4.7282 19.4701 6.51016 19.5036 8.67504L19.5037 8.67889L19.5042 8.74089L19.5041 10.7884L19.79 10.7884C21.8392 10.7884 23.4673 12.5026 23.4995 14.5831L23.4996 14.587L23.5 14.6464C23.5 16.7556 21.86 18.5044 19.79 18.5044L19.5041 18.5044L19.5042 20.4873C19.5042 22.6603 17.832 24.4635 15.7103 24.4995L15.7061 24.4995L15.6506 24.5L15.6463 24.5H12.397C11.8447 24.5 11.397 24.0523 11.397 23.5V21.5753C11.397 20.7229 10.7419 20.0707 9.98076 20.0707C9.21957 20.0707 8.56452 20.7229 8.56452 21.5753V23.5C8.56452 24.0523 8.1168 24.5 7.56452 24.5H4.35789C2.20623 24.5 0.5 22.682 0.5 20.4873V17.0162C0.5 16.4639 0.947715 16.0162 1.5 16.0162H3.48615C4.22882 16.0162 4.86889 15.3798 4.86889 14.5467C4.86889 13.7137 4.22883 13.0772 3.48615 13.0772H1.5C0.947715 13.0772 0.5 12.6295 0.5 12.0772V8.74088C0.5 6.54621 2.20623 4.72821 4.35788 4.7282L6.29111 4.72816V4.47229C6.29111 2.49944 7.68401 0.832853 9.538 0.544222L10 0.5L10.0854 0.500102L10.0899 0.500057ZM11.3417 4.37924C11.3379 3.63347 10.7627 3.07105 10.1035 3.07469C9.40131 3.07862 8.7964 3.68198 8.7964 4.47229V6.30285C8.7964 6.85513 8.34868 7.30285 7.7964 7.30285H4.35789C3.63185 7.30285 3.00526 7.92519 3.00526 8.74088V10.5025L3.48616 10.5025C5.63265 10.5025 7.33981 12.2983 7.37364 14.4804L7.3737 14.4842L7.37417 14.5467C7.37415 16.7588 5.65442 18.5909 3.48615 18.5909H3.00526V20.4873C3.00526 21.2939 3.61841 21.9119 4.33383 21.9251L4.33575 21.9252L4.35789 21.9254H6.05924L6.05925 21.5753C6.05925 19.366 7.75934 17.5332 9.91569 17.4966L9.91998 17.4966L9.98076 17.4961C12.1675 17.4961 13.9022 19.3439 13.9022 21.5753L13.9022 21.9254H15.6463C16.3646 21.9254 16.9853 21.3164 16.9987 20.5134L16.9987 20.5116L16.9989 20.4873V16.9298C16.9989 16.3775 17.4466 15.9298 17.9989 15.9298H19.79C20.4344 15.9298 20.9947 15.3767 20.9947 14.6464C20.9947 13.9162 20.4344 13.3631 19.79 13.3631H17.9989C17.4466 13.3631 16.9989 12.9154 16.9989 12.3631V8.74085C16.9989 7.9252 16.3723 7.30285 15.6463 7.30285H12.3022C11.7418 7.30285 11.2907 6.84229 11.3024 6.28195L11.3415 4.41552C11.3417 4.40373 11.3418 4.39108 11.3417 4.37924Z" fill="#101010"/>
</svg>
