<svg xmlns="http://www.w3.org/2000/svg" xmlns:xlink="http://www.w3.org/1999/xlink" width="349" height="87" viewBox="0 0 349 87" fill="none"><defs><rect id="path_0" x="0" y="0" width="86" height="86" /><path id="path_1"
        transform="translate(0 0) rotate(0 43 43)"
        d="M0,86L86,86L86,0L0,0L0,86Z" /><linearGradient id="linear_0" x1="100%" y1="60.87303579999998%" x2="-2.8421709430404007e-12%" y2="95.6188832%" gradientUnits="objectBoundingBox"><stop offset="0" stop-color="#E1D6FF" stop-opacity="1" /><stop offset="1" stop-color="#BEA4FF" stop-opacity="1" /></linearGradient><linearGradient id="linear_1" x1="93.3116438%" y1="61.564348800000005%" x2="-2.8421709430404007e-12%" y2="95.5671326%" gradientUnits="objectBoundingBox"><stop offset="0" stop-color="#B99DFF" stop-opacity="1" /><stop offset="1" stop-color="#966CFF" stop-opacity="1" /></linearGradient><linearGradient id="linear_2" x1="93.3116438%" y1="61.161625%" x2="-2.8421709430404007e-12%" y2="93.9802757%" gradientUnits="objectBoundingBox"><stop offset="0" stop-color="#F3EFFF" stop-opacity="1" /><stop offset="1" stop-color="#DDD0FF" stop-opacity="1" /></linearGradient><rect id="path_2" x="0" y="0" width="163" height="36" /></defs><g opacity="1" transform="translate(0 0)  rotate(0 174.5 43.5)"><g opacity="1" transform="translate(105 59)  rotate(0 121.99999999999999 14)"><g opacity="1" transform="translate(0.03 -0.32)  rotate(0 108 14)"><text><tspan x="0" y="23.544554455445542" font-size="24" line-height="27.08910891089109" fill="#636669" opacity="1" font-family="SourceHanSansCN-Regular" letter-spacing="0" >长按识别二维码查看</tspan></text></g><path  id="路径 4" style="stroke:#999999; stroke-width:3; stroke-opacity:1; stroke-dasharray:0 0" transform="translate(230.04 3.110000000000007)  rotate(0 5.000697350069745 10.574882239618725)" d="M0,0L10,10.57L0,21.15 " /></g><g opacity="1" transform="translate(0 0)  rotate(0 134.5 43)"><g opacity="1" transform="translate(0 0)  rotate(0 43 43)"><mask id="bg-mask-0" fill="white"><use xlink:href="#path_0"></use></mask><g mask="url(#bg-mask-0)" ><g opacity="1" transform="translate(0 0)  rotate(0 43 43)"><g opacity="1" transform="translate(0 0)  rotate(0 43 43)"><g opacity="1" transform="translate(0 0)  rotate(0 43 43)"><g opacity="1" transform="translate(0 0)  rotate(0 43 43)"><g opacity="1" transform="translate(0 0)  rotate(0 0.5 0.5)"></g><g opacity="1" transform="translate(0 0)  rotate(0 43 43)"><mask id="mask-1" fill="white"><use xlink:href="#path_1"></use></mask><g mask="url(#mask-1)"></g><g mask="url(#mask-1)"><g opacity="1" transform="translate(-25.835960054117095 -0.02958115965611796)  rotate(0 53.401246458870716 50.58593819661158)"><g opacity="1" transform="translate(0 0)  rotate(0 53.401246458870716 50.58593819661158)"><path id="路径-32" fill-rule="evenodd" style="fill:#3C00AC" transform="translate(17.955204982225144 13.76384284494474)  rotate(-120.00000000000001 21.560252150000004 15.80711875)" opacity="1" d="M32.25,31.61L43.12,25.21L0,0L0.13,12.9L32.25,31.61Z " /><path id="路径-31" fill-rule="evenodd" fill="url(#linear_0)" transform="translate(8.545713860013716 14.264688422646579)  rotate(-120.00000000000001 26.116578115 24.946153799999998)" opacity="1" d="M10.54,43.47L10.65,18.51L41.5,36.36L52.23,30.28L0.14,0L0,49.89L10.54,43.47Z " /><path id="路径-32" fill-rule="evenodd" style="fill:#3C00AC" transform="translate(34.202589585815 50.733016841354896)  rotate(-240 21.628888449999998 15.895002249999997)" opacity="1" d="M32.42,31.79L43.26,25.45L0,0L0.2,12.9L32.42,31.79Z " /><path id="路径-31" fill-rule="evenodd" fill="url(#linear_1)" transform="translate(40.60867100722516 41.12218574446378)  rotate(-240 26.131404200000002 24.94615385)" opacity="1" d="M10.69,43.55L10.62,18.57L41.56,36.59L52.26,30.56L0,0L0.14,49.89L10.69,43.55Z " /><path id="路径-2" fill-rule="evenodd" style="fill:#703CF4" transform="translate(74.35120733229905 9.317181518662501)  rotate(-240 5.471535349999996 27.994539715000002)" opacity="1" d="M0,5.91L0.28,55.99L10.94,49.68L10.79,0L0,5.91Z " /><path id="路径-5" fill-rule="evenodd" style="fill:#9872FA" transform="translate(41.84672770232135 73.82623176994474)  rotate(-240 5.350136750000001 4.9549691)" opacity="1" d="M0,6.03L6.66,9.91L10.7,0L0,6.03Z " /><path id="路径-5备份-2" fill-rule="evenodd" style="fill:#D9CBFF" transform="translate(89.41221975411625 30.15044425965619)  rotate(-360 5.537473650000003 5.148597649999999)" opacity="1" d="M0,6.45L6.71,10.3L11.07,0L0,6.45Z " /><path id="路径-5备份" fill-rule="evenodd" style="fill:#C1A8FF" transform="translate(27.843812724212455 11.115407711451105)  rotate(-119.99999999999997 5.366543100000001 4.97363335)" opacity="1" d="M0,6.08L6.72,9.95L10.73,0L0,6.08Z " /><path id="路径-31" fill-rule="evenodd" fill="url(#linear_2)" transform="translate(47.687294754116266 0.35049318065618706)  rotate(-360 26.39993615 24.7597835895)" opacity="1" d="M10.78,43.13L10.88,18.67L41.72,36.25L52.8,29.8L0.13,0L0,49.52L10.78,43.13Z " /><path id="路径-3" fill-rule="evenodd" style="fill:#7948F7" transform="translate(47.52442348940482 36.987909418149805)  rotate(-120.00000000000001 5.49599005 27.970813749999998)" opacity="1" d="M0.1,5.92L0,55.94L10.86,49.89L10.99,0L0.1,5.92Z " /><path id="路径-4" fill-rule="evenodd" style="fill:#8658FA" transform="translate(20.67454424782461 9.403238867348556)  rotate(-120.00000000000001 21.6128526 18.628081065000003)" opacity="1" d="M0.28,0L0,12.39L42.82,37.26L43.23,24.86L0.28,0Z " /></g></g></g></g></g></g></g></g></g></g><g opacity="1" transform="translate(106 3)  rotate(0 81.5 18)"><mask id="bg-mask-2" fill="white"><use xlink:href="#path_2"></use></mask><g mask="url(#bg-mask-2)" ><g opacity="1" transform="translate(0 0)  rotate(0 81.5 18)"><g opacity="1" transform="translate(0 0)  rotate(0 81.5 18)"><g opacity="1" transform="translate(0 0)  rotate(0 81.5 18)"><g opacity="1" transform="translate(0 0)  rotate(0 81.5 18)"><g opacity="1" transform="translate(0 0)  rotate(0 81.5 18)"><path id="直线" fill-rule="evenodd" style="fill:#000000" transform="translate(0.06485428680169833 6.152634644257888)  rotate(0 8.88408355254781 2.4872352645517584)" opacity="1" d="M0,0L0,4.97L17.77,4.97L17.77,0L0,0Z " /><path id="直线-2" fill-rule="evenodd" style="fill:#000000" transform="translate(6.485428680169822 2.72357740764785e-13)  rotate(0 2.4644628732116614 9.557023947036003)" opacity="1" d="M0,0L0,19.11L4.93,19.11L4.93,0L0,0Z " /><path id="直线-3" fill-rule="evenodd" style="fill:#000000" transform="translate(0 0)  rotate(0 2.3347543254623946 2.16814917692969)" opacity="1" d="M0,0L0,4.34L4.67,4.34L4.67,0L0,0Z " /><path id="直线-3" fill-rule="evenodd" style="fill:#000000" transform="translate(13.165420224552706 0)  rotate(0 2.334754330472884 2.176330871613424)" opacity="1" d="M0,0L0,4.35L4.67,4.35L4.67,0L0,0Z " /><path id="直线-4" fill-rule="evenodd" style="fill:#000000" transform="translate(0.06485428680169833 7.4617058440907265)  rotate(0 4.474945789016547 5.7386415065560765)" opacity="1" d="M2.33,5.22C1.65,5.81 0.85,6.21 0,6.69C0,7.83 0,9.43 0,11.48C2.11,10.86 3.9,9.9 5.37,8.61C6.83,7.33 8.03,5.05 8.95,1.79L6.36,0C5.13,2.2 3.78,3.94 2.33,5.22Z " /><path id="直线-4备份" fill-rule="evenodd" style="fill:#000000" transform="translate(8.885037292032264 7.4617058440907265)  rotate(0 4.474945796732701 5.7386415065560765)" opacity="1" d="M0,1.79C0.92,5.05 2.12,7.33 3.58,8.61C5.05,9.9 6.84,10.86 8.95,11.48C8.95,9.43 8.95,7.83 8.95,6.69C8.1,6.21 7.3,5.81 6.62,5.22C5.17,3.94 3.82,2.2 2.59,0L0,1.79Z " /><path id="直线-8" fill-rule="evenodd" style="fill:#000000" transform="translate(136.5831276311951 2.552688842195808)  rotate(0 6.615137202866649 2.487235279682394)" opacity="1" d="M0,0L0,4.97L13.23,4.97L13.23,0L0,0Z " /><path id="直线-8备份-2" fill-rule="evenodd" style="fill:#000000" transform="translate(153.63980514000917 0.13090711998328397)  rotate(0 4.036186814237961 2.4872352822041663)" opacity="1" d="M0,0L0,4.97L8.07,4.97L8.07,0L0,0Z " /><path id="直线-8备份-3" fill-rule="evenodd" style="fill:#000000" transform="translate(152.47242807498253 9.55621976382327)  rotate(0 5.263785962508729 2.4872352595082132)" opacity="1" d="M0,0L0,4.97L10.53,4.97L10.53,0L0,0Z " /><path id="直线-8备份" fill-rule="evenodd" style="fill:#000000" transform="translate(136.64798241363454 12.043455018287938)  rotate(0 6.615137202866635 2.4872353149872093)" opacity="1" d="M0,0L0,4.97L13.23,4.97L13.23,0L0,0Z " /><path id="直线-9" fill-rule="evenodd" style="fill:#000000" transform="translate(140.7986564226181 0)  rotate(0 2.4644631938830357 7.036852717664096)" opacity="1" d="M0,0L0,14.07L4.93,14.07L4.93,0L0,0Z " /><path id="直线-8" fill-rule="evenodd" style="fill:#000000" transform="translate(136.5831276311951 21.534221254902608)  rotate(0 6.615137202866649 2.4872352645517584)" opacity="1" d="M0,0L0,4.97L13.23,4.97L13.23,0L0,0Z " /><path id="直线-8备份" fill-rule="evenodd" style="fill:#000000" transform="translate(136.5831276311951 30.76317322128944)  rotate(0 6.615137202866649 2.618142399665676)" opacity="1" d="M0,0.26L0,5.24L13.23,4.97L13.23,0L0,0.26Z " /><path id="直线-9" fill-rule="evenodd" style="fill:#000000" transform="translate(140.7986564226181 19.112439507472363)  rotate(0 2.4644631938830357 7.004720996579223)" opacity="1" d="M0,0L0,14.01L4.93,14.01L4.93,0L0,0Z " /><path id="路径-13" fill-rule="evenodd" style="fill:#000000" transform="translate(20.27247923362395 0)  rotate(0 7.731116409381689 4.698318039562058)" opacity="1" d="M0.44,4.81C0.22,6.42 0.07,7.95 0,9.4L15.46,9.4L15.46,4.42L5.84,4.42L6.59,0L1.29,0C0.94,1.6 0.66,3.2 0.44,4.81Z " /><path id="路径-14" fill-rule="evenodd" style="fill:#000000" transform="translate(19.00230605073492 8.508962803956997)  rotate(0 7.782514418207982 13.7452476083319)" opacity="1" d="M10.29,0.15L10.29,0.36C10.29,7.13 8.92,12.08 7.14,15.77C5.47,19.25 3.16,21.74 0,22.92L0,27.49L1.09,27.37C5.3,26.14 9.16,23.07 11.53,18.4C13.03,15.45 15.19,11.38 15.57,0L10.29,0.15Z " /><path id="路径-15" fill-rule="evenodd" style="fill:#000000" transform="translate(20.299391778752096 11.912547883174014)  rotate(0 7.717660136817613 12.043455068723388)" opacity="1" d="M0,0L0,0.56C0.08,11.27 5.64,21.77 14.46,23.96C14.48,23.96 15.41,24.08 15.44,24.09L15.44,19.08L15.22,19.03C9.22,17.02 5.16,8.93 5.09,0.6C5.09,0.56 5.09,0.36 5.09,0L0,0Z " /><path id="路径-16" fill-rule="evenodd" style="fill:#000000" transform="translate(0 20.78412340802209)  rotate(0 8.887514388175779 7.607938295988957)" opacity="1" d="M17.54,5.08C17.69,4.58 17.77,2.89 17.78,0L0.06,0L0.06,4.97L11.8,4.97L11.79,5.01C11.22,6.25 10.38,7.5 9.24,8.26C8.1,9.04 6.63,9.87 4.83,10.22L4.63,10.26C4.6,10.26 4.57,10.27 4.53,10.27L4.33,10.31C4.3,10.31 4.26,10.32 4.23,10.33L4.02,10.36C3.99,10.36 3.95,10.37 3.92,10.37L3.71,10.4C3.5,10.43 3.28,10.46 3.07,10.48L2.85,10.5C2.55,10.53 2.25,10.56 1.94,10.58L1.71,10.59L1.47,10.6C1,10.62 0.51,10.63 0,10.63L0,15.22L0.15,15.22C5.11,15.2 9.45,14.24 12.37,12.27C14.86,10.59 16.62,8.05 17.54,5.08Z " /><path id="路径-17" fill-rule="evenodd" style="fill:#000000" transform="translate(1.7217727357530745 21.02644336691092)  rotate(0 7.926869512091965 7.48650732685494)" opacity="1" d="M0.03,0C0.04,0.14 0.04,0.25 0.04,0.32C-0.51,10.66 5.09,14.97 15.85,14.97L15.85,10.43L15.63,10.43C7.56,10.43 5.1,7.63 4.96,0.96C4.96,0.83 4.96,0.64 4.96,0.37L0.03,0Z " /><path id="路径-18" fill-rule="evenodd" style="fill:#000000" transform="translate(42.34984925525396 0)  rotate(0 3.502131495709327 4.1890278445086295)" opacity="1" d="M0,5.35L7,8.38L7,3.1L0,0L0,5.35Z " /><path id="路径-18" fill-rule="evenodd" style="fill:#000000" transform="translate(42.34984925525396 10.472569598662714)  rotate(0 3.502131495709327 4.2544813868478615)" opacity="1" d="M0,5.38L7,8.51L7,3.11L0.01,0L0,5.38Z " /><path id="路径-19" fill-rule="evenodd" style="fill:#000000" transform="translate(42.34984925525396 22.646931752064575)  rotate(0 3.502131495709327 6.676263134278112)" opacity="1" d="M2,0L2,0.15C1.98,3.13 1.2,5.37 0,6.77C0.01,8.23 0,11.75 0.01,13.35C4.4,11.27 7,6.63 7,0L2,0Z " /><path id="路径-20" fill-rule="evenodd" style="fill:#000000" transform="translate(49.80809221640519 0)  rotate(0 14.494933093265072 17.90409305193156)" opacity="1" d="M2.1,25.24L2.1,25.3C2.1,25.36 2.09,25.43 2.09,25.49L2.09,25.61C1.99,27.62 1.07,29.39 0,30.31C0.01,31.47 0.01,33.3 0.01,35.81L0.13,35.77C4.06,34.54 7.41,31.29 7.41,25.24L7.41,4.97L28.99,4.97L28.99,0L2.1,0L2.1,25.24Z " /><path id="矩形" fill-rule="evenodd" style="fill:#000000" transform="translate(59.860506733800584 8.508962803956997)  rotate(0 9.01474581472989 8.378055673886625)" opacity="1" d="M0 0L0 16.76L18.03 16.76L18.03 0L0 0Z M4.92893 4.97434L4.92893 11.7843L13.0989 11.7843L13.0989 4.97434L4.92893 4.97434Z " /><path id="路径-21" fill-rule="evenodd" style="fill:#000000" transform="translate(65.56768389699226 6.283541759197629)  rotate(0 2.9832971944814695 1.7017925648262358)" opacity="1" d="M0.81,0L0,3.4L5.15,3.4L5.97,0L0.81,0Z " /><path id="路径-22" fill-rule="evenodd" style="fill:#000000" transform="translate(62.32496962705422 15.054318823295372)  rotate(0 5.9665943388580445 1.8326996898530648)" opacity="1" d="M0,0L0,3.67L11.93,3.67L11.93,0L0,0Z " /><path id="路径-23" fill-rule="evenodd" style="fill:#000000" transform="translate(64.81966451516219 23.19885004252843)  rotate(0 3.228472926504991 6.325130803577117)" opacity="1" d="M4.58,11.35C5.86,10.34 6.49,8.85 6.46,7.13L6.46,7.1L6.46,0L1.53,0L1.53,6.07L1.53,6.15C1.52,7 0.84,7.68 0,7.68L0,12.65L0.1,12.65C1.9,12.64 3.38,12.26 4.52,11.39L4.58,11.35Z " /><path id="路径-24" fill-rule="evenodd" style="fill:#000000" transform="translate(58.56733800656526 27.490495246925068)  rotate(0 2.7219215184241845 4.2544813868478615)" opacity="1" d="M1.07,0.15C1,1.74 0.65,2.58 0,3.19C0.01,4.49 0.01,7.8 0.01,8.51C0.15,8.5 0.29,8.46 0.41,8.43C0.8,8.33 1.17,8.19 1.53,8C4.03,6.39 5.34,3.77 5.44,0L1.07,0L1.07,0.15Z " /><path id="路径-24" fill-rule="evenodd" style="fill:#000000" transform="translate(73.48382392886768 27.490495246925068)  rotate(0 2.7219215184241885 4.2544813868478615)" opacity="1" d="M0,0C0.1,3.77 1.41,6.39 3.92,8C4.27,8.19 4.65,8.33 5.03,8.43C5.15,8.46 5.29,8.5 5.44,8.51C5.44,7.8 5.44,4.49 5.44,3.19C4.79,2.58 4.44,1.74 4.38,0.15L4.37,0L0,0Z " /><path id="直线-6" fill-rule="evenodd" style="fill:#000000" transform="translate(86.38591002707713 1.268138996533479)  rotate(0 15.435320373845027 2.487235284725939)" opacity="1" d="M0,0L0,4.97L30.87,4.97L30.87,0L0,0Z " /><path id="直线-6备份" fill-rule="evenodd" style="fill:#000000" transform="translate(87.6829957550943 15.537015059580789)  rotate(0 14.144154590048242 2.487235314987211)" opacity="1" d="M0,0L0,4.97L28.29,4.97L28.29,0L0,0Z " /><path id="直线-6备份-2" fill-rule="evenodd" style="fill:#000000" transform="translate(84.05115569660425 29.67498403794963)  rotate(0 17.834928885498474 2.487235264551756)" opacity="1" d="M0,0L0,4.97L35.67,4.97L35.67,0L0,0Z " /><path id="直线-7" fill-rule="evenodd" style="fill:#000000" transform="translate(124.0192674556424 0)  rotate(0 4.693000444236826 4.012106256616868)" opacity="1" d="M0.7,2.55L0,2.77L0.01,8.02L0.77,7.78L9.39,5.27L9.39,0L0.7,2.55Z " /><path id="直线-7备份" fill-rule="evenodd" style="fill:#000000" transform="translate(124.01916423954528 10.21219929545763)  rotate(0 4.693052052285397 12.893629362581581)" opacity="1" d="M0.67,2.48L0,2.69L0,7.84L0.69,7.62L4.41,6.54L4.41,25.79L9.39,25.79L9.39,0L0.67,2.48Z " /><path id="路径-26" fill-rule="evenodd" style="fill:#000000" transform="translate(152.6519218700192 12.940251945878936)  rotate(0 4.159788591620499 11.52960303737093)" opacity="1" d="M3.39,0C3.39,7.53 3.39,12.74 3.39,15.63C3.39,16.98 2.3,18.08 0.96,18.08C0.37,18.08 0.05,18.08 0,18.08L0,23.06L0.94,23.06C5.02,23.06 8.32,19.73 8.32,15.63L8.32,0L3.39,0Z " /><path id="路径-25" fill-rule="evenodd" style="fill:#000000" transform="translate(1.7884319491549965 19.11404789407228)  rotate(0 2.3484983655074125 2.0950200294174866)" opacity="1" d="M0,4.19L4.7,4.19L4.7,0L0,0L0,4.19Z " /></g></g></g></g></g></g></g></g></g></svg>
