<svg xmlns="http://www.w3.org/2000/svg" xmlns:xlink="http://www.w3.org/1999/xlink" width="70" height="70" viewBox="0 0 70 70" fill="none"><defs><rect id="path_0" x="0" y="0" width="70" height="70" /><path id="path_1"
        transform="translate(0 0) rotate(0 22.354347837499997 25.519565224999997)"
        d="M0,51.04L44.71,51.04L44.71,0L0,0L0,51.04Z" /></defs><g opacity="1" transform="translate(0 0)  rotate(0 35 35)"><mask id="bg-mask-0" fill="white"><use xlink:href="#path_0"></use></mask><g mask="url(#bg-mask-0)" ><g opacity="1" transform="translate(0 0)  rotate(0 35 35)"><g opacity="1" transform="translate(0 0)  rotate(0 35 35)"><g opacity="1" transform="translate(0 0)  rotate(0 35 35)"><g opacity="1" transform="translate(0 0)  rotate(0 35 35)"><path id="Img" fill-rule="evenodd" style="fill:#F8F8F8" transform="translate(0 0)  rotate(0 35 35)" opacity="1" d="M35,0C15.67,0 0,15.67 0,35C0,54.33 15.67,70 35,70C54.33,70 70,54.33 70,35C70,15.67 54.33,0 35,0Z " /><path id="path-4cwlppugve-1" fill-rule="evenodd" style="fill:#FFFFFF" transform="translate(15.430434775000004 9.495652191666665)  rotate(0 22.354347837499997 25.519565224999997)" opacity="0" d="M0,51.04L44.71,51.04L44.71,0L0,0L0,51.04Z " /><g opacity="1" transform="translate(15.430434774999961 9.495652191666714)  rotate(0 22.354347837499997 25.519565224999997)"><mask id="mask-1" fill="white"><use xlink:href="#path_1"></use></mask><g mask="url(#mask-1)"></g><g mask="url(#mask-1)"><g opacity="1" transform="translate(-15.632788721243363 -12.680648118824216)  rotate(0 40.91458673026809 40.94413685701784)"><g opacity="1" transform="translate(10.911848152127805 11.022130726527962)  rotate(-120.00000000000001 30.00273857814029 29.92200613048988)"><path id="路径-31" fill-rule="evenodd" style="fill:#EDEDED" transform="translate(28.250066581280578 0)  rotate(0 15.462555704166668 14.707778458333335)" opacity="1" d="M6.23,25.64L6.26,10.93L24.57,21.5L30.93,17.93L0,0L0,29.42L6.23,25.64Z " /><path id="路径-31" fill-rule="evenodd" style="fill:#E8E8E8" transform="translate(5.006031969816862 8.39464199011222)  rotate(-120.00000000000001 15.462555616666666 14.707778458333333)" opacity="1" d="M6.26,25.66L6.26,10.93L24.57,21.5L30.93,17.93L0,0L0,29.42L6.26,25.66Z " /><path id="路径-2" fill-rule="evenodd" style="fill:#DDDDDD" transform="translate(28.153109603398526 21.842962991914973)  rotate(-120.00000000000001 3.207619595833334 16.5135852875)" opacity="1" d="M0,3.5L0.09,33.03L6.42,29.29L6.4,0L0,3.5Z " /><path id="路径-5" fill-rule="evenodd" style="fill:#DBDBDB" transform="translate(16.476071723195567 6.4617320997301775)  rotate(-120.00000000000001 3.175661679166666 2.9246167708333344)" opacity="1" d="M0,3.57L3.94,5.85L6.35,0L0,3.57Z " /><path id="路径-5备份-2" fill-rule="evenodd" style="fill:#E3E3E3" transform="translate(24.872818276077616 43.7679342682211)  rotate(-240 3.179229024999999 2.9186123166666693)" opacity="1" d="M0,3.56L3.95,5.84L6.36,0L0,3.56Z " /><path id="路径-5备份" fill-rule="evenodd" style="fill:#E1E1E1" transform="translate(52.819636489613906 17.937667241666666)  rotate(-360 3.1826453749999977 2.9209257291666675)" opacity="1" d="M0,3.57L3.94,5.84L6.37,0L0,3.57Z " /><path id="路径-32" fill-rule="evenodd" style="fill:#DDDDDD" transform="translate(20.28479060212466 30.111052834628694)  rotate(-240 12.718955112500002 9.345484166666669)" opacity="1" d="M19.16,18.69L25.44,15.03L25.25,14.7L0,0L0.1,7.61L19.16,18.69Z " /><path id="路径-31" fill-rule="evenodd" style="fill:#F2F2F2" transform="translate(23.773582995345777 24.34877431379536)  rotate(-240 15.543401037499997 14.689505191666665)" opacity="1" d="M6.35,25.59L6.39,10.74L24.72,21.28L31.09,17.71L0.05,0L0,29.38L6.35,25.59Z " /><path id="路径-3" fill-rule="evenodd" style="fill:#DDDDDD" transform="translate(21.805874806280578 0)  rotate(0 3.2220958874999983 16.482374329166667)" opacity="1" d="M0,3.47L0.02,32.96L6.44,29.42L6.44,0L0,3.47Z " /><path id="路径-4" fill-rule="evenodd" style="fill:#DDDDDD" transform="translate(34.36720003961391 10.93088581666666)  rotate(0 12.819138558333334 11.016931420833336)" opacity="1" d="M0.15,0L0,7.3L25.42,22.03L25.64,14.73L0.15,0Z " /></g></g></g></g></g></g></g></g></g></g></svg>
