<?xml version="1.0" encoding="UTF-8"?>
<svg width="40px" height="41px" viewBox="0 0 40 41" version="1.1" xmlns="http://www.w3.org/2000/svg" xmlns:xlink="http://www.w3.org/1999/xlink">
    <title>icon</title>
    <g id="页面-1" stroke="none" stroke-width="1" fill="none" fill-rule="evenodd">
        <g id="IP方主页" transform="translate(-298.000000, -1258.000000)" fill="#000000">
            <g id="About" transform="translate(48.000000, 1085.000000)">
                <g id="编组-4" transform="translate(250.000000, 172.000000)">
                    <g id="icon" transform="translate(0.000000, 1.631310)">
                        <rect id="矩形" fill-opacity="0" x="0" y="0" width="40" height="40"></rect>
                        <path d="M9.90715144,17 C8.35216346,17 7,18.3521635 7,19.9071514 C7,21.4621394 8.35216346,22.8143029 9.90715144,22.8143029 C11.4621394,22.8143029 12.8143029,21.4621394 12.8143029,19.9071514 C12.8143029,18.3521635 11.4621394,17 9.90715144,17 Z M29.2148438,17 C27.6598558,17 26.3076923,18.3521635 26.3076923,19.9071514 C26.3076923,21.4621394 27.6598558,22.8143029 29.2148438,22.8143029 C30.7698317,22.8143029 32.1219952,21.4621394 32.1219952,19.9071514 C32.1219952,18.3521635 30.7698317,17 29.2148438,17 Z M19.5609976,17 C18.0060096,17 16.6538462,18.3521635 16.6538462,19.9071514 C16.6538462,21.4621394 18.0060096,22.8143029 19.5609976,22.8143029 C21.1159856,22.8143029 22.468149,21.4621394 22.468149,19.9071514 C22.468149,18.3521635 21.1159856,17 19.5609976,17 Z" id="形状" fill-rule="nonzero"></path>
                    </g>
                </g>
            </g>
        </g>
    </g>
</svg>
