<svg width="28" height="28" viewBox="0 0 28 28" fill="none" xmlns="http://www.w3.org/2000/svg">
<g clip-path="url(#clip0_3396_6822)">
<path fill-rule="evenodd" clip-rule="evenodd" d="M12.8101 2.53738L4.25494 8.67783C3.41531 9.28046 2.91736 10.2507 2.91736 11.2842V23.186C2.91736 24.9578 4.35382 26.3943 6.12569 26.3943H21.8757C23.6476 26.3943 25.084 24.9578 25.084 23.186V11.2839C25.084 10.2505 24.586 9.2804 23.7464 8.67783L15.1913 2.53738C14.4797 2.0266 13.5217 2.0266 12.8101 2.53738ZM14.7615 11.5312C14.3409 11.1106 13.6591 11.1106 13.2385 11.5312L9.80759 14.9621C9.38702 15.3826 9.38702 16.0645 9.80759 16.4851L13.2385 19.916C13.6591 20.3365 14.3409 20.3365 14.7615 19.916L16.4769 18.2005L18.1924 16.4851C18.613 16.0645 18.613 15.3826 18.1924 14.9621L14.7615 11.5312Z" fill="#101010"/>
</g>
<defs>
<clipPath id="clip0_3396_6822">
<rect width="28" height="28" fill="white"/>
</clipPath>
</defs>
</svg>
