<svg width="82" height="36" viewBox="0 0 82 36" fill="none" xmlns="http://www.w3.org/2000/svg">
<rect opacity="0.1" width="82" height="36" rx="18" fill="#7948F7"/>
<path d="M47.12 13.13H48.996V14.628C48.996 16.014 49.276 16.602 50.662 16.602H51.558C51.852 16.602 52.202 16.588 52.426 16.49C52.356 16.112 52.328 15.538 52.3 15.118C52.104 15.174 51.754 15.216 51.53 15.216H50.802C50.606 15.216 50.578 15.048 50.578 14.642V11.59H45.566V13.102C45.566 14.068 45.356 15.076 43.592 15.832C43.9 16.056 44.502 16.714 44.698 17.036C46.686 16.112 47.12 14.544 47.12 13.158V13.13ZM43.746 13.438C43.284 12.836 42.248 11.926 41.506 11.31L40.442 12.332C41.184 12.99 42.164 13.97 42.612 14.586L43.746 13.438ZM42.794 20.746V15.44H39.518V17.036H41.184V21.236C41.184 21.908 40.792 22.384 40.484 22.608C40.764 22.93 41.198 23.616 41.324 24.022C41.576 23.686 42.038 23.294 44.628 21.096C44.418 20.802 44.138 20.172 43.998 19.724L42.794 20.746ZM49.668 18.744C49.248 19.528 48.688 20.2 48.03 20.76C47.316 20.186 46.728 19.5 46.322 18.744H49.668ZM50.774 17.12L50.494 17.19H44.334V18.744H45.342L44.768 18.94C45.272 19.976 45.93 20.872 46.7 21.642C45.734 22.174 44.614 22.524 43.396 22.748C43.662 23.098 43.998 23.756 44.152 24.19C45.566 23.854 46.868 23.378 47.988 22.692C49.01 23.392 50.214 23.896 51.6 24.232C51.81 23.77 52.258 23.112 52.622 22.748C51.39 22.51 50.312 22.146 49.374 21.642C50.452 20.634 51.278 19.304 51.782 17.568L50.774 17.12ZM56.948 22.146H62.954V22.664H56.948V22.146ZM62.954 18.03V18.548H56.948V18.03H62.954ZM56.948 20.732H62.954V21.306H56.948V20.732ZM62.954 19.92H56.948V19.374H62.954V19.92ZM57.662 13.564H56.094V12.752H57.662V13.564ZM59.174 12.752H60.756V13.564H59.174V12.752ZM62.282 12.752H63.906V13.564H62.282V12.752ZM64.606 22.664V17.022H60.392L60.49 16.476H65.894V15.258H60.686C60.714 15.062 60.742 14.866 60.77 14.684H65.572V11.646H54.512V14.684H59.076C59.062 14.866 59.048 15.062 59.02 15.258H53.938V16.476H58.894C58.866 16.672 58.838 16.854 58.81 17.022H55.366V22.664H53.742V23.84H66.3V22.664H64.606Z" fill="#7948F7"/>
<path fill-rule="evenodd" clip-rule="evenodd" d="M31.1533 12.4655C31.6646 13.1103 32.0863 13.8288 32.4056 14.5994C32.6448 15.1687 32.5215 15.8353 32.0971 16.2676C31.66 16.7267 31.4128 17.3501 31.4098 18.0013C31.4134 18.6518 31.6604 19.2744 32.0971 19.733C32.5215 20.1653 32.6448 20.8319 32.4056 21.4012C32.0882 22.1714 31.6685 22.8899 31.1593 23.5351C30.7773 24.0068 30.1799 24.217 29.6064 24.0812C28.9599 23.9366 28.2857 24.0378 27.7029 24.367C27.1443 24.6781 26.7192 25.2029 26.5147 25.8341C26.3265 26.4251 25.8309 26.8471 25.2443 26.9159C24.4215 27.028 23.5885 27.028 22.7657 26.9159C22.1829 26.8432 21.692 26.4219 21.5054 25.8341C21.2974 25.2003 20.867 24.6752 20.3031 24.367C19.7226 24.0399 19.0516 23.9387 18.4076 24.0812C17.8349 24.2157 17.2386 24.0057 16.8567 23.5351C16.3419 22.8909 15.9168 22.1724 15.5944 21.4012C15.3552 20.8319 15.4785 20.1653 15.9029 19.733C16.3427 19.2761 16.5903 18.6519 16.5903 18.0003C16.5903 17.3487 16.3427 16.7244 15.903 16.2676C15.4785 15.8353 15.3552 15.1687 15.5944 14.5994C15.9137 13.8288 16.3354 13.1103 16.8467 12.4655C17.2292 11.9945 17.8262 11.7846 18.3996 11.9193C19.0462 12.0639 19.7203 11.9627 20.3031 11.6335C20.8674 11.3259 21.298 10.8006 21.5054 10.1665C21.693 9.57676 22.1866 9.15503 22.7717 9.08471C23.5945 8.97176 24.4276 8.97176 25.2503 9.08471C25.8347 9.1558 26.3274 9.57739 26.5147 10.1665C26.7173 10.7969 27.1402 11.3217 27.6969 11.6335C28.2803 11.9632 28.9552 12.0645 29.6024 11.9193C30.1752 11.7849 30.7714 11.9949 31.1533 12.4655ZM21.3747 16.9116C21.815 15.8494 22.8519 15.1572 24.0017 15.1579C25.5697 15.1597 26.8403 16.4303 26.8421 17.9983C26.8428 19.1481 26.1506 20.185 25.0884 20.6254C24.0263 21.0657 22.8035 20.8226 21.9904 20.0096C21.1774 19.1966 20.9343 17.9737 21.3747 16.9116Z" fill="#7948F7"/>
</svg>
