<svg width="335" height="60" viewBox="0 0 335 60" fill="none" xmlns="http://www.w3.org/2000/svg">
<path d="M0 10C0 4.47715 4.47715 0 10 0H325C330.523 0 335 4.47715 335 10V50C335 55.5228 330.523 60 325 60H9.99999C4.47714 60 0 55.5228 0 50V10Z" fill="white"/>
<path d="M203.008 35.9441H216.992V34.2801H203.008V35.9441ZM205.712 28.2161C206.96 27.4321 208.096 26.4401 209.008 25.3361V27.7521H210.896V25.3361C211.84 26.4561 213.04 27.4481 214.352 28.2161H205.712ZM212.576 30.2481H207.2V29.4641H212.576V30.2481ZM212.576 32.2801H207.2V31.4481H212.576V32.2801ZM217.136 24.8881V23.2401H210.896V21.4481H209.008V23.2401H202.896V24.8881H207.168C205.936 26.1041 204.208 27.1761 202.432 27.7361C202.832 28.1041 203.376 28.8081 203.648 29.2561C204.224 29.0321 204.768 28.7761 205.312 28.4561V33.5281H214.576V28.3441C215.136 28.6641 215.712 28.9041 216.304 29.1281C216.56 28.6641 217.12 27.9441 217.536 27.5761C215.728 27.0641 213.952 26.0561 212.688 24.8881H217.136ZM229.68 30.6161H223.888V29.9281H229.68V30.6161ZM223.888 34.4241V33.6881H229.68V34.4241H223.888ZM229.68 32.5041H223.888V31.8001H229.68V32.5041ZM233.104 27.8321V26.3281H225.184C225.28 26.1041 225.376 25.8641 225.456 25.6401H232.24V24.2001H225.968C226.048 23.9441 226.128 23.6881 226.192 23.4321C228.384 23.3201 230.48 23.1441 232.176 22.8561L231.056 21.4961C228.368 21.9441 223.744 22.1361 219.84 22.1361C220 22.5201 220.176 23.1441 220.192 23.5601C221.44 23.5761 222.768 23.5601 224.096 23.5121C224.048 23.7521 223.984 23.9761 223.92 24.2001H220.016V25.6401H223.408C223.312 25.8641 223.216 26.1041 223.104 26.3281H218.896V27.8321H222.304C221.344 29.3361 220.064 30.6641 218.4 31.5601C218.768 31.9441 219.328 32.6481 219.6 33.0961C220.528 32.5521 221.344 31.8961 222.064 31.1761V36.4401H223.888V35.8641H229.68V36.4401H231.6V28.4881H224.112C224.24 28.2641 224.368 28.0561 224.48 27.8321H233.104ZM239.552 27.1441V29.0961H237.28V28.6641V27.1441H239.552ZM241.392 30.7921V25.4481H237.28V24.3121C238.928 24.1201 240.656 23.8161 242.048 23.3681L240.832 21.7521C239.456 22.2481 237.312 22.6641 235.408 22.8881H235.392V28.6641C235.392 30.7441 235.328 33.4321 234.304 35.2721C234.72 35.4961 235.536 36.1361 235.856 36.4721C236.752 34.9841 237.088 32.7921 237.216 30.7921H241.392ZM249.456 26.7761H244.464V24.3441C246.112 24.1201 247.856 23.7681 249.248 23.2881L248.016 21.6401C246.624 22.1841 244.464 22.6481 242.512 22.9041V27.8801C242.512 30.1841 242.32 33.1601 240.112 35.1441C240.512 35.4001 241.296 36.0721 241.6 36.4401C243.84 34.4401 244.384 31.1601 244.448 28.6161H246.112V36.2801H248V28.6161H249.456V26.7761ZM261.472 29.1121H255.696V28.0881H261.472V29.1121ZM255.696 31.7361V30.6961H261.472V31.7361H255.696ZM265.12 25.1601V23.3681H257.312C257.504 22.8721 257.664 22.3761 257.824 21.8801L255.856 21.4321C255.696 22.0721 255.488 22.7121 255.232 23.3681H250.928V25.1601H254.432C253.472 27.0161 252.144 28.6961 250.448 29.8321C250.816 30.1841 251.424 30.8721 251.696 31.2881C252.48 30.7601 253.168 30.1201 253.808 29.4161V36.3761H255.696V33.3201H261.472V34.2801C261.472 34.5041 261.376 34.5841 261.104 34.6001C260.832 34.6001 259.904 34.6001 259.088 34.5521C259.328 35.0641 259.584 35.8641 259.664 36.3921C260.96 36.3921 261.872 36.3761 262.496 36.0721C263.152 35.7841 263.328 35.2721 263.328 34.3281V26.4241H255.92C256.16 26.0081 256.368 25.5921 256.56 25.1601H265.12ZM272.848 32.6161H273.808V33.5921H272.848V32.6161ZM273.808 28.7441V29.5121H272.848V28.7441H273.808ZM274.896 30.6321V31.5121H272.848V30.6321H274.896ZM277.568 24.4401V23.9601H279.456L278.512 24.6641C278.768 24.8561 279.072 25.0961 279.328 25.3361H277.968C277.968 25.0321 277.968 24.7281 277.968 24.4401H277.568ZM279.248 27.5121C279.024 28.6961 278.736 29.8161 278.32 30.8081C278.176 29.7361 278.048 28.4241 278 26.9201H281.264V25.3361H280.512L280.976 24.9841C280.736 24.6641 280.256 24.2641 279.808 23.9601H281.12V22.4081H277.568V21.4641H275.664V22.4081H272.304V21.4641H270.416V22.4081H266.896V23.9601H270.416V24.7761H272.304V23.9601H275.664V24.8241H276.304V25.3361H269.456V27.7041H268.496V25.2241H267.12V29.0001H269.456V30.1041V30.1521H266.544V31.6881H267.296V31.8001C267.296 32.6001 267.184 33.9281 266.336 34.8241C266.64 34.9841 267.152 35.3521 267.408 35.5921C268.448 34.5201 268.64 32.8401 268.64 31.8481V31.6881H269.424C269.36 33.0641 269.152 34.5361 268.544 35.6561C268.944 35.8001 269.68 36.1841 269.984 36.4241C270.88 34.7281 271.024 32.0881 271.024 30.1201V26.9201H276.368C276.496 29.4001 276.752 31.4801 277.152 33.0481C276.88 33.4321 276.608 33.7841 276.304 34.1041V33.5921H275.04V32.6161H276.192V29.5121H275.04V28.7441H276.08V27.5441H271.552V34.7921H275.584C275.392 34.9681 275.168 35.1441 274.944 35.3041C275.36 35.5441 276.048 36.1361 276.32 36.4401C276.864 36.0081 277.36 35.5281 277.824 34.9681C278.288 35.8961 278.88 36.4081 279.6 36.4081C280.736 36.4081 281.232 35.9441 281.44 33.5601C281.04 33.4161 280.544 33.0801 280.208 32.7441C280.144 34.2481 279.984 34.7441 279.728 34.7441C279.472 34.7441 279.168 34.2961 278.88 33.4321C279.808 31.8641 280.496 29.9601 280.928 27.8001L279.248 27.5121ZM292.8 26.0561H287.2V23.8961H292.8V26.0561ZM294.736 22.0721H285.36V27.8641H294.736V22.0721ZM287.344 31.0161V33.7681H284.96V31.0161H287.344ZM283.152 36.3921H284.96V35.5921H287.344V36.3121H289.248V29.1921H283.152V36.3921ZM292.432 33.7681V31.0161H294.976V33.7681H292.432ZM290.608 29.1921V36.3921H292.432V35.5921H294.976V36.3281H296.896V29.1921H290.608Z" fill="#7948F7"/>
<path d="M309 34.0001L313.587 29.8718C313.808 29.6731 313.808 29.3271 313.587 29.1285L309 25.0001" stroke="#7948F7" stroke-width="2" stroke-linecap="round"/>
<mask id="mask0_203_2029" style="mask-type:alpha" maskUnits="userSpaceOnUse" x="20" y="15" width="114" height="30">
<rect x="20" y="15.0004" width="114" height="29.2358" fill="white"/>
</mask>
<g mask="url(#mask0_203_2029)">
<mask id="mask1_203_2029" style="mask-type:alpha" maskUnits="userSpaceOnUse" x="20" y="15" width="114" height="30">
<rect x="20" y="15.0004" width="114" height="29.2358" fill="white"/>
</mask>
<g mask="url(#mask1_203_2029)">
<path fill-rule="evenodd" clip-rule="evenodd" d="M27.2934 31.7928L23.5537 34.0177L23.6464 17.09L27.3442 19.1967L27.2934 31.7928Z" fill="#3C00AC"/>
<path fill-rule="evenodd" clip-rule="evenodd" d="M34.5722 31.7166L30.9234 29.7129L23.6261 33.9077L23.6373 21.8298L20.0556 19.7107L19.998 40.131L34.5722 31.7166Z" fill="url(#paint0_linear_203_2029)"/>
<path fill-rule="evenodd" clip-rule="evenodd" d="M34.5094 31.7892L38.3062 33.9154L23.6 42.299L23.5756 38.0432L34.5094 31.7892Z" fill="#3C00AC"/>
<path fill-rule="evenodd" clip-rule="evenodd" d="M30.8038 25.5236L30.8772 29.6946L38.1744 33.9077L27.709 39.9369L27.6646 44.0983L45.3779 33.938L30.8038 25.5236Z" fill="url(#paint1_linear_203_2029)"/>
<path fill-rule="evenodd" clip-rule="evenodd" d="M45.3777 33.9381L45.4715 29.7721L30.8165 21.3689L30.8604 25.5655L45.3777 33.9381Z" fill="#703CF4"/>
<path fill-rule="evenodd" clip-rule="evenodd" d="M27.6645 44.0983L25.455 41.2325L27.7088 39.9368L27.6645 44.0983Z" fill="#9872FA"/>
<path fill-rule="evenodd" clip-rule="evenodd" d="M45.0672 25.208L43.5961 28.6976L41.3374 27.3936L45.0672 25.208Z" fill="#D9CBFF"/>
<path fill-rule="evenodd" clip-rule="evenodd" d="M20.0556 19.7105L23.633 19.2037L23.6374 21.8297L20.0556 19.7105Z" fill="#C1A8FF"/>
<path fill-rule="evenodd" clip-rule="evenodd" d="M27.2856 31.891L30.9163 29.7254L30.9491 21.4371L41.3375 27.3938L45.0673 25.2082L27.3289 15.1093L27.2856 31.891Z" fill="url(#paint2_linear_203_2029)"/>
<path fill-rule="evenodd" clip-rule="evenodd" d="M19.9983 40.1309L23.5593 42.3233L38.1649 33.8779L34.5725 31.7166L19.9983 40.1309Z" fill="#7948F7"/>
<path fill-rule="evenodd" clip-rule="evenodd" d="M23.6465 17.09L27.3289 15.1089L27.2856 31.8907L23.6264 33.9074L23.6465 17.09Z" fill="#8658FA"/>
<path fill-rule="evenodd" clip-rule="evenodd" d="M59.7391 23.842L59.7391 20.84H57.3222L57.3221 23.842L54.1739 23.8421V26.2694L56.0601 26.2695C55.8182 26.5505 55.5696 26.8025 55.3142 27.0255C55.0933 27.2184 54.8459 27.3695 54.5822 27.518L54.176 27.7436L54.1759 28.1627L54.1739 30.0812C55.2084 29.7786 56.0856 29.313 56.8055 28.6843C56.9862 28.5265 57.1585 28.3383 57.3223 28.1198L57.3222 30.1666H59.7391L59.739 28.1198C59.9029 28.3383 60.0751 28.5265 60.2559 28.6843C60.9758 29.313 61.853 29.7786 62.8875 30.0812L62.8854 27.7436L62.4791 27.518C62.2155 27.3695 61.9681 27.2184 61.7472 27.0255C61.4917 26.8025 61.2431 26.5505 61.0012 26.2695L62.8865 26.2694V23.8421L59.7391 23.842ZM62.8875 22.9638V20.84H60.5978V22.9638H62.8875ZM56.4318 20.8402V22.956H54.1421V20.8402H56.4318ZM125.6 22.0855V20.84H123.183L123.183 22.0855L121.116 22.0855V24.5128L123.183 24.5127V26.7164L121.147 26.7165V29.1438H127.635V26.7165L125.6 26.7164V24.5127L127.603 24.5128V22.0855L125.6 22.0855ZM133.438 20.904V23.3312H129.479V20.904H133.438ZM134.069 27.93V25.5027H128.907V27.93L130.657 27.93L130.658 34.7805L130.657 34.8253C130.633 35.4644 130.109 35.9757 129.464 35.9773L128.995 35.9783V38.4056L129.45 38.4056C131.452 38.4055 133.075 36.7825 133.075 34.7805L133.074 27.93L134.069 27.93ZM125.6 30.1659V31.3474L127.603 31.3476V33.7748L125.6 33.7748V35.8902L127.603 35.8508V38.2781L121.116 38.4058V35.9785L123.183 35.9378V33.7748L121.116 33.7748V31.3476L123.183 31.3474L123.183 30.1659H125.6ZM66.9471 22.9977L67.3148 20.84H64.7142C64.5445 21.621 64.4057 22.4036 64.2977 23.1877C64.1897 23.9719 64.1181 24.7176 64.0827 25.425L68.5047 25.4252C68.4778 27.9261 68.0617 29.9091 67.4713 31.4954C66.9184 30.1103 66.6053 28.5363 66.5922 26.9449L66.5916 26.6527H64.0959L64.0962 26.9264C64.1152 29.5443 64.81 32.1375 66.0425 34.2076C65.3478 35.1173 64.4972 35.7891 63.4599 36.1742V38.4058L63.9933 38.3484C65.2909 37.9696 66.5195 37.2377 67.5419 36.1817C68.5664 37.2346 69.7927 37.999 71.1842 38.3428L71.6646 38.4058V35.962L71.5599 35.9405C70.6024 35.6215 69.7459 34.9885 69.0249 34.1397C69.0547 34.0841 69.0841 34.028 69.113 33.9713L69.1784 33.8435L69.3133 33.5778L69.3593 33.4857L69.4214 33.3597L69.5262 33.141L69.5898 33.004L69.675 32.8141L69.7391 32.6658L69.8033 32.512L69.8886 32.298L69.9311 32.1869L69.9946 32.0149L70.0576 31.8363L70.0992 31.7133L70.1406 31.5871L70.1816 31.4575L70.2223 31.3246L70.2625 31.1882L70.3023 31.0482L70.3415 30.9045L70.3803 30.757L70.4185 30.6056L70.4561 30.4503L70.493 30.2909L70.5293 30.1273L70.5649 29.9595L70.5997 29.7874L70.6168 29.6996L70.6504 29.5208L70.6832 29.3373L70.7151 29.1492L70.7461 28.9563L70.7761 28.7585L70.7908 28.6577L70.8193 28.4525L70.8468 28.2421L70.8601 28.135L70.886 27.9168L70.8985 27.8057L70.9226 27.5794L70.9455 27.3477L70.9672 27.1104L70.9876 26.8674L71.0067 26.6186L71.0245 26.364L71.0409 26.1034L71.0559 25.8368L71.0628 25.7012L71.0756 25.4253L71.6646 25.425V22.9977L66.9471 22.9977ZM55.0977 33.4088L54.1739 33.4086V30.9814H62.8581L62.8557 31.4296L62.8507 31.8346L62.8448 32.1274L62.8372 32.3927L62.8303 32.5734L62.8197 32.7903L62.8106 32.9348L62.8006 33.0637L62.7934 33.141L62.7857 33.2114L62.7734 33.304L62.7647 33.3571L62.7556 33.4033L62.7508 33.4238L62.741 33.4597C62.4285 34.4712 61.9145 35.3789 61.2185 36.1136C61.6498 36.1629 62.1258 36.1869 62.6501 36.1869H62.7603V38.4056C61.11 38.4056 59.7074 38.2002 58.567 37.7635C57.3297 38.1897 55.8402 38.3996 54.2159 38.4058L54.1421 38.4059V36.1703C54.3901 36.1703 54.6304 36.1649 54.8629 36.1543L54.9786 36.1485L55.0929 36.1419C55.2445 36.1324 55.3926 36.1207 55.5373 36.1066L55.6452 36.0956C55.7524 36.0842 55.8577 36.0715 55.9611 36.0575L56.0893 36.0393L56.1556 36.0293C55.6203 35.3266 55.2651 34.4576 55.0977 33.4088ZM58.6753 35.014L58.5658 35.0865C58.1134 34.6613 57.8162 34.1059 57.6377 33.4088L59.9277 33.4087L59.8857 33.4999C59.6099 34.0826 59.208 34.6563 58.6753 35.014ZM74.9103 20.84L78.3429 22.3512V24.928L74.9084 23.452L74.9103 20.84ZM78.3429 27.4684L74.9109 25.9499L74.9084 28.5742L78.3429 30.1019V27.4684ZM78.3429 31.8904C78.3429 35.1278 77.0666 37.3885 74.9141 38.4057L74.9118 37.9778L74.91 35.5047L74.9084 35.1939C75.4959 34.5101 75.8817 33.4172 75.8896 31.9647L75.8898 31.8904H78.3429ZM83.6086 38.1566C84.8382 37.3734 85.4798 36.0932 85.53 34.2538H83.3864L83.384 34.328C83.3533 35.1035 83.1793 35.5135 82.8606 35.8097L82.8633 38.4057C82.8997 38.4023 82.9345 38.3958 82.9677 38.3883L83.0627 38.365C83.252 38.3191 83.4339 38.2497 83.6086 38.1566ZM92.3185 34.2538L92.321 34.328C92.3516 35.1035 92.5256 35.5135 92.8443 35.8097L92.8418 37.4383L92.8416 38.4057C92.8053 38.4023 92.7705 38.3958 92.7372 38.3883L92.6422 38.365C92.4529 38.3191 92.271 38.2497 92.0964 38.1566C90.8891 37.3876 90.2487 36.1396 90.1782 34.3535L90.1749 34.2538H92.3185ZM88.958 24.992L89.219 23.9062H86.6922L86.4314 24.992L83.4947 24.9921V33.1682L86.6747 33.168L86.6745 35.1629C86.6714 35.5738 86.3374 35.9053 85.9264 35.9053V38.3326L85.9739 38.3324C86.8578 38.3261 87.5841 38.1406 88.1422 37.7185L88.1698 37.6973C88.7997 37.207 89.1069 36.4803 89.0921 35.6407L89.0918 35.6266L89.0916 33.168L92.3355 33.1682V24.9921L88.958 24.992ZM92.7807 20.84V23.2672L82.2012 23.2672L82.2012 33.1538C82.2012 36.1068 80.5553 37.6928 78.6286 38.2945L78.5699 38.3125L78.5669 35.9614L78.5655 35.6297C79.0889 35.1794 79.5435 34.3147 79.5893 33.3365L79.5916 33.2768L79.5933 33.185L79.5935 20.84H92.7807ZM85.9116 29.9742H89.9185L89.9186 30.937H85.9116L85.9116 29.9742ZM89.9186 27.223H85.9116L85.9116 28.1858H89.9185L89.9186 27.223ZM111.639 23.8862V21.4589H96.5015V23.8862H111.639ZM111.009 28.4214V30.8487H97.1375V28.4214H111.009ZM112.847 37.7472V35.3199H95.3566V37.7472H112.847ZM119.557 20.84L119.557 23.4105L115.335 24.6372L114.961 24.7554L114.955 22.194L115.3 22.084L119.557 20.84ZM119.557 38.4059V25.8231L115.282 27.0337L114.955 27.1366L114.955 29.6505L115.296 29.5422L117.118 29.0142L117.118 38.4059H119.557Z" fill="black"/>
<path fill-rule="evenodd" clip-rule="evenodd" d="M55.019 30.1664H57.3222V32.2109H55.019V30.1664Z" fill="black"/>
</g>
</g>
<defs>
<linearGradient id="paint0_linear_203_2029" x1="14.588" y1="26.7494" x2="29.3369" y2="38.3644" gradientUnits="userSpaceOnUse">
<stop stop-color="#E1D6FF"/>
<stop offset="1" stop-color="#BEA4FF"/>
</linearGradient>
<linearGradient id="paint1_linear_203_2029" x1="36.4506" y1="44.0041" x2="38.6719" y2="26.5234" gradientUnits="userSpaceOnUse">
<stop stop-color="#B99DFF"/>
<stop offset="1" stop-color="#966CFF"/>
</linearGradient>
<linearGradient id="paint2_linear_203_2029" x1="40.5608" y1="17.8" x2="24.2444" y2="24.7128" gradientUnits="userSpaceOnUse">
<stop stop-color="#F3EFFF"/>
<stop offset="1" stop-color="#DDD0FF"/>
</linearGradient>
</defs>
</svg>
