<svg width="16" height="14" viewBox="0 0 16 14" fill="none" xmlns="http://www.w3.org/2000/svg">
<path fill-rule="evenodd" clip-rule="evenodd" d="M8.30088 13.8484C8.25342 13.8484 8.08818 13.7764 8.00205 13.6902L7.99678 13.685L3.94678 10.3434H0.689551C0.533105 10.3434 0.367871 10.2625 0.290527 10.1852C0.213184 10.1078 0.132324 9.94258 0.132324 9.78613V4.17871C0.132324 4.05566 0.179785 3.95195 0.209668 3.92207H0.24834L0.290527 3.87988C0.367871 3.80254 0.533105 3.72168 0.689551 3.72168H3.94678L7.99678 0.279883L8.00029 0.276367C8.10225 0.174414 8.22705 0.15332 8.31318 0.15332C8.39053 0.15332 8.46963 0.170898 8.53467 0.204297L8.54346 0.20957L8.55225 0.213086C8.77197 0.286914 8.85459 0.411719 8.85459 0.677148V13.2947C8.85459 13.5602 8.77197 13.6867 8.55225 13.7588L8.52061 13.7693L8.496 13.7939C8.44326 13.8467 8.39756 13.8484 8.30088 13.8484ZM13.2067 12.4475C13.0327 12.4475 12.8007 12.3578 12.7339 12.226C12.5757 11.9096 12.6319 11.5861 12.8727 11.4156C12.9571 11.3805 13.0766 11.2891 13.2296 11.1414C13.386 10.9885 13.6233 10.7248 13.8659 10.3381C14.2702 9.69121 14.7518 8.58555 14.7518 6.98242C14.7518 5.3793 14.2421 4.27187 13.8149 3.62324C13.56 3.23652 13.3087 2.97285 13.1434 2.82168C13.0274 2.71445 12.8815 2.59316 12.7743 2.54922C12.5528 2.38926 12.4755 1.99727 12.6178 1.76699C12.7831 1.60703 12.98 1.51562 13.1593 1.51562C13.2542 1.51562 13.3421 1.54023 13.4194 1.58945C13.4303 1.59878 13.4439 1.60948 13.464 1.62521L13.4721 1.63164C13.9889 2.0377 14.4372 2.53516 14.8046 3.10996C15.5094 4.21563 15.868 5.51816 15.868 6.98242C15.868 8.45371 15.5218 9.76152 14.8415 10.8689C14.4882 11.4438 14.0593 11.9395 13.5653 12.3385L13.5476 12.353C13.5287 12.3685 13.5169 12.3781 13.5073 12.3877C13.4475 12.4475 13.2735 12.4475 13.2067 12.4475ZM10.6319 9.92323C10.7075 10.0744 10.9589 10.2449 11.1048 10.2449C11.2032 10.2449 11.2472 10.2414 11.3034 10.1887L11.3456 10.1465H11.3878C11.4722 10.1131 11.8764 9.88984 12.2737 9.37128C12.6341 8.89843 13.0647 8.06699 13.0647 6.78554C13.0647 5.65878 12.6095 4.89941 12.228 4.46171C11.7991 3.97128 11.3667 3.75507 11.2876 3.72519H11.2612L11.2243 3.70058C11.1698 3.66367 11.0977 3.64433 11.0186 3.64433C10.813 3.64433 10.5897 3.77617 10.5388 3.92734L10.5335 3.94492L10.5229 3.96074C10.4579 4.05917 10.4473 4.20507 10.4983 4.35097C10.5493 4.49687 10.6477 4.61288 10.7497 4.64628L10.762 4.6498L10.7725 4.65507C10.7732 4.6555 10.7749 4.65649 10.7775 4.65806C10.8185 4.68242 11.0925 4.84534 11.3649 5.1789C11.6321 5.50585 11.9485 6.06659 11.9485 6.88398C11.9485 8.58554 10.9905 9.1498 10.878 9.20956C10.6372 9.37304 10.479 9.68945 10.6231 9.90741L10.6284 9.91445L10.6319 9.92323Z" fill="#7948F7"/>
</svg>
