<svg width="70" height="70" viewBox="0 0 70 70" fill="none" xmlns="http://www.w3.org/2000/svg">
<g clip-path="url(#clip0_254_834)">
<circle cx="35" cy="35" r="35" fill="#7948F7"/>
<path d="M18.1963 41.5335C18.6538 41.5331 19.0955 41.7008 19.4376 42.0046C19.7796 42.3085 19.9982 42.7274 20.0517 43.1818L20.0629 43.4002V48.0668C20.063 48.5243 20.2312 48.9658 20.5354 49.3076C20.8396 49.6493 21.2586 49.8674 21.7131 49.9204L21.9296 49.9335H27.5389C28.0147 49.934 28.4723 50.1162 28.8183 50.4428C29.1642 50.7694 29.3724 51.2158 29.4003 51.6908C29.4282 52.1657 29.2737 52.6334 28.9683 52.9982C28.6629 53.3631 28.2298 53.5976 27.7573 53.6538L27.5389 53.6668H21.9296C20.5012 53.6669 19.1268 53.1212 18.0875 52.1412C17.0482 51.1613 16.4227 49.8213 16.3389 48.3954L16.3296 48.0668V43.4002C16.3296 42.9051 16.5263 42.4303 16.8763 42.0802C17.2264 41.7302 17.7012 41.5335 18.1963 41.5335ZM51.8 41.5335C52.2572 41.5336 52.6985 41.7014 53.0402 42.0052C53.3818 42.309 53.6001 42.7277 53.6536 43.1818L53.6667 43.4002V48.0668C53.6667 49.4952 53.121 50.8697 52.1411 51.9089C51.1611 52.9482 49.8211 53.5737 48.3952 53.6575L48.0667 53.6668H42.4667C41.9909 53.6663 41.5333 53.4841 41.1873 53.1575C40.8413 52.8309 40.6332 52.3845 40.6053 51.9096C40.5774 51.4346 40.7319 50.9669 41.0373 50.6021C41.3427 50.2372 41.7758 50.0028 42.2483 49.9466L42.4667 49.9335H48.0667C48.5239 49.9334 48.9652 49.7656 49.3068 49.4618C49.6485 49.1579 49.8668 48.7393 49.9203 48.2852L49.9333 48.0668V43.4002C49.9333 42.9051 50.13 42.4303 50.4801 42.0802C50.8301 41.7302 51.3049 41.5335 51.8 41.5335ZM48.0667 16.3335C49.4951 16.3334 50.8695 16.8792 51.9087 17.8591C52.948 18.839 53.5735 20.179 53.6573 21.605L53.6667 21.9335V26.6002C53.6661 27.0759 53.4839 27.5336 53.1573 27.8795C52.8307 28.2255 52.3843 28.4337 51.9094 28.4616C51.4344 28.4894 50.9668 28.3349 50.6019 28.0295C50.2371 27.7242 50.0026 27.291 49.9464 26.8186L49.9333 26.6002V21.9335C49.9333 21.4763 49.7654 21.035 49.4616 20.6933C49.1578 20.3517 48.7391 20.1334 48.2851 20.0799L48.0667 20.0668H42.4667C41.9909 20.0663 41.5333 19.8841 41.1873 19.5575C40.8413 19.2309 40.6332 18.7845 40.6053 18.3096C40.5774 17.8346 40.7319 17.3669 41.0373 17.0021C41.3427 16.6372 41.7758 16.4028 42.2483 16.3466L42.4667 16.3335H48.0667ZM51.8 33.1335C52.2951 33.1335 52.7699 33.3302 53.1199 33.6802C53.47 34.0303 53.6667 34.5051 53.6667 35.0002C53.6667 35.4952 53.47 35.97 53.1199 36.3201C52.7699 36.6702 52.2951 36.8668 51.8 36.8668H18.2C17.7049 36.8668 17.2301 36.6702 16.8801 36.3201C16.53 35.97 16.3333 35.4952 16.3333 35.0002C16.3333 34.5051 16.53 34.0303 16.8801 33.6802C17.2301 33.3302 17.7049 33.1335 18.2 33.1335H51.8ZM27.5389 16.3335C28.0147 16.334 28.4723 16.5162 28.8183 16.8428C29.1642 17.1694 29.3724 17.6158 29.4003 18.0908C29.4282 18.5657 29.2737 19.0334 28.9683 19.3983C28.6629 19.7631 28.2298 19.9976 27.7573 20.0538L27.5389 20.0668H21.9333C21.4761 20.0669 21.0348 20.2347 20.6932 20.5386C20.3515 20.8424 20.1332 21.261 20.0797 21.7151L20.0667 21.9335V26.6002C20.0661 27.0759 19.8839 27.5336 19.5573 27.8795C19.2307 28.2255 18.7843 28.4337 18.3094 28.4616C17.8344 28.4894 17.3667 28.3349 17.0019 28.0295C16.6371 27.7242 16.4026 27.291 16.3464 26.8186L16.3333 26.6002V21.9335C16.3332 20.5051 16.879 19.1307 17.8589 18.0914C18.8388 17.0521 20.1789 16.4266 21.6048 16.3428L21.9333 16.3335H27.5389Z" fill="white"/>
</g>
<defs>
<clipPath id="clip0_254_834">
<rect width="70" height="70" fill="white"/>
</clipPath>
</defs>
</svg>
