<?xml version="1.0" encoding="UTF-8"?>
<svg width="130px" height="130px" viewBox="0 0 130 130" version="1.1" xmlns="http://www.w3.org/2000/svg" xmlns:xlink="http://www.w3.org/1999/xlink">
    <title>藏品页-已售罄</title>
    <g id="页面-1" stroke="none" stroke-width="1" fill="none" fill-rule="evenodd" opacity="0.200000003">
        <g id="藏品页-已售罄" transform="translate(-590.000000, -919.000000)" fill="#000000" fill-rule="nonzero">
            <g id="编组" transform="translate(590.000000, 919.000000)">
                <g id="已完成" transform="translate(65.000000, 65.000000) rotate(-360.000000) translate(-65.000000, -65.000000) ">
                    <path d="M119.709916,61.998969 C119.994807,67.0228771 119.573402,72.0630399 118.453615,77.0387586 C116.89135,83.9726163 114.044773,90.4509205 110.010008,96.2770714 C105.823195,102.307619 100.521715,107.371741 94.2691736,111.336524 C88.0168888,115.301144 81.168509,117.911203 73.9241269,119.110354 C66.927382,120.269437 59.8495188,120.065804 52.9012181,118.503505 C48.2153045,117.453271 43.7403178,115.822598 39.5433687,113.639641 L38.7597154,113.223871 L41.7768248,111.316411 C57.4819749,119.112029 76.7704314,118.792342 92.642368,108.742616 C108.352618,98.8097147 116.891177,81.7707112 116.700026,64.4379097 L116.691329,63.9017575 L119.709916,61.998969 Z M104.498313,14.8823027 C105.729474,15.1589606 106.861677,15.8734063 107.638786,16.9700018 L107.789397,17.1943997 L126.959566,47.4210728 C127.736888,48.6432351 127.941342,50.0650917 127.645042,51.3759451 C127.366766,52.6070608 126.646907,53.74028 125.54529,54.5187151 L125.319894,54.6695956 L29.6457844,115.18828 C28.4197564,115.959837 26.9933798,116.163991 25.6791442,115.869594 C24.448495,115.593921 23.3160065,114.881012 22.5388905,113.787293 L22.3882818,113.563489 L3.21902817,83.3343933 C2.44877411,82.1116626 2.24579999,80.6864724 2.54216335,79.3728408 C2.81941975,78.1439008 3.53379837,77.0124219 4.62992927,76.2358324 L4.85422907,76.0853227 L100.524366,15.5627194 C101.75415,14.7908108 103.182772,14.5866839 104.498313,14.8823027 Z M102.176249,18.1438985 L6.49586596,78.6683724 L6.33014706,78.7847586 C5.90661104,79.111132 5.63086851,79.5619196 5.52080765,80.0490811 C5.41060821,80.536856 5.46631434,81.0616573 5.70882673,81.5353334 L5.80856624,81.7103933 L24.9790759,111.941321 L25.0939643,112.106134 C25.4167743,112.527523 25.8673546,112.803188 26.3555266,112.912944 C26.8431163,113.022568 27.3685428,112.966734 27.8421348,112.724367 L28.0171269,112.624694 L123.692649,52.0972251 L123.856111,51.9798681 C124.273997,51.6511542 124.547089,51.2000204 124.658642,50.7146676 C124.771009,50.2257759 124.719488,49.7027285 124.485622,49.2367157 L124.389339,49.0648126 L105.209537,18.8321133 L105.096463,18.6678384 C104.778054,18.2476128 104.328484,17.9710362 103.839951,17.8602204 C103.291371,17.7357841 102.693474,17.820503 102.176249,18.1438985 Z M69.4344539,102.63195 L68.9557162,106.126987 L71.5622231,108.504197 L68.0892518,109.125079 L66.6284534,112.346646 L64.9537387,109.231091 L61.4378872,108.835898 L63.8931331,106.281257 L63.1859278,102.834358 L66.3600893,104.370256 L69.4344539,102.63195 Z M87.5315532,95.51151 L88.8639611,98.7790189 L92.3043579,99.5316843 L89.6268722,101.810815 L89.9805227,105.319698 L86.9758999,103.453032 L83.7426008,104.865466 L84.5779543,101.441616 L82.2339115,98.8111433 L85.7425652,98.5564946 L87.5315532,95.51151 Z M96.317758,76.7989579 C93.7759352,83.594066 89.1178948,89.3632903 82.8778684,93.3070813 C76.7770725,97.1574814 69.7860617,98.9189789 62.7369744,98.4473446 L62.180362,98.4054682 L66.9498915,95.3881477 C71.8730817,95.0715573 76.7705322,93.5615954 81.2284277,90.7395333 C85.5174497,88.0294616 88.8910231,84.4139706 91.2792414,80.299671 L91.5504282,79.8227536 L96.317758,76.7989579 Z M37.5398775,68.5520938 L43.7717281,78.5251394 L29.0496131,87.7245378 L33.1299915,94.2545082 C33.6938256,95.1568314 34.4269042,95.3260759 35.3292274,94.7622418 L35.3292274,94.7622418 L47.1781554,87.3582098 C47.6055716,87.0911305 47.9202161,86.6964169 48.074598,86.2037444 C48.2319575,85.6101603 47.5791466,84.0370621 46.163656,81.4547743 L46.163656,81.4547743 L48.8171055,80.7872249 C50.4017165,83.9571915 51.110876,85.9903341 50.9534918,86.8480696 C50.7100337,87.7265729 50.1282355,88.4863248 49.1843518,89.1421628 L49.1843518,89.1421628 L36.0769204,97.3325949 C34.0585659,98.5938028 32.4084008,98.1721926 31.1026797,96.0826021 L31.1026797,96.0826021 L23.3870553,83.7350218 L25.6666085,82.3105988 L27.6993788,85.5637113 L40.1181952,77.8035736 L36.5868132,72.1521811 L20.9148844,81.9450891 L19.5646501,79.7842625 L37.5398775,68.5520938 Z M99.6309413,80.3003855 L102.426482,82.4489294 L105.785856,81.3787881 L104.591698,84.6814581 L106.66375,87.5439589 L103.136947,87.445184 L101.052857,90.2908039 L100.062167,86.9106655 L96.7010353,85.8020129 L99.618502,83.8237669 L99.6309413,80.3003855 Z M75.8472499,63.6327801 L80.3579227,70.8513655 L78.1496055,72.2312753 L77.5115827,71.2102254 L65.4964373,78.7181215 L66.13446,79.7391714 L63.9023975,81.1339189 L59.3917247,73.9153335 L75.8472499,63.6327801 Z M74.8259519,66.9123176 L62.8108064,74.4202138 L64.2797426,76.7710031 L76.2948881,69.2631069 L74.8259519,66.9123176 Z M68.9182242,50.4304914 L70.0755679,52.2826285 L63.1181813,56.6300861 L63.9490947,57.9598255 L69.861686,54.2652284 L70.9596787,56.0223841 L65.0470874,59.7169812 L65.8334876,60.9754846 L71.7935696,57.251212 L72.8915623,59.0083676 L66.9314803,62.7326402 L67.7772315,64.086125 L75.1620343,59.471588 L76.3342157,61.3474704 L58.548951,72.4609372 L54.4982482,65.9784576 C54.2577179,67.2843524 53.9311139,68.6110151 53.5184362,69.9584456 L53.5184362,69.9584456 L51.426166,68.1952605 C52.4445363,64.4883316 52.6318442,61.0365721 51.9880898,57.839982 L51.9880898,57.839982 L54.4634864,56.8874885 C54.6266519,57.6769902 54.7274889,58.4724221 54.8134883,59.2441087 L54.8134883,59.2441087 L59.9899738,56.0094815 C59.2124068,55.5048494 58.4407699,55.0625458 57.6750631,54.6825706 L57.6750631,54.6825706 L59.7647033,52.8485466 C60.5422703,53.3531787 61.3406052,53.9438845 62.2220364,54.614734 L62.2220364,54.614734 L68.9182242,50.4304914 Z M64.6994177,64.1273877 L58.6680997,67.8961735 L59.5138508,69.2496583 L65.5451689,65.4808725 L64.6994177,64.1273877 Z M76.9489381,11.5348687 C81.6344756,12.58545 86.1068199,14.2130449 90.3034276,16.4010052 L91.087045,16.8178104 L88.076242,18.7221129 C72.3678245,10.9264445 53.0828445,11.2532656 37.2071491,21.2922398 C21.497025,31.2285971 12.9584831,48.2675139 13.1316174,65.6002027 L13.1397515,66.1363514 L10.1171342,68.0397325 C9.8328903,63.0158197 10.260677,57.9789293 11.3770403,53.0073604 C12.9429401,46.0702031 15.7893437,39.5879292 19.839564,33.7682046 C24.0227912,27.7340449 29.3242166,22.6699985 35.5765936,18.7054737 C41.8326006,14.7408315 48.6808538,12.1270336 55.9248582,10.9280978 C62.9218992,9.77682796 69.9997605,9.97254455 76.9489381,11.5348687 Z M62.8150248,61.1117287 L56.7837068,64.8805145 L57.5701069,66.1390179 L63.601425,62.3702321 L62.8150248,61.1117287 Z M60.8861187,58.0248336 L54.9022913,61.763944 C54.8933837,61.8025271 54.8844761,61.8411101 54.8993138,61.8648555 L54.8993138,61.8648555 L55.685714,63.1233589 L61.7170321,59.3545731 L60.8861187,58.0248336 Z M101.509519,42.5456146 L102.726213,44.4927331 L96.9086033,48.1279792 L97.9620828,49.8138988 L106.890333,44.2349088 L108.136703,46.2295179 L99.2084529,51.8085079 L100.618038,54.0643159 L105.414598,51.0670925 L104.405632,49.4524089 L106.590204,48.0873369 L109.350023,52.5039714 L107.165451,53.8690434 L106.631293,53.014211 L94.7586195,60.4330807 L95.2927781,61.2879131 L93.1082062,62.6529852 L90.3780622,58.2838414 L92.5626341,56.9187693 L93.5419249,58.4859622 L98.3859756,55.4590634 L96.9763903,53.2032555 L87.3832703,59.1977022 L86.1369002,57.203093 L95.7300202,51.2086463 L94.6765407,49.5227267 L90.4023783,52.1935198 C90.277647,52.9978345 90.0994949,53.7694962 89.8916672,54.4936672 L89.8916672,54.4936672 L87.3273187,54.5112343 C88.0576432,52.4040271 88.3160383,50.4926632 88.1025039,48.7771425 L88.1025039,48.7771425 L90.4354284,47.9136755 C90.4828694,48.4123029 90.5303105,48.9109304 90.5391685,49.4006502 L90.5391685,49.4006502 L101.509519,42.5456146 Z M90.5458183,41.802586 L92.8456679,45.4831148 L85.318393,50.1866781 C85.6536565,51.4629471 85.7010231,52.754029 85.4278399,54.1133446 L85.4278399,54.1133446 L83.1098772,53.6797997 C83.5047646,52.1453838 83.2615299,50.646524 82.3950109,49.2069654 L82.3950109,49.2069654 L81.3563692,47.5447912 L90.5458183,41.802586 Z M67.1150649,31.5946924 L67.6719301,31.6366003 L62.8995813,34.653944 C57.9764897,34.9705241 53.0754618,36.4809847 48.6168727,39.2955426 C44.328028,42.0126459 40.9578861,45.6144448 38.569679,49.7446147 L38.298478,50.2234973 L33.5276644,53.2412042 C36.0725433,46.4456177 40.7309285,40.6788542 46.9714751,36.7312483 C53.0690063,32.8808539 60.062785,31.122585 67.1150649,31.5946924 Z M29.5943102,40.2637398 L30.5603981,43.6621833 L33.9045661,44.7940168 L30.9713333,46.7643691 L30.9300783,50.2879677 L28.1505094,48.1047388 L24.7820192,49.1530192 L26.0001148,45.8376875 L23.9572785,42.9630352 L27.4846069,43.0906549 L29.5943102,40.2637398 Z M86.12308,46.3491374 L84.1284709,47.5955075 L84.3658747,47.9754331 C84.5290898,48.2366319 84.6685596,48.5126684 84.7931917,48.7649596 L84.7931917,48.7649596 L86.8352915,47.488914 L86.12308,46.3491374 Z M88.1629717,36.9853078 L89.1422625,38.5525006 L85.343007,40.9265389 L85.8326524,41.7101354 L88.9907835,39.736716 L89.9107234,41.2089275 L80.982473,46.7879175 L80.0625332,45.3157061 L83.6243352,43.0900451 L83.1346898,42.3064487 L78.4568565,45.2294834 L77.4775657,43.6622905 L82.155399,40.7392558 L81.4877007,39.6707152 L83.6960179,38.2908055 L84.3637162,39.3593461 L88.1629717,36.9853078 Z M89.4711739,44.2570162 L87.7852543,45.3104956 L88.4974657,46.4502723 L90.1833854,45.3967928 L89.4711739,44.2570162 Z M95.4469623,31.3111874 L96.6043059,33.1633245 C96.7823588,33.4482686 97.0049497,33.5402974 97.2661485,33.3770822 L97.2661485,33.3770822 L98.9758135,32.308765 L99.9551043,33.8759579 L97.7705324,35.2410299 C96.6782465,35.9235659 95.8145808,35.7038532 95.1320448,34.6115673 L95.1320448,34.6115673 L94.7165881,33.9466976 L92.0571093,35.6085244 C92.413215,36.1784127 92.5971732,36.7898368 92.6416368,37.3893757 C92.6386097,38.0185902 92.4307821,38.7427612 92.0033162,39.5381435 L92.0033162,39.5381435 L99.7442992,34.7010404 L100.515862,35.9357985 C100.586974,37.2120426 100.30786,38.5090298 99.7081972,39.8742507 C100.9073,39.5211721 102.27262,39.0642293 103.774482,38.4559316 L103.774482,38.4559316 L103.919709,40.6433569 C101.853913,41.4059373 100.037456,41.8806456 98.4465923,42.0823198 C97.5620099,43.3614421 96.4043684,44.6791227 94.9499225,46.0501993 L94.9499225,46.0501993 L93.1247068,44.978582 C94.2407629,44.0170568 95.1935791,43.0584842 95.9890854,42.1651927 C94.7098886,42.0730647 93.6473774,41.7464855 92.7926442,41.2240383 L92.7926442,41.2240383 L91.9378117,41.7581969 L90.9585209,40.191004 L91.8845894,39.6123322 L89.9910407,39.2767709 C90.2641743,38.4457583 90.4007659,37.7661004 90.3384871,37.2437276 C90.2376252,36.7124472 89.9171499,35.9882266 89.3681535,35.1096487 L89.3681535,35.1096487 L95.4469623,31.3111874 Z M98.5390181,37.6333053 L94.4785638,40.1705588 C95.1374289,40.4852281 96.0990534,40.5446783 97.3545297,40.3874926 C97.9660282,39.41108 98.3430507,38.4821332 98.5390181,37.6333053 L98.5390181,37.6333053 Z M40.1322061,25.721277 L43.1504539,27.5480207 L46.3619631,26.1044348 L45.5559493,29.5286385 L47.9233261,32.1476698 L44.4095254,32.4312967 L42.6502598,35.4872949 L41.29206,32.2299172 L37.8425896,31.5107548 L40.5147354,29.2326046 L40.1322061,25.721277 Z M63.425083,18.5110315 L65.1137802,21.6108553 L68.6236678,21.9777614 L66.2050459,24.5401646 L66.9414461,27.9955302 L63.7500802,26.4811496 L60.6895529,28.2505893 L61.1422189,24.7543992 L58.518311,22.4013779 L61.9950524,21.7378555 L63.425083,18.5110315 Z" id="形状结合"></path>
                </g>
            </g>
        </g>
    </g>
</svg>
