<svg width="114" height="36" viewBox="0 0 114 36" fill="none" xmlns="http://www.w3.org/2000/svg">
<path d="M47.8232 6.2478V8.17311H40.8286V6.2478H47.8232Z" fill="black"/>
<path d="M45.2963 3.8667V11.2645H43.356V3.8667H45.2963Z" fill="black"/>
<path d="M42.6412 3.8667V5.54501H40.803V3.8667H42.6412Z" fill="black"/>
<path d="M47.8238 3.8667V5.55134H45.9856V3.8667H47.8238Z" fill="black"/>
<path d="M43.3339 6.75452L44.3518 7.44737C43.9894 8.70954 43.5192 9.58996 42.9413 10.0886C42.3633 10.5873 41.6591 10.9567 40.8286 11.1967C40.8297 10.4041 40.8303 9.78608 40.8303 9.34246C41.1641 9.15732 41.4781 9.00243 41.744 8.77292C42.3165 8.279 42.8465 7.60619 43.3339 6.75452Z" fill="black"/>
<path d="M45.3186 6.75452L44.3008 7.44737C44.6632 8.70954 45.1333 9.58996 45.7113 10.0886C46.2893 10.5873 46.9935 10.9567 47.824 11.1967C47.8229 10.4041 47.8223 9.78608 47.8223 9.34246C47.4885 9.15732 47.1745 9.00243 46.9085 8.77292C46.3361 8.279 45.8061 7.60619 45.3186 6.75452Z" fill="black"/>
<path d="M99.7786 4.85474V6.78004H94.5703V4.85474H99.7786Z" fill="black"/>
<path d="M104.463 3.91736V5.84266H101.285V3.91736H104.463Z" fill="black"/>
<path d="M104.969 7.56531V9.49061H100.825V7.56531H104.969Z" fill="black"/>
<path d="M99.8037 8.52808V10.4534H94.5955V8.52808H99.8037Z" fill="black"/>
<path d="M98.1703 3.8667V9.31374H96.23V3.8667H98.1703Z" fill="black"/>
<path d="M99.7786 12.2012V14.1265H94.5703V12.2012H99.7786Z" fill="black"/>
<path d="M99.7786 15.7731V17.6984L94.5703 17.7997V15.8744L99.7786 15.7731Z" fill="black"/>
<path d="M98.1703 11.2639V16.6861H96.23V11.2639H98.1703Z" fill="black"/>
<path d="M49.2906 3.8667H51.3784L51.0833 5.57819L54.8706 5.57824V7.50355H48.7837C48.8121 6.94245 48.8696 6.35092 48.9563 5.72895C49.043 5.10698 49.1545 4.48623 49.2906 3.8667Z" fill="black"/>
<path d="M54.4105 7.15991C54.2611 11.5652 53.4132 13.1385 52.8216 14.2824C51.888 16.0876 50.3699 17.2758 48.7114 17.7543L48.2832 17.7998V16.0297C49.528 15.573 50.4378 14.6085 51.0955 13.2647C51.7944 11.8367 52.3344 9.91869 52.3344 7.29824L52.3322 7.21675L54.4105 7.15991Z" fill="black"/>
<path d="M50.7973 8.47717C50.7975 8.61664 50.7976 8.69391 50.7978 8.70899C50.8246 11.9325 52.4222 15.0662 54.7859 15.8443L54.87 15.8613V17.7997C54.8613 17.798 54.4929 17.7519 54.4843 17.7498C51.0146 16.9027 48.8244 12.8376 48.794 8.69433L48.7937 8.47717H50.7973Z" fill="black"/>
<path d="M47.8003 11.9109C47.7979 13.0288 47.7666 13.6841 47.7063 13.8767C47.3464 15.0278 46.6534 16.0095 45.6739 16.6593C44.5221 17.4234 42.8132 17.7926 40.8622 17.7999L40.803 17.8V16.0267C41.0021 16.0267 41.195 16.0224 41.3817 16.014L41.4745 16.0094L41.5663 16.0042C41.688 15.9967 41.8069 15.9874 41.9231 15.9762L42.0097 15.9675C42.0958 15.9584 42.1803 15.9484 42.2633 15.9372L42.3458 15.9258C42.3594 15.9238 42.373 15.9218 42.3866 15.9198L42.4675 15.9074C42.4809 15.9052 42.4943 15.9031 42.5076 15.9009L42.587 15.8874C42.6001 15.8851 42.6132 15.8828 42.6263 15.8804L42.7041 15.8659C43.4128 15.7301 43.9917 15.4083 44.4423 15.1094C44.8885 14.8134 45.2205 14.3308 45.4424 13.8481L45.4478 13.8362L40.8285 13.8362V11.9109H47.8003Z" fill="black"/>
<path d="M43.433 12.1476C43.433 12.2505 43.4336 12.3269 43.4346 12.3771C43.4888 14.9561 44.4578 16.0399 47.633 16.0399H47.7215V17.7997C43.4838 17.7997 41.2806 16.1324 41.4947 12.129C41.4962 12.1015 41.4955 12.0601 41.4927 12.0046L43.433 12.1476Z" fill="black"/>
<path d="M57.4756 3.8667L60.2314 5.06544L60.2314 7.10932L57.4741 5.93854L57.4756 3.8667Z" fill="black"/>
<path d="M57.4762 7.92004L60.2314 9.12451L60.2314 11.2133L57.4741 10.0016L57.4762 7.92004Z" fill="black"/>
<path d="M60.2314 12.632C60.2314 15.1999 59.2068 16.9931 57.4787 17.7999C57.4732 17.1789 57.4787 15.8183 57.4741 15.2523C57.9458 14.7099 58.2555 13.843 58.2619 12.6909L58.262 12.632H60.2314Z" fill="black"/>
<path d="M71.8226 3.8667V5.792L63.3291 5.79197L63.3291 13.634C63.3291 15.9763 62.0079 17.2343 60.461 17.7115L60.4139 17.7258C60.4139 16.7551 60.4127 16.0458 60.4104 15.5978C60.8306 15.2407 61.1955 14.5548 61.2323 13.7789L61.2342 13.7316C61.2349 13.7077 61.2354 13.6834 61.2356 13.6587L61.2356 13.634V3.8667H71.8226Z" fill="black"/>
<path d="M71.4652 7.15991H64.3677V13.6451H71.4652V7.15991ZM69.5249 9.08517V11.7198H66.308V9.08517H69.5249Z" fill="black"/>
<path d="M68.9631 6.29858L68.6428 7.6159H66.6143L66.9346 6.29858H68.9631Z" fill="black"/>
<path d="M70.0358 9.69324V11.1119H65.3381V9.69324H70.0358Z" fill="black"/>
<path d="M68.861 12.8456V15.5953L68.8613 15.6065C68.8731 16.2724 68.6265 16.8489 68.1208 17.2378L68.0987 17.2546C67.6506 17.5894 67.0675 17.7365 66.358 17.7416L66.3198 17.7417V15.8164C66.6498 15.8164 66.9179 15.5503 66.9205 15.2204L66.9207 15.1954V12.8456H68.861Z" fill="black"/>
<path d="M64.2808 14.5066H66.0017C65.9613 15.9656 65.4463 16.9811 64.4591 17.6023C64.3189 17.6761 64.1728 17.7312 64.0209 17.7676C63.9725 17.7792 63.9192 17.7945 63.8608 17.7999C63.8608 17.5244 63.8608 16.2451 63.8586 15.7408C64.1145 15.5058 64.2542 15.1806 64.2788 14.5655L64.2808 14.5066Z" fill="black"/>
<path d="M71.4514 14.5066H69.7305C69.7708 15.9656 70.2859 16.9811 71.2731 17.6023C71.4133 17.6761 71.5593 17.7312 71.7113 17.7676C71.7596 17.7792 71.813 17.7945 71.8714 17.7999C71.8714 17.5244 71.8714 16.2451 71.8735 15.7408C71.6177 15.5058 71.478 15.1806 71.4534 14.5655L71.4514 14.5066Z" fill="black"/>
<path d="M86.9624 4.35754V6.28285H74.8098V4.35754H86.9624Z" fill="black"/>
<path d="M86.4565 9.88013V11.8054H75.3206V9.88013H86.4565Z" fill="black"/>
<path d="M87.9322 15.3518V17.2771H73.8904V15.3518H87.9322Z" fill="black"/>
<path d="M93.3197 3.8667L93.3193 5.90561L89.9297 6.87864L89.6293 6.97237L89.6248 4.94067L89.9015 4.85344L93.3197 3.8667Z" fill="black"/>
<path d="M93.3197 7.81909V17.7997H91.3612L91.3611 10.3503L89.8983 10.7691L89.6248 10.855L89.6248 8.86095L89.8874 8.77934L93.3197 7.81909Z" fill="black"/>
<path d="M104.171 8.875V14.9243C104.171 16.5123 102.884 17.7997 101.296 17.7997L100.896 17.7998V15.8745C100.917 15.8745 101.046 15.8742 101.284 15.8736C101.807 15.8723 102.231 15.4477 102.231 14.9243C102.231 13.8052 102.231 11.7888 102.231 8.875H104.171Z" fill="black"/>
<path fill-rule="evenodd" clip-rule="evenodd" d="M41.5071 11.2645H43.3561V12.8862H41.5071V11.2645Z" fill="black"/>
<path d="M41.2007 32.2H42.4327V29.5864C42.4327 28.8384 42.3359 28.02 42.2743 27.316H42.3183L42.9783 28.7152L44.8615 32.2H46.1815V25.688H44.9495V28.284C44.9495 29.0232 45.0463 29.8856 45.1167 30.5632H45.0727L44.4215 29.1552L42.5295 25.688H41.2007V32.2ZM47.7921 32.2H49.0945V29.56H51.4089V28.4688H49.0945V26.7704H51.8049V25.688H47.7921V32.2ZM54.2334 32.2H55.5358V26.7704H57.3838V25.688H52.403V26.7704H54.2334V32.2ZM65.6959 25.3184H63.4959V26.1808H65.6959V25.3184ZM60.8823 26.128H62.2199V30.5104H62.9591V25.1864H60.1783V30.5544H60.8823V26.128ZM65.3527 31.3112V29.9736H65.9511V29.1024H65.3527V27.9056H64.5519V31.4696L64.1471 31.5488V28.3808H63.3727V31.6896L62.9327 31.76L63.0031 32.1032C62.8183 31.716 62.4927 31.1352 62.2199 30.704L61.7535 30.9504C61.9383 30.2992 61.9735 29.6128 61.9735 29.0144V26.6208H61.1551V29.0056C61.1551 30.0088 61.0407 31.5312 59.9143 32.3144C60.1079 32.464 60.3631 32.7368 60.4863 32.9128C61.0759 32.4728 61.4367 31.892 61.6479 31.276C61.9119 31.7424 62.2023 32.2968 62.3343 32.6488L63.0295 32.2352L63.1263 32.6576C63.9887 32.4816 65.1063 32.2352 66.1799 31.9888L66.0919 31.1704L65.3527 31.3112ZM68.1247 27.6504V26.7792H66.8487C66.8399 26.2952 66.8311 25.8024 66.8311 25.3096C67.0775 25.688 67.3151 26.2072 67.4119 26.5328L68.1599 26.2072C68.0543 25.864 67.7903 25.3624 67.5263 25.0016L66.8311 25.2832L66.8399 24.764H65.9423C65.9511 25.4152 65.9599 26.1016 65.9775 26.7792H63.1439V27.6504H66.0039C66.1007 30.4576 66.3647 32.9656 67.2887 32.9656C67.9311 32.9656 68.1599 32.5784 68.2655 31.1352C68.0367 31.012 67.7727 30.8184 67.5879 30.5984C67.5879 31.5488 67.5351 32.0592 67.4559 32.0592C67.1831 32.0592 66.9543 30.0704 66.8663 27.6504H68.1247ZM70.2103 30.5192V30.0088H71.5215V30.5192H70.2103ZM71.5215 28.768V29.2344H70.2103V28.768H71.5215ZM72.5599 27.9056H69.2423V32.9568H70.2103V31.2936H71.5215V31.8832C71.5215 31.9888 71.4863 32.0152 71.3807 32.0152C71.2663 32.024 70.9231 32.0328 70.6063 32.0152C70.7383 32.2616 70.8967 32.6664 70.9495 32.9392C71.4687 32.9392 71.8823 32.9304 72.1727 32.7632C72.4719 32.6136 72.5599 32.3584 72.5599 31.9008V27.9056ZM71.1167 25.6088C71.2575 25.8464 71.4159 26.1104 71.5479 26.3744L70.2631 26.4536C70.5975 26.0312 70.9495 25.512 71.1959 25.0104L70.0871 24.72C69.8407 25.3712 69.4271 25.9872 69.2951 26.1632C69.1455 26.3568 69.0047 26.4712 68.8639 26.5064C68.9871 26.788 69.1631 27.2808 69.2159 27.4832C69.4447 27.3952 69.7879 27.3336 71.9087 27.1576C71.9703 27.316 72.0231 27.4656 72.0495 27.5976L72.9999 27.2192C72.8591 26.6648 72.4103 25.8816 72.0055 25.2832L71.1167 25.6088ZM75.7191 28.68C76.5199 28.68 76.8015 28.3632 76.9159 27.2368C76.6255 27.1752 76.2119 27.0168 76.0007 26.8584C75.9567 27.624 75.9039 27.756 75.6135 27.756H74.6631C74.3287 27.756 74.2759 27.7208 74.2759 27.404V26.8848C75.0415 26.656 75.8687 26.3832 76.5375 26.0576L75.8687 25.3008C75.4639 25.5384 74.8743 25.8024 74.2759 26.04V24.7728H73.2375V27.4216C73.2375 28.3808 73.4927 28.68 74.5135 28.68H75.7191ZM74.6895 31.9888C74.3463 31.9888 74.2847 31.9448 74.2847 31.6368V30.9416C75.0855 30.6864 75.9479 30.3696 76.6255 30.0088L75.9391 29.2432C75.5167 29.5248 74.9095 29.8152 74.2847 30.0616V28.8736H73.2463V31.6368C73.2463 32.596 73.5103 32.904 74.5399 32.904H75.7719C76.6079 32.904 76.8895 32.552 76.9951 31.32C76.7135 31.2496 76.2999 31.0912 76.0799 30.9416C76.0359 31.8216 75.9831 31.9888 75.6751 31.9888H74.6895ZM83.1727 27.2808H80.0927V26.0928H83.1727V27.2808ZM84.2375 25.0896H79.0807V28.2752H84.2375V25.0896ZM80.1719 30.0088V31.5224H78.8607V30.0088H80.1719ZM77.8663 32.9656H78.8607V32.5256H80.1719V32.9216H81.2191V29.0056H77.8663V32.9656ZM82.9703 31.5224V30.0088H84.3695V31.5224H82.9703ZM81.9671 29.0056V32.9656H82.9703V32.5256H84.3695V32.9304H85.4255V29.0056H81.9671ZM87.6607 27.9496H89.5087V27.0608H89.0159V24.7552H88.1447V27.0608H87.6607V24.9752H86.7631V28.2488C86.7631 29.472 86.6927 31.4168 86.2087 32.684C86.4551 32.7456 86.8775 32.8864 87.0887 32.9832C87.4055 32.0856 87.5551 30.9152 87.6167 29.824H88.3295V32.9744H89.2271V28.944H87.6519C87.6607 28.6976 87.6607 28.46 87.6607 28.2488V27.9496ZM90.7495 28.2488V27.6592H91.4447C91.4007 27.8528 91.3479 28.0464 91.2687 28.2488H90.7495ZM90.7495 26.3304H91.5239V26.788V26.9024H90.7495V26.3304ZM93.1871 26.9024H92.4743V26.8144V26.3304H93.1871V26.9024ZM93.1871 28.2488H92.2807C92.3423 28.0464 92.3863 27.8528 92.4127 27.6592H93.1871V28.2488ZM94.5247 30.4224H93.0287V29.2608H92.0255V30.4224H90.7143C91.2863 30.0264 91.6735 29.5512 91.9463 29.0672H94.1903V25.512H92.1663C92.2631 25.3008 92.3687 25.072 92.4655 24.852L91.2335 24.7552C91.2071 24.984 91.1543 25.248 91.0927 25.512H89.7991V29.0672H90.8023C90.5383 29.3928 90.1863 29.7008 89.7111 29.9736C89.8783 30.088 90.1335 30.264 90.3007 30.4224H89.4647V31.3288H92.0255V32.9656H93.0287V31.3288H94.5159L94.5247 30.4224ZM98.5903 29.4896C98.5903 30.2464 98.4935 31.5048 97.3759 32.3056C97.6399 32.4816 97.9831 32.8072 98.1503 33.036C99.4439 32.0152 99.6551 30.5456 99.6551 29.5072V28.3016H98.5903V29.4896ZM100.984 32.948H102.066V28.284H100.984V32.948ZM99.9279 24.7288C99.5231 25.8552 98.6783 27.0256 97.1559 27.844V26.9112C97.4815 26.3128 97.7719 25.6792 97.9919 25.0632L97.0063 24.7552C96.5751 26.0048 95.8359 27.2544 95.0615 28.0464C95.2375 28.3104 95.5279 28.8736 95.6247 29.1376C95.7831 28.9616 95.9415 28.768 96.0999 28.5656V32.9568H97.1559V27.9848C97.3583 28.196 97.5959 28.5304 97.6927 28.7592C98.8983 28.0816 99.7519 27.228 100.35 26.2776C100.984 27.2456 101.82 28.108 102.709 28.636C102.876 28.3896 103.21 27.9936 103.43 27.8C102.427 27.2808 101.433 26.3128 100.852 25.3184C100.914 25.1776 100.975 25.0544 101.028 24.9136L99.9279 24.7288ZM105.736 24.7728C105.314 26.0224 104.592 27.2632 103.835 28.064C104.011 28.328 104.293 28.9 104.381 29.1552C104.539 28.9704 104.706 28.768 104.865 28.5656V32.9568H105.833V27.008C106.158 26.3832 106.458 25.732 106.678 25.0896L105.736 24.7728ZM107.883 31.4256H110.488V31.9184H107.883V31.4256ZM110.488 27.8088V28.2928H107.883V27.8088H110.488ZM110.488 30.2024V30.704H107.883V30.2024H110.488ZM110.488 29.4984H107.883V29.0144H110.488V29.4984ZM111.456 31.9184V27.0432H109.423C109.476 26.8584 109.52 26.6648 109.573 26.4448H111.922V25.5472H109.758C109.802 25.292 109.854 25.0456 109.89 24.7992L108.781 24.764C108.763 25.0104 108.737 25.2656 108.71 25.5472H106.59V26.4448H108.587C108.552 26.656 108.517 26.8584 108.482 27.0432H106.959V31.9184H106.202V32.7984H112.125V31.9184H111.456Z" fill="#7F7F7F"/>
<rect x="0.800049" y="0.93335" width="30.0667" height="34.3114" fill="white" fill-opacity="0.01"/>
<mask id="mask0_21_1612" style="mask-type:alpha" maskUnits="userSpaceOnUse" x="0" y="0" width="31" height="36">
<rect x="0.800049" y="0.93335" width="30.0667" height="34.3114" fill="white"/>
</mask>
<g mask="url(#mask0_21_1612)">
<path fill-rule="evenodd" clip-rule="evenodd" d="M9.41618 20.7168L5.01099 23.338L5.12015 3.39519L9.47601 5.87718L9.41618 20.7168Z" fill="#3C00AC"/>
<path fill-rule="evenodd" clip-rule="evenodd" d="M17.9905 20.6272L13.6924 18.2665L5.0966 23.2085L5.10986 8.97932L0.890758 6.48274L0.822998 30.5403L17.9905 20.6272Z" fill="url(#paint0_linear_21_1612)"/>
<path fill-rule="evenodd" clip-rule="evenodd" d="M17.9161 20.7128L22.3884 23.2178L5.06541 33.0946L5.03662 28.0808L17.9161 20.7128Z" fill="#3C00AC"/>
<path fill-rule="evenodd" clip-rule="evenodd" d="M13.5511 13.3311L13.6376 18.2451L22.2332 23.2086L9.90559 30.3117L9.85335 35.2143L30.7186 23.2443L13.5511 13.3311Z" fill="url(#paint1_linear_21_1612)"/>
<path fill-rule="evenodd" clip-rule="evenodd" d="M30.7185 23.2443L30.829 18.3362L13.5662 8.43627L13.6179 13.3804L30.7185 23.2443Z" fill="#703CF4"/>
<path fill-rule="evenodd" clip-rule="evenodd" d="M9.85328 35.2144L7.25061 31.8382L9.90551 30.3117L9.85328 35.2144Z" fill="#9872FA"/>
<path fill-rule="evenodd" clip-rule="evenodd" d="M30.3524 12.9591L28.6196 17.0703L25.959 15.534L30.3524 12.9591Z" fill="#D9CBFF"/>
<path fill-rule="evenodd" clip-rule="evenodd" d="M0.890783 6.48228L5.10481 5.88518L5.10989 8.97886L0.890783 6.48228Z" fill="#C1A8FF"/>
<path fill-rule="evenodd" clip-rule="evenodd" d="M9.40674 20.8323L13.6834 18.281L13.7221 8.51631L25.9591 15.5341L30.3525 12.9592L9.45768 1.0614L9.40674 20.8323Z" fill="url(#paint2_linear_21_1612)"/>
<path fill-rule="evenodd" clip-rule="evenodd" d="M0.822685 30.54L5.01732 33.1228L22.2219 23.1732L17.9902 20.6269L0.822685 30.54Z" fill="#7948F7"/>
<path fill-rule="evenodd" clip-rule="evenodd" d="M5.12009 3.39542L9.45775 1.06153L9.40681 20.8324L5.09646 23.2083L5.12009 3.39542Z" fill="#8658FA"/>
</g>
<defs>
<linearGradient id="paint0_linear_21_1612" x1="-5.55096" y1="14.7753" x2="11.8252" y2="28.4584" gradientUnits="userSpaceOnUse">
<stop stop-color="#E1D6FF"/>
<stop offset="1" stop-color="#BEA4FF"/>
</linearGradient>
<linearGradient id="paint1_linear_21_1612" x1="20.2022" y1="35.1022" x2="22.8184" y2="14.5084" gradientUnits="userSpaceOnUse">
<stop stop-color="#B99DFF"/>
<stop offset="1" stop-color="#966CFF"/>
</linearGradient>
<linearGradient id="paint2_linear_21_1612" x1="25.0441" y1="4.23138" x2="5.82347" y2="12.3734" gradientUnits="userSpaceOnUse">
<stop stop-color="#F3EFFF"/>
<stop offset="1" stop-color="#DDD0FF"/>
</linearGradient>
</defs>
</svg>
