<?xml version="1.0" encoding="UTF-8"?><svg version="1.1" width="45px" height="45px" viewBox="0 0 45.0 45.0" xmlns="http://www.w3.org/2000/svg" xmlns:xlink="http://www.w3.org/1999/xlink"><defs><clipPath id="i0"><path d="M375,0 L375,570 L0,570 L0,0 L375,0 Z"></path></clipPath><clipPath id="i1"><path d="M22.5,0 C34.926407,0 45,10.0735934 45,22.5 C45,34.9264066 34.926407,45 22.5,45 C10.073593,45 0,34.9264066 0,22.5 C0,10.0735934 10.073593,0 22.5,0 Z M22.2632786,7.80013393 L22.228664,7.85432411 L9.73838921,29.9431698 L9.70994635,30.0004146 C9.60198122,30.2506645 9.6809206,30.5436814 9.89939776,30.7059337 L9.9568969,30.7436727 L22.4471294,37.9486345 L22.5092059,37.9797311 C22.657151,38.04324 22.8249141,38.0433916 22.9729739,37.9801505 L23.0351066,37.9491659 L35.5777637,30.7441682 L35.6315389,30.7093162 C35.8524628,30.5485768 35.9335837,30.2552373 35.8272028,30.004035 L35.7966737,29.9422136 L23.2540579,7.85340429 L23.219619,7.79973964 C23.1700043,7.73092714 23.1059579,7.67342464 23.0316768,7.63142143 C22.7672644,7.48190786 22.4364542,7.558875 22.2632786,7.80013393 Z M28.8874556,19.9444548 L34.6280358,30.0535714 L23.0355898,36.7128477 L23.0355898,23.351062 L28.8874556,19.9444548 Z M16.5022653,20.1565977 L21.9641139,23.3355263 L21.9641139,36.4332048 L10.9060714,30.0541071 L16.5022653,20.1565977 Z M22.7421431,9.12214286 L28.3586823,19.0128477 L22.5133932,22.4153571 L17.0299672,19.2239191 L22.7421431,9.12214286 Z"></path></clipPath></defs><g transform="translate(-22.0 -497.0)"><g clip-path="url(#i0)"><g transform="translate(22.0 497.0)"><g clip-path="url(#i1)"><polygon points="0,0 45,0 45,45 0,45 0,0" stroke="none" fill="#000000"></polygon></g></g></g></g></svg>
