<svg width="60" height="60" viewBox="0 0 60 60" fill="none" xmlns="http://www.w3.org/2000/svg">
<path d="M30 0C38.2845 0 45.7845 3.35774 51.2134 8.78662C56.6423 14.2155 60 21.7155 60 30C60 38.2845 56.6423 45.7845 51.2134 51.2134C45.7845 56.6422 38.2845 60 30 60C21.7155 60 14.2155 56.6422 8.78662 51.2134C3.35775 45.7845 0 38.2845 0 30C0 21.7155 3.35775 14.2155 8.78662 8.78662C14.2155 3.35774 21.7155 0 30 0ZM42.3514 23.5709C41.1798 22.3993 39.2803 22.3993 38.1088 23.5709L27.6537 34.0259L22.5836 28.9557C21.412 27.7842 19.5125 27.7842 18.3409 28.9557C17.1694 30.1273 17.1694 32.0268 18.3409 33.1984L25.6992 40.5566C26.7787 41.6361 28.5288 41.6361 29.6083 40.5566L42.3514 27.8135C43.523 26.6419 43.523 24.7424 42.3514 23.5709Z" fill="#7948F7"/>
</svg>
