<svg width="58" height="58" viewBox="0 0 58 58" fill="none" xmlns="http://www.w3.org/2000/svg">
<path fill-rule="evenodd" clip-rule="evenodd" d="M8.48808 8.48808C3.24577 13.7415 0 20.9915 0 29C0 37.0085 3.24577 44.2585 8.48808 49.5119C13.7415 54.7542 20.9915 58 29 58C37.0085 58 44.2585 54.7542 49.5119 49.5119C54.7542 44.2585 58 37.0085 58 29C58 20.9915 54.7542 13.7415 49.5119 8.48808C44.2585 3.24577 37.0085 0 29 0C20.9915 0 13.7415 3.24577 8.48808 8.48808ZM27.5501 15.9512C25.9485 15.9512 24.6501 17.2495 24.6501 18.8512V33.2512C24.6501 34.908 25.9932 36.2512 27.6501 36.2512H39.1501C40.7517 36.2512 42.0501 34.9528 42.0501 33.3512C42.0501 31.7495 40.7517 30.4512 39.1501 30.4512H30.4501V18.8512C30.4501 17.2495 29.1517 15.9512 27.5501 15.9512Z" fill="#7948F7"/>
</svg>
