<svg width="18" height="16" viewBox="0 0 18 16" fill="none" xmlns="http://www.w3.org/2000/svg">
<g clip-path="url(#clip0_2190_9614)">
<path d="M0 7.61724V7.09603C0.045064 6.61826 0.135192 6.18392 0.270384 5.74958C0.630897 4.62029 1.21673 3.66474 2.02788 2.8395C3.15448 1.66678 4.5064 0.928402 5.99352 0.450628C6.84974 0.190024 7.70595 0.0597218 8.56217 0.0162878C9.28319 -0.0271462 9.95915 0.0162877 10.6802 0.14659C11.266 0.233458 11.8068 0.36376 12.3926 0.58093C13.7896 1.0587 15.0063 1.79708 16.0428 2.8395C16.178 2.9698 16.2681 3.1001 16.4033 3.2304C16.3582 3.2304 16.3582 3.27384 16.3132 3.27384C15.9527 3.44757 15.5922 3.62131 15.2316 3.75161C12.7081 4.8809 10.1845 6.01018 7.66089 7.09603C7.16518 7.3132 6.66948 7.26977 6.21884 7.00916C5.85833 6.79199 5.54288 6.57482 5.18236 6.35765C4.95704 6.18392 4.73172 6.05361 4.46134 5.87988C4.23602 5.74958 4.10083 5.83644 4.10083 6.09705V6.14048C4.14589 6.35765 4.19096 6.57482 4.28108 6.79199C4.73172 7.83441 5.18236 8.83339 5.63301 9.87581C5.7682 10.1798 5.99352 10.3101 6.2639 10.2667C6.44416 10.2667 6.62441 10.2233 6.75961 10.1364C7.30037 9.87581 7.79608 9.57177 8.29178 9.26773C11.0407 7.70411 13.7445 6.14048 16.4934 4.57686C16.6737 4.44656 16.899 4.35969 17.0793 4.22939C17.0793 4.27282 17.1243 4.27282 17.1243 4.31625C17.2145 4.48999 17.3046 4.62029 17.3497 4.79403C17.8454 5.83644 18.0707 6.92229 17.9806 8.05158C17.9355 8.52935 17.8454 9.00713 17.7102 9.4849C17.3947 10.5273 16.854 11.4394 16.0879 12.2647C15.1866 13.2202 14.06 13.9586 12.8433 14.4364C12.1222 14.697 11.4012 14.9142 10.6802 15.0445C10.1845 15.1313 9.68877 15.1748 9.23813 15.1748H8.42698C8.06646 15.1313 7.70595 15.1313 7.3905 15.0879C6.84973 15.001 6.30897 14.8707 5.81326 14.697H5.67807C5.45275 14.8273 5.27249 14.9576 5.04717 15.0879C4.55147 15.3919 4.10083 15.6525 3.60512 15.9131C3.515 15.9566 3.3798 16 3.28968 16C3.19955 16 3.10942 15.9566 3.10942 15.8263C3.10942 15.7394 3.10942 15.6091 3.15448 15.5222C3.24461 14.8707 3.3798 14.2626 3.515 13.6111C3.515 13.5243 3.515 13.4808 3.42487 13.4374C3.15448 13.2202 2.8841 13.0465 2.61371 12.7859C1.71243 12.0041 0.991409 11.0485 0.540769 9.96267C0.360512 9.4849 0.22532 8.96369 0.135192 8.44248C0.0901281 8.22531 0.0901281 8.00814 0.0901281 7.74754C0 7.74754 0 7.70411 0 7.61724Z" fill="#6BCC03"/>
</g>
<defs>
<clipPath id="clip0_2190_9614">
<rect width="18" height="16" fill="white"/>
</clipPath>
</defs>
</svg>
