<?xml version="1.0" encoding="UTF-8"?>
<svg width="16px" height="13px" viewBox="0 0 16 13" version="1.1" xmlns="http://www.w3.org/2000/svg" xmlns:xlink="http://www.w3.org/1999/xlink">
    <title>路径</title>
    <g id="数源卡包H5_1.1" stroke="none" stroke-width="1" fill="none" fill-rule="evenodd">
        <g id="登录安全验证" transform="translate(-47.000000, -428.000000)" fill="#000000" fill-rule="nonzero">
            <g id="编组-4" transform="translate(20.000000, 410.000000)">
                <g id="右箭头" transform="translate(35.000000, 25.000000) scale(-1, 1) translate(-35.000000, -25.000000) translate(27.000000, 17.000000)">
                    <path d="M11.1062132,8.93755958 C11.1062132,8.93755958 4.45319867,8.93932997 1.43202299,8.93932997 C0.641017772,8.93932997 0,8.30198829 0,7.51947433 C0,6.73518998 0.641017772,6.09961868 1.43202299,6.09961868 C3.96573947,6.09961868 11.1008565,6.09784829 11.1008565,6.09784829 C11.1008565,6.09784829 10.6205396,5.61807163 8.41179589,3.42632439 C7.85112853,2.8721912 7.85112853,1.97283127 8.41179589,1.41692769 C8.97246324,0.861024105 9.87953017,0.861024105 10.438412,1.41692769 L15.5808387,6.51566117 C16.1397204,7.07156476 16.1397204,7.9691543 15.5808387,8.52505788 C15.5808387,8.52505788 12.6900092,11.3913251 10.4812655,13.5830723 C9.92059816,14.1389759 9.0153168,14.1389759 8.45464944,13.5830723 C7.89398209,13.0271687 7.89398209,12.1295792 8.45464944,11.5736756 C10.245571,9.79443007 11.1062132,8.93755958 11.1062132,8.93755958 Z" id="路径" transform="translate(8.000000, 7.500000) scale(-1, 1) translate(-8.000000, -7.500000) "></path>
                </g>
            </g>
        </g>
    </g>
</svg>